<svg width="170" height="72" viewBox="0 0 170 72" fill="none" xmlns="http://www.w3.org/2000/svg">
<path d="M62.2687 41.9394V31.2553C62.2687 30.6297 62.2182 29.3495 62.1172 27.4145L63.4685 32.106L66.6762 41.9394H69.3283L72.536 32.106C72.5837 31.9586 72.6357 31.7924 72.6921 31.6073L72.7618 31.3761C73.037 30.4551 73.4037 29.1346 73.862 27.4145C73.7863 29.2494 73.7463 30.2878 73.7421 30.5296C73.7378 30.7715 73.7357 31.0134 73.7357 31.2553V41.9394H77.0445V24.3118H72.0814L68.8105 34.6582L68.0149 37.4856L67.4087 35.1211L67.1308 34.1703L63.9484 24.3118H58.96V41.9394H62.2687ZM83.7154 42.1896C85.7192 42.1896 87.2178 41.3014 88.2113 39.5248H88.2871C88.3713 40.3672 88.626 41.0053 89.0511 41.439C89.4763 41.8727 90.1351 42.0895 91.0276 42.0895C91.2801 42.0895 91.5011 42.0812 91.6906 42.0645C91.88 42.0478 92.0589 42.027 92.2273 42.002C92.3957 41.9769 92.5641 41.9436 92.7325 41.9019C92.9008 41.8602 93.0903 41.8143 93.3008 41.7642V39.8626C93.0482 39.9127 92.7872 39.9377 92.5178 39.9377C92.1136 39.9377 91.8253 39.7938 91.6527 39.5061C91.4801 39.2183 91.3938 38.695 91.3938 37.936V33.0068C91.3938 31.4554 90.9265 30.2586 89.992 29.4162C89.0574 28.5738 87.7272 28.1526 86.0013 28.1526C84.2922 28.1526 82.943 28.4925 81.9537 29.1722C80.9644 29.852 80.3562 30.8508 80.1288 32.1686L83.8291 32.3437C83.9049 31.6598 84.0964 31.1698 84.4037 30.8737C84.711 30.5776 85.193 30.4296 85.8497 30.4296C86.5569 30.4296 87.0663 30.6443 87.3778 31.0739C87.6893 31.5034 87.8451 32.1602 87.8451 33.0443V33.7324L84.9025 33.7824C83.1513 33.7991 81.8148 34.1744 80.8929 34.9084C79.971 35.6424 79.51 36.7099 79.51 38.1111C79.51 39.4039 79.8805 40.4068 80.6214 41.1199C81.3623 41.8331 82.3936 42.1896 83.7154 42.1896ZM84.852 39.7375C84.3553 39.7375 83.9575 39.5811 83.6586 39.2684C83.3597 38.9556 83.2103 38.4781 83.2103 37.8359C83.2103 37.3355 83.3008 36.9351 83.4818 36.6349C83.6628 36.3346 83.9259 36.1115 84.2711 35.9655C84.6163 35.8196 85.2014 35.7299 86.0265 35.6966L87.8451 35.6715V36.3596C87.8451 36.9518 87.7146 37.5127 87.4536 38.0423C87.1926 38.5719 86.8327 38.9869 86.3738 39.2871C85.915 39.5874 85.4077 39.7375 84.852 39.7375ZM98.4688 41.9394V35.2962C98.4688 33.9034 98.7151 32.8525 99.2076 32.1435C99.7002 31.4346 100.388 31.0801 101.272 31.0801C101.71 31.0801 102.215 31.1427 102.788 31.2678V28.3278C102.51 28.2027 102.144 28.1401 101.689 28.1401C101.134 28.1401 100.67 28.2339 100.3 28.4216C99.9296 28.6093 99.6096 28.897 99.3402 29.2848C99.0708 29.6727 98.7635 30.342 98.4183 31.2928H98.3678C98.3678 31.0426 98.3468 30.5359 98.3047 29.7728C98.2626 29.0096 98.2289 28.553 98.2036 28.4028H94.8191C94.8444 28.7865 94.8675 29.2265 94.8886 29.7227C94.9096 30.219 94.9201 30.8382 94.9201 31.5805V41.9394H98.4688ZM108.461 42.1646C109.581 42.1646 110.579 42.0228 111.454 41.7392V39.5624C110.941 39.6791 110.545 39.7375 110.267 39.7375C109.737 39.7375 109.345 39.5811 109.093 39.2684C108.84 38.9556 108.714 38.4698 108.714 37.8109V30.7799H111.303V28.4028H108.714V25.2251H106.491L105.38 28.4028H103.473V30.7799H105.203V38.7617C105.203 39.9043 105.485 40.7571 106.049 41.3201C106.613 41.8831 107.417 42.1646 108.461 42.1646ZM117.102 25.9632V23.3735H113.553V25.9632H117.102ZM117.102 41.9394V28.4028H113.553V41.9394H117.102ZM124.266 41.9394V34.6832C124.266 33.5406 124.529 32.6043 125.055 31.8745C125.581 31.1448 126.274 30.7799 127.132 30.7799C128.757 30.7799 129.57 31.9684 129.57 34.3454V41.9394H133.106V33.3446C133.106 31.6431 132.719 30.3503 131.944 29.4662C131.169 28.5822 130.058 28.1401 128.61 28.1401C127.608 28.1401 126.745 28.3736 126.021 28.8407C125.297 29.3078 124.695 30.0584 124.215 31.0926H124.165C124.165 30.8341 124.144 30.3608 124.101 29.6727C124.059 28.9846 124.026 28.5613 124 28.4028H120.616C120.641 28.7698 120.664 29.1848 120.685 29.6476C120.706 30.1105 120.717 30.7048 120.717 31.4304V41.9394H124.266ZM142.53 42.1896C144.702 42.1896 146.403 41.5662 147.632 40.3193C148.861 39.0724 149.476 37.3521 149.476 35.1586C149.476 32.8983 148.889 31.1656 147.714 29.9604C146.54 28.7552 144.837 28.1526 142.606 28.1526C140.425 28.1526 138.729 28.7761 137.516 30.023C136.304 31.2699 135.698 32.9817 135.698 35.1586C135.698 37.3438 136.304 39.0619 137.516 40.313C138.729 41.5641 140.4 42.1896 142.53 42.1896ZM142.492 39.7876C141.499 39.7876 140.739 39.3935 140.212 38.6053C139.686 37.8171 139.423 36.6682 139.423 35.1586C139.423 32.0977 140.501 30.5672 142.656 30.5672C143.666 30.5672 144.437 30.93 144.967 31.6556C145.498 32.3812 145.763 33.5489 145.763 35.1586C145.763 38.2446 144.673 39.7876 142.492 39.7876Z" fill="white"/>
<path opacity="0.595853" d="M94.1369 52.9781C94.4063 52.9781 94.6558 52.9355 94.8855 52.8502C95.1152 52.7648 95.3084 52.6511 95.4652 52.5089C95.622 52.3667 95.7523 52.2223 95.8561 52.0757C95.9599 51.9292 96.0449 51.7771 96.1111 51.6196L95.3294 51.3768C95.2322 51.6174 95.0765 51.8209 94.8623 51.9871C94.6481 52.1534 94.4019 52.2365 94.1236 52.2365C93.6952 52.2365 93.3529 52.0593 93.0968 51.7049C92.8406 51.3505 92.7125 50.8692 92.7125 50.2611C92.7125 49.6616 92.8395 49.1836 93.0935 48.8271C93.3474 48.4705 93.6908 48.2922 94.1236 48.2922C94.5786 48.2922 94.9473 48.5437 95.23 49.0469L95.9786 48.8041C95.8241 48.4497 95.5889 48.1522 95.2731 47.9115C94.9573 47.6709 94.5786 47.5506 94.1369 47.5506C93.4523 47.5506 92.8936 47.7945 92.4608 48.2823C92.0279 48.7702 91.8115 49.4298 91.8115 50.2611C91.8115 51.1055 92.0313 51.7695 92.4707 52.2529C92.9102 52.7364 93.4656 52.9781 94.1369 52.9781ZM98.2643 52.9781C98.5293 52.9781 98.7667 52.9344 98.9764 52.8469C99.1862 52.7594 99.3552 52.6467 99.4833 52.5089C99.6113 52.3711 99.7173 52.2114 99.8013 52.0298C99.8852 51.8482 99.9437 51.6699 99.9768 51.4949C100.01 51.3199 100.027 51.1449 100.027 50.9699C100.027 50.4054 99.8763 49.9285 99.576 49.5391C99.2757 49.1497 98.8384 48.955 98.2643 48.955C97.6857 48.955 97.2462 49.1497 96.9459 49.5391C96.6456 49.9285 96.4954 50.4054 96.4954 50.9699C96.4954 51.1536 96.5119 51.3341 96.5451 51.5113C96.5782 51.6885 96.6378 51.8679 96.7239 52.0495C96.8101 52.2311 96.9183 52.3886 97.0486 52.522C97.1789 52.6555 97.3489 52.7648 97.5587 52.8502C97.7685 52.9355 98.0037 52.9781 98.2643 52.9781ZM98.2643 52.2693C98.0213 52.2693 97.8093 52.1621 97.6283 51.9478C97.4472 51.7334 97.3566 51.4074 97.3566 50.9699C97.3566 50.5236 97.4483 50.1943 97.6316 49.9821C97.8149 49.7699 98.0258 49.6638 98.2643 49.6638C98.5028 49.6638 98.7125 49.7699 98.8936 49.9821C99.0747 50.1943 99.1653 50.5236 99.1653 50.9699C99.1653 51.4074 99.0747 51.7334 98.8936 51.9478C98.7125 52.1621 98.5028 52.2693 98.2643 52.2693ZM101.623 52.86V47.498H100.788V52.86H101.623ZM104.154 52.9781C104.419 52.9781 104.656 52.9344 104.866 52.8469C105.076 52.7594 105.245 52.6467 105.373 52.5089C105.501 52.3711 105.607 52.2114 105.691 52.0298C105.775 51.8482 105.833 51.6699 105.866 51.4949C105.9 51.3199 105.916 51.1449 105.916 50.9699C105.916 50.4054 105.766 49.9285 105.466 49.5391C105.165 49.1497 104.728 48.955 104.154 48.955C103.575 48.955 103.136 49.1497 102.835 49.5391C102.535 49.9285 102.385 50.4054 102.385 50.9699C102.385 51.1536 102.402 51.3341 102.435 51.5113C102.468 51.6885 102.527 51.8679 102.614 52.0495C102.7 52.2311 102.808 52.3886 102.938 52.522C103.068 52.6555 103.239 52.7648 103.448 52.8502C103.658 52.9355 103.893 52.9781 104.154 52.9781ZM104.154 52.2693C103.911 52.2693 103.699 52.1621 103.518 51.9478C103.337 51.7334 103.246 51.4074 103.246 50.9699C103.246 50.5236 103.338 50.1943 103.521 49.9821C103.704 49.7699 103.915 49.6638 104.154 49.6638C104.392 49.6638 104.602 49.7699 104.783 49.9821C104.964 50.1943 105.055 50.5236 105.055 50.9699C105.055 51.4074 104.964 51.7334 104.783 51.9478C104.602 52.1621 104.392 52.2693 104.154 52.2693ZM107.446 52.86V50.9305C107.446 50.563 107.523 50.2687 107.675 50.0478C107.827 49.8268 108.047 49.7163 108.334 49.7163C108.498 49.7163 108.663 49.7426 108.831 49.7951V49.0403C108.703 48.9835 108.537 48.955 108.334 48.955C108.118 48.955 107.931 49.0075 107.774 49.1125C107.618 49.2175 107.497 49.3401 107.413 49.4801V49.0732H106.605V52.86H107.446ZM110.64 52.9781C111.121 52.9781 111.493 52.8699 111.756 52.6533C112.019 52.4367 112.15 52.1731 112.15 51.8624C112.15 51.3593 111.757 50.983 110.971 50.7336C110.949 50.7248 110.914 50.7139 110.865 50.7008C110.679 50.6395 110.536 50.5892 110.434 50.5498C110.333 50.5105 110.234 50.4481 110.14 50.3628C110.045 50.2775 109.997 50.1801 109.997 50.0707C109.997 49.9395 110.051 49.8334 110.159 49.7524C110.268 49.6715 110.423 49.631 110.626 49.631C110.997 49.631 111.313 49.8082 111.574 50.1626L112.13 49.8279C111.993 49.5741 111.786 49.3652 111.508 49.2011C111.229 49.0371 110.933 48.955 110.62 48.955C110.2 48.955 109.849 49.0557 109.566 49.2569C109.284 49.4582 109.142 49.7251 109.142 50.0576C109.142 50.2282 109.173 50.3781 109.235 50.5072C109.297 50.6362 109.388 50.7434 109.507 50.8288C109.626 50.9141 109.74 50.9819 109.848 51.0322C109.956 51.0825 110.09 51.1339 110.249 51.1864C110.267 51.1908 110.295 51.1996 110.335 51.2127C110.556 51.2827 110.721 51.3385 110.832 51.3801C110.942 51.4216 111.047 51.484 111.147 51.5671C111.246 51.6502 111.296 51.7465 111.296 51.8559C111.296 51.9915 111.235 52.0998 111.113 52.1807C110.992 52.2617 110.827 52.3022 110.62 52.3022C110.196 52.3022 109.851 52.1096 109.586 51.7246L108.983 52.0724C109.138 52.3525 109.36 52.5734 109.649 52.7353C109.939 52.8972 110.269 52.9781 110.64 52.9781ZM116.013 52.9781C116.278 52.9781 116.515 52.9344 116.725 52.8469C116.935 52.7594 117.104 52.6467 117.232 52.5089C117.36 52.3711 117.466 52.2114 117.55 52.0298C117.633 51.8482 117.692 51.6699 117.725 51.4949C117.758 51.3199 117.775 51.1449 117.775 50.9699C117.775 50.4054 117.625 49.9285 117.324 49.5391C117.024 49.1497 116.587 48.955 116.013 48.955C115.434 48.955 114.995 49.1497 114.694 49.5391C114.394 49.9285 114.244 50.4054 114.244 50.9699C114.244 51.1536 114.26 51.3341 114.293 51.5113C114.327 51.6885 114.386 51.8679 114.472 52.0495C114.558 52.2311 114.667 52.3886 114.797 52.522C114.927 52.6555 115.097 52.7648 115.307 52.8502C115.517 52.9355 115.752 52.9781 116.013 52.9781ZM116.013 52.2693C115.77 52.2693 115.558 52.1621 115.377 51.9478C115.196 51.7334 115.105 51.4074 115.105 50.9699C115.105 50.5236 115.197 50.1943 115.38 49.9821C115.563 49.7699 115.774 49.6638 116.013 49.6638C116.251 49.6638 116.461 49.7699 116.642 49.9821C116.823 50.1943 116.914 50.5236 116.914 50.9699C116.914 51.4074 116.823 51.7334 116.642 51.9478C116.461 52.1621 116.251 52.2693 116.013 52.2693ZM119.597 52.86V49.782H120.392V49.0732H119.597V48.7253C119.597 48.5416 119.629 48.4081 119.693 48.325C119.757 48.2419 119.857 48.2003 119.994 48.2003H120.478V47.498H119.875C119.517 47.498 119.24 47.5954 119.044 47.7901C118.847 47.9848 118.749 48.2769 118.749 48.6663V49.0732H118.166V49.782H118.749V52.86H119.597ZM122.836 54.4089C123.168 54.4089 123.445 54.3301 123.668 54.1726C123.891 54.0151 124.073 53.7438 124.214 53.3588L125.798 49.0732H124.883L124.281 51.0224C124.139 51.5255 124.058 51.8165 124.035 51.8952H124.009C123.952 51.6721 123.868 51.3811 123.757 51.0224L123.101 49.0732H122.18L123.611 52.7681L123.486 53.1422C123.41 53.3522 123.31 53.4999 123.184 53.5852C123.058 53.6705 122.896 53.7132 122.697 53.7132H122.578V54.4089H122.836ZM127.851 52.9781C128.116 52.9781 128.354 52.9344 128.564 52.8469C128.773 52.7594 128.942 52.6467 129.07 52.5089C129.199 52.3711 129.305 52.2114 129.388 52.0298C129.472 51.8482 129.531 51.6699 129.564 51.4949C129.597 51.3199 129.614 51.1449 129.614 50.9699C129.614 50.4054 129.464 49.9285 129.163 49.5391C128.863 49.1497 128.426 48.955 127.851 48.955C127.273 48.955 126.833 49.1497 126.533 49.5391C126.233 49.9285 126.083 50.4054 126.083 50.9699C126.083 51.1536 126.099 51.3341 126.132 51.5113C126.165 51.6885 126.225 51.8679 126.311 52.0495C126.397 52.2311 126.505 52.3886 126.636 52.522C126.766 52.6555 126.936 52.7648 127.146 52.8502C127.356 52.9355 127.591 52.9781 127.851 52.9781ZM127.851 52.2693C127.609 52.2693 127.397 52.1621 127.215 51.9478C127.034 51.7334 126.944 51.4074 126.944 50.9699C126.944 50.5236 127.035 50.1943 127.219 49.9821C127.402 49.7699 127.613 49.6638 127.851 49.6638C128.09 49.6638 128.3 49.7699 128.481 49.9821C128.662 50.1943 128.752 50.5236 128.752 50.9699C128.752 51.4074 128.662 51.7334 128.481 51.9478C128.3 52.1621 128.09 52.2693 127.851 52.2693ZM131.542 52.9781C131.802 52.9781 132.02 52.9191 132.194 52.8009C132.369 52.6828 132.487 52.5559 132.549 52.4203H132.555V52.86H133.363V49.0732H132.529V51.193C132.529 51.4862 132.458 51.7388 132.317 51.951C132.175 52.1632 131.979 52.2693 131.727 52.2693C131.307 52.2693 131.098 51.974 131.098 51.3833V49.0732H130.256V51.4883C130.256 51.7727 130.296 52.0178 130.376 52.2234C130.455 52.429 130.561 52.5833 130.694 52.6861C130.826 52.7889 130.962 52.8633 131.101 52.9092C131.24 52.9552 131.387 52.9781 131.542 52.9781ZM135.119 52.86V50.9305C135.119 50.563 135.195 50.2687 135.348 50.0478C135.5 49.8268 135.72 49.7163 136.007 49.7163C136.17 49.7163 136.336 49.7426 136.504 49.7951V49.0403C136.376 48.9835 136.21 48.955 136.007 48.955C135.79 48.955 135.604 49.0075 135.447 49.1125C135.29 49.2175 135.17 49.3401 135.086 49.4801V49.0732H134.278V52.86H135.119ZM139.505 52.86V47.498H138.67V52.86H139.505ZM141.433 48.5087V47.5965H140.532V48.5087H141.433ZM141.4 52.86V49.0732H140.571V52.86H141.4ZM143.526 52.86V49.782H144.321V49.0732H143.526V48.7253C143.526 48.5416 143.558 48.4081 143.622 48.325C143.686 48.2419 143.787 48.2003 143.924 48.2003H144.407V47.498H143.804C143.447 47.498 143.169 47.5954 142.973 47.7901C142.776 47.9848 142.678 48.2769 142.678 48.6663V49.0732H142.095V49.782H142.678V52.86H143.526ZM146.461 52.9781C146.876 52.9781 147.223 52.8841 147.501 52.6959C147.779 52.5078 147.98 52.2737 148.104 51.9937L147.402 51.7574C147.318 51.9193 147.195 52.0517 147.034 52.1545C146.873 52.2573 146.686 52.3087 146.474 52.3087C146.17 52.3087 145.93 52.2048 145.755 51.997C145.581 51.7891 145.494 51.5408 145.494 51.2521H148.144C148.157 51.1427 148.164 51.0311 148.164 50.9174C148.164 50.3354 148 49.8629 147.673 49.4998C147.347 49.1366 146.931 48.955 146.428 48.955C145.916 48.955 145.49 49.1355 145.153 49.4965C144.815 49.8574 144.646 50.342 144.646 50.9502C144.646 51.5671 144.815 52.0593 145.153 52.4268C145.49 52.7944 145.927 52.9781 146.461 52.9781ZM147.309 50.668H145.507C145.511 50.3879 145.596 50.144 145.762 49.9362C145.928 49.7284 146.15 49.6245 146.428 49.6245C146.706 49.6245 146.923 49.7262 147.077 49.9296C147.232 50.1331 147.309 50.3792 147.309 50.668Z" fill="white"/>
<path d="M27.549 26.4355L27.549 52.5735C27.5488 52.8236 27.4188 53.055 27.2071 53.1819C26.9953 53.3088 26.7335 53.3122 26.5187 53.1909L20.2743 49.6587C20.0539 49.5343 19.9171 49.2979 19.917 49.0413L19.917 22.9033C19.9171 22.6532 20.0472 22.4217 20.2589 22.2949C20.4706 22.168 20.7325 22.1646 20.9473 22.2859L27.1917 25.8181C27.4121 25.9425 27.5488 26.1789 27.549 26.4355Z" fill="white"/>
<path d="M37.7248 26.4367V52.5747C37.7246 52.8248 37.5946 53.0563 37.3829 53.1831C37.1711 53.31 36.9093 53.3134 36.6944 53.1921L30.4501 49.66C30.2297 49.5355 30.0929 49.2991 30.0928 49.0425L30.0928 22.9045C30.0929 22.6544 30.2229 22.423 30.4347 22.2961C30.6464 22.1692 30.9082 22.1658 31.1231 22.2871L37.3674 25.8193C37.5878 25.9437 37.7246 26.1801 37.7248 26.4367Z" fill="white"/>
<path d="M47.8996 26.4367V52.5747C47.8994 52.8248 47.7694 53.0563 47.5577 53.1831C47.3459 53.31 47.0841 53.3134 46.8692 53.1921L40.6249 49.66C40.4045 49.5355 40.2677 49.2991 40.2676 49.0425V22.9045C40.2677 22.6544 40.3977 22.423 40.6095 22.2961C40.8212 22.1692 41.083 22.1658 41.2979 22.2871L47.5422 25.8193C47.7626 25.9437 47.8994 26.1801 47.8996 26.4367Z" fill="white"/>
</svg>
