<svg width="170" height="72" viewBox="0 0 170 72" fill="none" xmlns="http://www.w3.org/2000/svg">
<path d="M66.4289 42.599V34.4001H68.3416C69.7772 34.4001 71.0002 33.8916 72.0107 32.8747C73.0212 31.8578 73.5264 30.6343 73.5264 29.2042V26.0462C73.5264 24.5606 73.0813 23.3371 72.1911 22.3758C71.2368 21.3668 69.9536 20.8623 68.3416 20.8623H63.1328V42.599H66.4289ZM68.4258 31.1586H66.4289V24.211H68.4258C69.0033 24.211 69.4624 24.3838 69.8032 24.7294C70.1441 25.075 70.3145 25.5338 70.3145 26.1058V29.2757C70.3145 29.7921 70.132 30.2351 69.7671 30.6045C69.4022 30.9739 68.9551 31.1586 68.4258 31.1586ZM78.7808 42.599L79.5868 37.6057H83.0393L83.8212 42.599H87.2857L83.6167 20.8623H79.0575L75.3403 42.599H78.7808ZM82.5461 34.412H80.092L81.319 25.8436L82.5461 34.412ZM94.6694 42.599V34.4001H96.5821C98.0176 34.4001 99.2406 33.8916 100.251 32.8747C101.262 31.8578 101.767 30.6343 101.767 29.2042V26.0462C101.767 24.5606 101.322 23.3371 100.432 22.3758C99.4772 21.3668 98.1941 20.8623 96.5821 20.8623H91.3733V42.599H94.6694ZM96.6663 31.1586H94.6694V24.211H96.6663C97.2437 24.211 97.7029 24.3838 98.0437 24.7294C98.3845 25.075 98.5549 25.5338 98.5549 26.1058V29.2757C98.5549 29.7921 98.3725 30.2351 98.0076 30.6045C97.6427 30.9739 97.1956 31.1586 96.6663 31.1586ZM115.117 42.599V39.3218H109.006V33.3752H113.469V30.0861H109.006V24.1395H115.117V20.8623H105.71V42.599H115.117ZM121.996 42.599V34.4001H123.896C124.001 34.4001 124.101 34.3961 124.197 34.3881L126.218 42.599H129.791L127.337 33.1011C128.516 32.0445 129.105 30.7455 129.105 29.2042V26.0462C129.105 24.4811 128.724 23.2576 127.962 22.3758C127.104 21.3668 125.753 20.8623 123.908 20.8623H118.699V42.599H121.996ZM123.993 31.1586H121.996V24.211H123.993C125.252 24.211 125.881 24.8426 125.881 26.1058V29.2757C125.881 29.7921 125.699 30.2351 125.334 30.6045C124.969 30.9739 124.522 31.1586 123.993 31.1586ZM143.382 42.599V39.3456H137.295L143.382 24.1395V20.8623H133.734V24.1395H139.833L133.734 39.3456V42.599H143.382Z" fill="white"/>
<path d="M65.5755 53.7314V53.2536H63.187V48.4751H62.6035V53.7314H65.5755ZM67.7772 53.8547C68.161 53.8547 68.493 53.7789 68.773 53.6274C69.0531 53.4758 69.2787 53.2664 69.4499 52.9992L69.0298 52.7218C68.9053 52.9273 68.7406 53.0879 68.5358 53.2035C68.3309 53.3191 68.0729 53.3769 67.7617 53.3769C67.3778 53.3769 67.0744 53.2458 66.8514 52.9838C66.6284 52.7218 66.5065 52.4058 66.4857 52.0358H69.481C69.4862 51.9844 69.4888 51.9099 69.4888 51.8123C69.4888 51.4732 69.4136 51.1662 69.2632 50.8913C69.1128 50.6164 68.9053 50.3993 68.6408 50.24C68.3763 50.0808 68.0806 50.0011 67.7539 50.0011C67.4064 50.0011 67.0965 50.0833 66.8242 50.2478C66.5519 50.4122 66.3392 50.6408 66.1862 50.9337C66.0332 51.2266 65.9567 51.558 65.9567 51.9279C65.9567 52.2979 66.0345 52.6293 66.1901 52.9221C66.3457 53.215 66.5609 53.4437 66.8358 53.6081C67.1107 53.7725 67.4245 53.8547 67.7772 53.8547ZM68.9598 51.6042H66.5169C66.5739 51.2805 66.7101 51.0121 66.9253 50.7988C67.1405 50.5856 67.4167 50.479 67.7539 50.479C68.1014 50.479 68.3763 50.5727 68.5786 50.7603C68.7808 50.9478 68.9079 51.2291 68.9598 51.6042ZM71.8539 53.8547C72.1133 53.8547 72.3518 53.7969 72.5697 53.6813C72.7875 53.5657 72.9717 53.4051 73.1221 53.1996V53.7314H73.6511V50.1244H73.1221V50.6639C72.9717 50.4533 72.7862 50.2901 72.5658 50.1745C72.3454 50.0589 72.1029 50.0011 71.8384 50.0011C71.4909 50.0011 71.181 50.0833 70.9087 50.2478C70.6364 50.4122 70.4237 50.6395 70.2707 50.9298C70.1177 51.2201 70.0412 51.5503 70.0412 51.9202C70.0412 52.2953 70.119 52.6293 70.2746 52.9221C70.4302 53.215 70.6454 53.4437 70.9203 53.6081C71.1952 53.7725 71.5064 53.8547 71.8539 53.8547ZM71.8384 53.3769C71.5946 53.3769 71.3768 53.3152 71.1848 53.1919C70.9929 53.0686 70.8425 52.8965 70.7336 52.6755C70.6247 52.4546 70.5702 52.2028 70.5702 51.9202C70.5702 51.6428 70.6247 51.3948 70.7336 51.1765C70.8425 50.9581 70.9929 50.7873 71.1848 50.6639C71.3768 50.5406 71.5946 50.479 71.8384 50.479C72.0873 50.479 72.3091 50.5406 72.5036 50.6639C72.6981 50.7873 72.8498 50.9594 72.9587 51.1803C73.0676 51.4013 73.1221 51.6505 73.1221 51.9279C73.1221 52.2054 73.0676 52.4546 72.9587 52.6755C72.8498 52.8965 72.6981 53.0686 72.5036 53.1919C72.3091 53.3152 72.0873 53.3769 71.8384 53.3769ZM76.2185 53.8547C76.4778 53.8547 76.7164 53.7969 76.9343 53.6813C77.1521 53.5657 77.3362 53.4051 77.4866 53.1996V53.7314H78.0157V48.136H77.4866V50.6639C77.3362 50.4533 77.1508 50.2901 76.9304 50.1745C76.7099 50.0589 76.4675 50.0011 76.2029 50.0011C75.8554 50.0011 75.5455 50.0833 75.2732 50.2478C75.0009 50.4122 74.7883 50.6395 74.6353 50.9298C74.4823 51.2201 74.4058 51.5503 74.4058 51.9202C74.4058 52.2953 74.4836 52.6293 74.6392 52.9221C74.7948 53.215 75.01 53.4437 75.2849 53.6081C75.5598 53.7725 75.871 53.8547 76.2185 53.8547ZM76.2029 53.3769C75.9592 53.3769 75.7413 53.3152 75.5494 53.1919C75.3575 53.0686 75.2071 52.8965 75.0982 52.6755C74.9893 52.4546 74.9348 52.2028 74.9348 51.9202C74.9348 51.6428 74.9893 51.3948 75.0982 51.1765C75.2071 50.9581 75.3575 50.7873 75.5494 50.6639C75.7413 50.5406 75.9592 50.479 76.2029 50.479C76.4519 50.479 76.6736 50.5406 76.8681 50.6639C77.0626 50.7873 77.2143 50.9594 77.3233 51.1803C77.4322 51.4013 77.4866 51.6505 77.4866 51.9279C77.4866 52.2054 77.4322 52.4546 77.3233 52.6755C77.2143 52.8965 77.0626 53.0686 76.8681 53.1919C76.6736 53.3152 76.4519 53.3769 76.2029 53.3769ZM79.5483 49.4231C79.6624 49.4231 79.761 49.382 79.844 49.2998C79.927 49.2176 79.9685 49.1199 79.9685 49.0069C79.9685 48.8887 79.927 48.7898 79.844 48.7102C79.761 48.6305 79.6624 48.5907 79.5483 48.5907C79.429 48.5907 79.3292 48.6305 79.2488 48.7102C79.1684 48.7898 79.1282 48.8862 79.1282 48.9992C79.1282 49.1174 79.1684 49.2176 79.2488 49.2998C79.3292 49.382 79.429 49.4231 79.5483 49.4231ZM79.8129 53.7314V50.1244H79.2838V53.7314H79.8129ZM81.61 53.7314V51.9279C81.61 51.486 81.7034 51.1341 81.8901 50.872C82.0768 50.61 82.3569 50.479 82.7304 50.479C83.3735 50.479 83.6951 50.8361 83.6951 51.5503V53.7314H84.2241V51.3191C84.2241 51.0467 84.1606 50.8104 84.0335 50.61C83.9064 50.4096 83.7353 50.258 83.52 50.1553C83.3048 50.0525 83.0701 50.0011 82.8159 50.0011C82.5462 50.0011 82.3089 50.0641 82.1041 50.1899C81.8992 50.3158 81.7345 50.4944 81.61 50.7256V50.1244H81.081V53.7314H81.61ZM87.0405 55.2728C87.3517 55.2728 87.6292 55.2009 87.8729 55.057C88.1167 54.9132 88.306 54.7141 88.4409 54.4597C88.5757 54.2054 88.6431 53.9164 88.6431 53.5927V50.1244H88.1141V50.6639C87.9637 50.4533 87.7783 50.2901 87.5578 50.1745C87.3374 50.0589 87.0949 50.0011 86.8304 50.0011C86.4829 50.0011 86.173 50.0833 85.9007 50.2478C85.6284 50.4122 85.4157 50.6395 85.2627 50.9298C85.1097 51.2201 85.0332 51.5503 85.0332 51.9202C85.0332 52.2953 85.111 52.6293 85.2666 52.9221C85.4222 53.215 85.6375 53.4437 85.9124 53.6081C86.1873 53.7725 86.4985 53.8547 86.846 53.8547C87.1053 53.8547 87.3439 53.7969 87.5617 53.6813C87.7796 53.5657 87.9637 53.4051 88.1141 53.1996V53.5927C88.1141 53.9421 88.0143 54.2298 87.8146 54.4559C87.6149 54.682 87.3569 54.795 87.0405 54.795H85.5312V55.2728H87.0405ZM86.8304 53.3769C86.5866 53.3769 86.3688 53.3152 86.1769 53.1919C85.985 53.0686 85.8346 52.8965 85.7257 52.6755C85.6167 52.4546 85.5623 52.2028 85.5623 51.9202C85.5623 51.6428 85.6167 51.3948 85.7257 51.1765C85.8346 50.9581 85.985 50.7873 86.1769 50.6639C86.3688 50.5406 86.5866 50.479 86.8304 50.479C87.0794 50.479 87.3011 50.5406 87.4956 50.6639C87.6901 50.7873 87.8418 50.9594 87.9507 51.1803C88.0596 51.4013 88.1141 51.6505 88.1141 51.9279C88.1141 52.2054 88.0596 52.4546 87.9507 52.6755C87.8418 52.8965 87.6901 53.0686 87.4956 53.1919C87.3011 53.3152 87.0794 53.3769 86.8304 53.3769ZM92.0741 53.7314V51.7198H93.2022C93.695 51.7198 94.0904 51.576 94.3887 51.2882C94.6869 51.0005 94.836 50.6049 94.836 50.1013C94.836 49.5926 94.6934 49.1944 94.4081 48.9067C94.1229 48.619 93.7416 48.4751 93.2645 48.4751H91.4906V53.7314H92.0741ZM93.1867 51.242H92.0741V48.9529H93.1867C93.5342 48.9529 93.7987 49.0506 93.9802 49.2458C94.1618 49.4411 94.2525 49.7262 94.2525 50.1013C94.2525 50.4764 94.1618 50.7603 93.9802 50.953C93.7987 51.1456 93.5342 51.242 93.1867 51.242ZM97.1078 53.8547C97.3671 53.8547 97.6057 53.7969 97.8235 53.6813C98.0414 53.5657 98.2255 53.4051 98.3759 53.1996V53.7314H98.905V50.1244H98.3759V50.6639C98.2255 50.4533 98.0401 50.2901 97.8196 50.1745C97.5992 50.0589 97.3567 50.0011 97.0922 50.0011C96.7447 50.0011 96.4348 50.0833 96.1625 50.2478C95.8902 50.4122 95.6776 50.6395 95.5246 50.9298C95.3715 51.2201 95.295 51.5503 95.295 51.9202C95.295 52.2953 95.3728 52.6293 95.5284 52.9221C95.684 53.215 95.8993 53.4437 96.1742 53.6081C96.4491 53.7725 96.7603 53.8547 97.1078 53.8547ZM97.0922 53.3769C96.8484 53.3769 96.6306 53.3152 96.4387 53.1919C96.2468 53.0686 96.0964 52.8965 95.9875 52.6755C95.8785 52.4546 95.8241 52.2028 95.8241 51.9202C95.8241 51.6428 95.8785 51.3948 95.9875 51.1765C96.0964 50.9581 96.2468 50.7873 96.4387 50.6639C96.6306 50.5406 96.8484 50.479 97.0922 50.479C97.3412 50.479 97.5629 50.5406 97.7574 50.6639C97.9519 50.7873 98.1036 50.9594 98.2125 51.1803C98.3215 51.4013 98.3759 51.6505 98.3759 51.9279C98.3759 52.2054 98.3215 52.4546 98.2125 52.6755C98.1036 52.8965 97.9519 53.0686 97.7574 53.1919C97.5629 53.3152 97.3412 53.3769 97.0922 53.3769ZM100.422 55.2728V53.1919C100.572 53.4026 100.758 53.5657 100.978 53.6813C101.199 53.7969 101.441 53.8547 101.706 53.8547C102.053 53.8547 102.363 53.7725 102.635 53.6081C102.908 53.4437 103.12 53.2163 103.273 52.926C103.426 52.6357 103.503 52.3056 103.503 51.9356C103.503 51.5605 103.425 51.2266 103.27 50.9337C103.114 50.6408 102.899 50.4122 102.624 50.2478C102.349 50.0833 102.038 50.0011 101.69 50.0011C101.431 50.0011 101.192 50.0589 100.974 50.1745C100.757 50.2901 100.572 50.4507 100.422 50.6562V50.1244H99.893V55.2728H100.422ZM101.706 53.3769C101.457 53.3769 101.235 53.3152 101.041 53.1919C100.846 53.0686 100.694 52.8965 100.585 52.6755C100.477 52.4546 100.422 52.2054 100.422 51.9279C100.422 51.6505 100.477 51.4013 100.585 51.1803C100.694 50.9594 100.846 50.7873 101.041 50.6639C101.235 50.5406 101.457 50.479 101.706 50.479C101.95 50.479 102.167 50.5406 102.359 50.6639C102.551 50.7873 102.702 50.9594 102.811 51.1803C102.919 51.4013 102.974 51.653 102.974 51.9356C102.974 52.2131 102.919 52.461 102.811 52.6794C102.702 52.8977 102.551 53.0686 102.359 53.1919C102.167 53.3152 101.95 53.3769 101.706 53.3769ZM105.845 53.8547C106.229 53.8547 106.56 53.7789 106.841 53.6274C107.121 53.4758 107.346 53.2664 107.517 52.9992L107.097 52.7218C106.973 52.9273 106.808 53.0879 106.603 53.2035C106.398 53.3191 106.14 53.3769 105.829 53.3769C105.445 53.3769 105.142 53.2458 104.919 52.9838C104.696 52.7218 104.574 52.4058 104.553 52.0358H107.549C107.554 51.9844 107.556 51.9099 107.556 51.8123C107.556 51.4732 107.481 51.1662 107.331 50.8913C107.18 50.6164 106.973 50.3993 106.708 50.24C106.444 50.0808 106.148 50.0011 105.821 50.0011C105.474 50.0011 105.164 50.0833 104.892 50.2478C104.619 50.4122 104.407 50.6408 104.254 50.9337C104.101 51.2266 104.024 51.558 104.024 51.9279C104.024 52.2979 104.102 52.6293 104.258 52.9221C104.413 53.215 104.628 53.4437 104.903 53.6081C105.178 53.7725 105.492 53.8547 105.845 53.8547ZM107.027 51.6042H104.584C104.641 51.2805 104.778 51.0121 104.993 50.7988C105.208 50.5856 105.484 50.479 105.821 50.479C106.169 50.479 106.444 50.5727 106.646 50.7603C106.848 50.9478 106.975 51.2291 107.027 51.6042ZM108.863 53.7314V52.005C108.863 51.6864 108.922 51.4103 109.038 51.1765C109.155 50.9427 109.309 50.7641 109.501 50.6408C109.693 50.5175 109.901 50.4558 110.124 50.4558C110.253 50.4558 110.373 50.4815 110.482 50.5329V50.0551C110.367 50.0191 110.248 50.0011 110.124 50.0011C109.854 50.0011 109.612 50.0756 109.396 50.2246C109.181 50.3736 109.003 50.5817 108.863 50.8489V50.1244H108.334V53.7314H108.863ZM114.807 53.8547C115.233 53.8547 115.6 53.7494 115.908 53.5387C116.217 53.3281 116.464 53.0223 116.651 52.6216L116.161 52.3287C115.985 52.6729 115.794 52.926 115.589 53.0879C115.384 53.2497 115.098 53.3306 114.729 53.3306C114.434 53.3306 114.174 53.242 113.951 53.0647C113.728 52.8875 113.557 52.6318 113.438 52.2979C113.319 51.9639 113.259 51.5683 113.259 51.111C113.259 50.4122 113.39 49.8662 113.652 49.4732C113.914 49.0801 114.276 48.8836 114.737 48.8836C115.059 48.8836 115.331 48.9491 115.554 49.0801C115.777 49.2111 115.972 49.4282 116.138 49.7314L116.604 49.4616C116.428 49.1122 116.183 48.8412 115.869 48.6485C115.555 48.4558 115.178 48.3595 114.737 48.3595C114.307 48.3595 113.935 48.4687 113.621 48.6871C113.307 48.9054 113.066 49.2214 112.897 49.635C112.729 50.0487 112.644 50.5432 112.644 51.1187C112.644 51.689 112.731 52.1784 112.905 52.5869C113.079 52.9954 113.328 53.3088 113.652 53.5272C113.976 53.7455 114.361 53.8547 114.807 53.8547ZM119.001 53.8547C119.348 53.8547 119.658 53.7725 119.93 53.6081C120.203 53.4437 120.415 53.215 120.568 52.9221C120.721 52.6293 120.798 52.2979 120.798 51.9279C120.798 51.558 120.72 51.2266 120.564 50.9337C120.409 50.6408 120.194 50.4122 119.919 50.2478C119.644 50.0833 119.333 50.0011 118.985 50.0011C118.638 50.0011 118.328 50.0833 118.055 50.2478C117.783 50.4122 117.57 50.6395 117.417 50.9298C117.264 51.2201 117.188 51.5503 117.188 51.9202C117.188 52.2902 117.266 52.6229 117.421 52.9183C117.577 53.2137 117.792 53.4437 118.067 53.6081C118.342 53.7725 118.653 53.8547 119.001 53.8547ZM118.985 53.3769C118.741 53.3769 118.524 53.3152 118.332 53.1919C118.14 53.0686 117.989 52.8965 117.88 52.6755C117.771 52.4546 117.717 52.2028 117.717 51.9202C117.717 51.6428 117.771 51.3948 117.88 51.1765C117.989 50.9581 118.14 50.7873 118.332 50.6639C118.524 50.5406 118.741 50.479 118.985 50.479C119.234 50.479 119.456 50.5406 119.65 50.6639C119.845 50.7873 119.997 50.9594 120.105 51.1803C120.214 51.4013 120.269 51.6505 120.269 51.9279C120.269 52.2054 120.214 52.4546 120.105 52.6755C119.997 52.8965 119.845 53.0686 119.65 53.1919C119.456 53.3152 119.234 53.3769 118.985 53.3769ZM122.074 53.7314V51.9279C122.074 51.486 122.153 51.1341 122.311 50.872C122.469 50.61 122.707 50.479 123.023 50.479C123.256 50.479 123.446 50.5625 123.591 50.7295C123.736 50.8964 123.809 51.17 123.809 51.5503V53.7314H124.338V51.6967C124.364 51.3216 124.456 51.0249 124.614 50.8065C124.772 50.5882 124.994 50.479 125.279 50.479C125.513 50.479 125.702 50.5625 125.847 50.7295C125.992 50.8964 126.065 51.17 126.065 51.5503V53.7314H126.594V51.3191C126.594 50.908 126.482 50.5856 126.259 50.3518C126.036 50.118 125.756 50.0011 125.419 50.0011C125.16 50.0011 124.932 50.0731 124.735 50.2169C124.537 50.3608 124.382 50.5612 124.268 50.8181C124.19 50.556 124.052 50.3544 123.855 50.2131C123.658 50.0718 123.427 50.0011 123.163 50.0011C122.924 50.0011 122.713 50.0602 122.529 50.1784C122.345 50.2966 122.193 50.4661 122.074 50.6871V50.1244H121.545V53.7314H122.074ZM128.072 55.2728V53.1919C128.223 53.4026 128.408 53.5657 128.628 53.6813C128.849 53.7969 129.091 53.8547 129.356 53.8547C129.703 53.8547 130.013 53.7725 130.286 53.6081C130.558 53.4437 130.771 53.2163 130.924 52.926C131.077 52.6357 131.153 52.3056 131.153 51.9356C131.153 51.5605 131.075 51.2266 130.92 50.9337C130.764 50.6408 130.549 50.4122 130.274 50.2478C129.999 50.0833 129.688 50.0011 129.34 50.0011C129.081 50.0011 128.842 50.0589 128.625 50.1745C128.407 50.2901 128.223 50.4507 128.072 50.6562V50.1244H127.543V55.2728H128.072ZM129.356 53.3769C129.107 53.3769 128.885 53.3152 128.691 53.1919C128.496 53.0686 128.344 52.8965 128.236 52.6755C128.127 52.4546 128.072 52.2054 128.072 51.9279C128.072 51.6505 128.127 51.4013 128.236 51.1803C128.344 50.9594 128.496 50.7873 128.691 50.6639C128.885 50.5406 129.107 50.479 129.356 50.479C129.6 50.479 129.817 50.5406 130.009 50.6639C130.201 50.7873 130.352 50.9594 130.461 51.1803C130.57 51.4013 130.624 51.653 130.624 51.9356C130.624 52.2131 130.57 52.461 130.461 52.6794C130.352 52.8977 130.201 53.0686 130.009 53.1919C129.817 53.3152 129.6 53.3769 129.356 53.3769ZM133.487 53.8547C133.746 53.8547 133.985 53.7969 134.203 53.6813C134.421 53.5657 134.605 53.4051 134.755 53.1996V53.7314H135.284V50.1244H134.755V50.6639C134.605 50.4533 134.419 50.2901 134.199 50.1745C133.978 50.0589 133.736 50.0011 133.471 50.0011C133.124 50.0011 132.814 50.0833 132.542 50.2478C132.269 50.4122 132.057 50.6395 131.904 50.9298C131.751 51.2201 131.674 51.5503 131.674 51.9202C131.674 52.2953 131.752 52.6293 131.908 52.9221C132.063 53.215 132.279 53.4437 132.553 53.6081C132.828 53.7725 133.14 53.8547 133.487 53.8547ZM133.471 53.3769C133.228 53.3769 133.01 53.3152 132.818 53.1919C132.626 53.0686 132.476 52.8965 132.367 52.6755C132.258 52.4546 132.203 52.2028 132.203 51.9202C132.203 51.6428 132.258 51.3948 132.367 51.1765C132.476 50.9581 132.626 50.7873 132.818 50.6639C133.01 50.5406 133.228 50.479 133.471 50.479C133.72 50.479 133.942 50.5406 134.137 50.6639C134.331 50.7873 134.483 50.9594 134.592 51.1803C134.701 51.4013 134.755 51.6505 134.755 51.9279C134.755 52.2054 134.701 52.4546 134.592 52.6755C134.483 52.8965 134.331 53.0686 134.137 53.1919C133.942 53.3152 133.72 53.3769 133.471 53.3769ZM136.794 53.7314V51.9279C136.794 51.486 136.887 51.1341 137.074 50.872C137.26 50.61 137.54 50.479 137.914 50.479C138.557 50.479 138.879 50.8361 138.879 51.5503V53.7314H139.408V51.3191C139.408 51.0467 139.344 50.8104 139.217 50.61C139.09 50.4096 138.919 50.258 138.704 50.1553C138.488 50.0525 138.254 50.0011 137.999 50.0011C137.73 50.0011 137.492 50.0641 137.288 50.1899C137.083 50.3158 136.918 50.4944 136.794 50.7256V50.1244H136.264V53.7314H136.794ZM141.477 55.2728L143.445 50.1244H142.947L141.788 53.1148L140.582 50.1244H140.03L141.524 53.8008L140.948 55.2728H141.477Z" fill="white"/>
<path fill-rule="evenodd" clip-rule="evenodd" d="M44.2691 25.8994V50.9043C42.2719 52.1227 39.8941 53.1265 37.2668 53.7853C35.0975 54.33 32.9657 54.5873 30.9731 54.5873C29.0519 54.5873 27.2601 54.3483 25.6836 53.8954V28.8907C25.6844 28.8907 25.6859 28.8914 25.6868 28.8914C26.2738 29.0597 26.8905 29.1986 27.5332 29.3066C28.1279 29.4068 28.7445 29.4804 29.3796 29.5257C29.8991 29.5641 30.4308 29.5833 30.9731 29.5833C32.9666 29.5833 35.0975 29.3252 37.2668 28.7811C39.8941 28.1215 42.2719 27.1185 44.2691 25.8994ZM40.5758 31.6398C40.4197 31.6924 40.2628 31.744 40.1051 31.7944L40.5758 31.7941L40.5758 31.6398Z" fill="white"/>
<path fill-rule="evenodd" clip-rule="evenodd" d="M51.1851 20.3335V47.9508C48.9556 49.2965 46.3014 50.4052 43.3686 51.1328C40.9471 51.7344 38.5674 52.0186 36.3431 52.0186C34.1985 52.0186 32.1983 51.7547 30.4385 51.2544V23.6373C30.4394 23.6373 30.4411 23.638 30.442 23.638C31.0973 23.8239 31.7857 23.9774 32.5032 24.0967C33.167 24.2073 33.8553 24.2886 34.5643 24.3386C35.1441 24.381 35.7377 24.4022 36.3431 24.4022C38.5683 24.4022 40.9471 24.1171 43.3686 23.5162C46.3014 22.7877 48.9556 21.68 51.1851 20.3335Z" fill="white"/>
</svg>
