<svg width="170" height="72" viewBox="0 0 170 72" fill="none" xmlns="http://www.w3.org/2000/svg">
<path fill-rule="evenodd" clip-rule="evenodd" d="M22.9736 37.0863V42.8162L39.2826 29.3378V23.6079L22.9736 37.0863Z" fill="white"/>
<path fill-rule="evenodd" clip-rule="evenodd" d="M22.9736 48.3213V54.0511L39.2826 40.5727V34.8428L22.9736 48.3213Z" fill="white"/>
<path fill-rule="evenodd" clip-rule="evenodd" d="M30.2227 37.0863V42.8162L46.5316 29.3378V23.6079L30.2227 37.0863Z" fill="white"/>
<path fill-rule="evenodd" clip-rule="evenodd" d="M30.2227 48.3213V54.0511L46.5316 40.5727V34.8428L30.2227 48.3213Z" fill="white"/>
<path d="M65.5224 43.1483C66.4957 43.1483 67.4867 43.0554 68.4954 42.8696C69.5041 42.6838 70.5438 42.4051 71.6144 42.0335V35.6893L72.0391 35.3177L73.6185 35.185V33.8445H65.6817V35.185L67.6991 35.3177L68.1238 35.6893V41.2371C67.7876 41.2637 67.4911 41.2836 67.2345 41.2968C66.9779 41.3101 66.7789 41.3168 66.6373 41.3168C64.5226 41.3168 62.8702 40.6332 61.6801 39.2662C60.49 37.8991 59.895 36.0034 59.895 33.579C59.895 31.2166 60.4768 29.3607 61.6403 28.0113C62.8038 26.662 64.4031 25.9873 66.4382 25.9873C66.8452 25.9873 67.2345 26.0227 67.6062 26.0935C67.9778 26.1643 68.3406 26.2749 68.6945 26.4253L69.1059 26.9164L69.6235 29.7964H71.6144V25.1777C70.6057 24.8769 69.6213 24.6512 68.6613 24.5008C67.7013 24.3504 66.77 24.2752 65.8675 24.2752C62.8768 24.2752 60.4768 25.1224 58.6673 26.8168C56.8579 28.5112 55.9531 30.7653 55.9531 33.579C55.9531 36.4193 56.8379 38.7242 58.6076 40.4939C60.3772 42.2635 62.6822 43.1483 65.5224 43.1483ZM81.0872 43.0289C83.2108 43.0289 84.9141 42.4095 86.1971 41.1708C87.48 39.932 88.1215 38.2951 88.1215 36.26C88.1215 34.1099 87.5066 32.4044 86.2767 31.1436C85.0468 29.8827 83.3878 29.2523 81.2996 29.2523C79.176 29.2523 77.4728 29.8871 76.1898 31.1568C74.9068 32.4266 74.2653 34.1099 74.2653 36.2069C74.2653 38.2509 74.8913 39.8988 76.1433 41.1508C77.3953 42.4029 79.0433 43.0289 81.0872 43.0289ZM81.1669 41.5955C80.1847 41.5955 79.4171 41.1132 78.8641 40.1488C78.3111 39.1843 78.0346 37.835 78.0346 36.1008C78.0346 34.3931 78.3133 33.0658 78.8708 32.1191C79.4282 31.1723 80.2024 30.6989 81.1934 30.6989C82.1933 30.6989 82.9741 31.1812 83.536 32.1456C84.0978 33.1101 84.3788 34.455 84.3788 36.1804C84.3788 37.9146 84.1 39.2507 83.5426 40.1886C82.9852 41.1265 82.1933 41.5955 81.1669 41.5955ZM93.9976 42.8165C95.0682 42.8165 95.9818 42.7656 96.7383 42.6639C97.4948 42.5621 98.1208 42.4051 98.6163 42.1927C100.014 41.5645 101.078 40.6775 101.808 39.5316C102.538 38.3858 102.903 37.0254 102.903 35.4504C102.903 33.6365 102.403 32.1545 101.404 31.0042C100.404 29.8539 99.1207 29.2788 97.5546 29.2788C96.9617 29.2788 96.3424 29.3784 95.6964 29.5774C95.0505 29.7765 94.3559 30.084 93.6127 30.4999V22.7356H92.312L88.2773 24.0097V25.0715H90.2416V42.7634L93.2544 42.8165H93.9976ZM94.4754 41.3698C94.2453 41.3698 94.0684 41.3676 93.9445 41.3632C93.8206 41.3588 93.71 41.3521 93.6127 41.3433V31.6147C93.9666 31.5439 94.283 31.4909 94.5617 31.4555C94.8404 31.4201 95.0948 31.4024 95.3248 31.4024C96.5901 31.4024 97.5634 31.8116 98.2447 32.6301C98.926 33.4485 99.2667 34.6231 99.2667 36.1538C99.2667 37.9412 98.8796 39.2573 98.1054 40.1023C97.3311 40.9473 96.1212 41.3698 94.4754 41.3698ZM110.651 43.0289C112.774 43.0289 114.478 42.4095 115.761 41.1708C117.044 39.932 117.685 38.2951 117.685 36.26C117.685 34.1099 117.07 32.4044 115.84 31.1436C114.61 29.8827 112.951 29.2523 110.863 29.2523C108.74 29.2523 107.036 29.8871 105.753 31.1568C104.47 32.4266 103.829 34.1099 103.829 36.2069C103.829 38.2509 104.455 39.8988 105.707 41.1508C106.959 42.4029 108.607 43.0289 110.651 43.0289ZM110.73 41.5955C109.748 41.5955 108.981 41.1132 108.428 40.1488C107.875 39.1843 107.598 37.835 107.598 36.1008C107.598 34.3931 107.877 33.0658 108.434 32.1191C108.992 31.1723 109.766 30.6989 110.757 30.6989C111.757 30.6989 112.538 31.1812 113.099 32.1456C113.661 33.1101 113.942 34.455 113.942 36.1804C113.942 37.9146 113.664 39.2507 113.106 40.1886C112.549 41.1265 111.757 41.5955 110.73 41.5955ZM125.154 42.8165V41.5955L123.959 41.4893L123.588 41.0779V32.1058C124.119 31.9554 124.599 31.8404 125.028 31.7607C125.457 31.6811 125.835 31.6413 126.162 31.6413C127.012 31.6413 127.631 31.878 128.021 32.3513C128.41 32.8247 128.605 33.5658 128.605 34.5744V41.0779L128.233 41.4893L127.065 41.5955V42.8165H133.714V41.5955L132.281 41.4893L131.923 41.0779V33.7914C131.923 32.2695 131.617 31.1369 131.007 30.3937C130.396 29.6504 129.472 29.2788 128.233 29.2788C127.675 29.2788 127.021 29.4115 126.269 29.677C125.517 29.9424 124.623 30.3627 123.588 30.9378V29.3319H122.274L118.358 30.606V31.6944H120.216V41.0779L119.832 41.4893L118.438 41.5955V42.8165H125.154ZM137.785 43.0554C138.476 43.0554 139.197 42.9138 139.949 42.6307C140.701 42.3476 141.537 41.8919 142.457 41.2637L142.816 42.8165H147.66V41.622L146.213 41.4893L145.855 41.1044V34.0701C145.855 32.2916 145.474 31.044 144.714 30.3273C143.953 29.6106 142.639 29.2523 140.772 29.2523C139.108 29.2523 137.706 29.5664 136.564 30.1946C135.423 30.8228 134.852 31.5616 134.852 32.4111C134.852 32.7561 134.952 33.0083 135.151 33.1676C135.35 33.3269 135.666 33.4065 136.1 33.4065H138.608V30.8582C138.856 30.8051 139.086 30.7653 139.298 30.7388C139.511 30.7122 139.714 30.6989 139.909 30.6989C140.803 30.6989 141.457 30.9246 141.873 31.3758C142.289 31.8271 142.497 32.5438 142.497 33.5259V34.3355C138.931 35.1407 136.662 35.8884 135.688 36.5786C134.715 37.2687 134.228 38.2509 134.228 39.525C134.228 40.5602 134.56 41.4074 135.224 42.0666C135.887 42.7258 136.741 43.0554 137.785 43.0554ZM139.829 40.9717C139.21 40.9717 138.719 40.7881 138.356 40.4209C137.993 40.0537 137.812 39.556 137.812 38.9277C137.812 38.1226 138.139 37.4855 138.794 37.0165C139.449 36.5476 140.67 36.114 142.457 35.7159V40.1488C141.926 40.4231 141.442 40.6288 141.004 40.766C140.566 40.9031 140.174 40.9717 139.829 40.9717Z" fill="white"/>
<path d="M59.1647 52.6018V52.2897L58.6481 52.2525L58.5255 52.1447V50.4315L60.1086 47.8971L60.5731 47.8005V47.4957H59.0197V47.8005L59.4843 47.8822L59.5549 47.99L58.2765 50.0228L57.1096 47.9305L57.1876 47.845L57.6224 47.8005V47.4957H55.8535V47.8005L56.318 47.8748L57.8343 50.5319V52.1447L57.7116 52.2525L57.1951 52.2897V52.6018H59.1647ZM61.4789 52.6687C61.9942 52.6687 62.4185 52.491 62.7517 52.1354C63.0849 51.7799 63.2515 51.3234 63.2515 50.766C63.2515 50.2086 63.0856 49.7521 62.7536 49.3966C62.4216 49.0411 61.9967 48.8633 61.4789 48.8633C60.9586 48.8633 60.5344 49.0404 60.2061 49.3947C59.8778 49.749 59.7137 50.2061 59.7137 50.766C59.7137 51.3259 59.8791 51.783 60.2098 52.1373C60.5406 52.4916 60.9636 52.6687 61.4789 52.6687ZM61.4789 52.3417C61.1643 52.3417 60.9103 52.1986 60.7171 51.9125C60.5238 51.6263 60.4272 51.2442 60.4272 50.766C60.4272 50.2879 60.5232 49.9057 60.7152 49.6195C60.9072 49.3334 61.1618 49.1903 61.4789 49.1903C61.796 49.1903 62.0518 49.334 62.2463 49.6214C62.4408 49.9088 62.538 50.2903 62.538 50.766C62.538 51.2466 62.4414 51.6294 62.2482 51.9143C62.0549 52.1992 61.7985 52.3417 61.4789 52.3417ZM65.0381 52.6761C65.2189 52.6761 65.4103 52.6353 65.6122 52.5535C65.8141 52.4718 66.034 52.3454 66.2718 52.1745V52.6018H67.3979V52.3268L67.0411 52.2897L66.9036 52.167V48.8633H66.6137L65.7293 49.1457V49.3836H66.2718V51.9626C66.1133 52.0394 65.9615 52.0964 65.8166 52.1336C65.6717 52.1707 65.5286 52.1893 65.3874 52.1893C65.1347 52.1893 64.9489 52.1243 64.8299 51.9942C64.711 51.8642 64.6516 51.6604 64.6516 51.3829V48.8633H64.3617L63.4772 49.1457V49.3836H64.0198V51.513C64.0198 51.8895 64.1071 52.1776 64.2818 52.377C64.4565 52.5764 64.7086 52.6761 65.0381 52.6761ZM69.4185 52.6018V52.3268L68.8871 52.2897L68.757 52.167V49.993C68.918 49.8023 69.0661 49.6617 69.2011 49.5712C69.3361 49.4808 69.4643 49.4356 69.5857 49.4356C69.665 49.4356 69.7375 49.4511 69.8031 49.482C69.8688 49.513 69.9264 49.5582 69.9759 49.6177H70.2175V48.9636C70.1382 48.929 70.0614 48.9036 69.9871 48.8875C69.9128 48.8713 69.8372 48.8633 69.7604 48.8633C69.7084 48.8633 69.6693 48.8645 69.6433 48.867C69.6173 48.8695 69.5932 48.8744 69.5709 48.8819C69.4222 49.0008 69.2804 49.1216 69.1454 49.2442C69.0103 49.3668 68.8809 49.4913 68.757 49.6177V48.9042H68.4671L67.5827 49.1755V49.4133H68.1178V52.167L67.9878 52.2897L67.5827 52.3268V52.6018H69.4185ZM75.1358 52.6018V52.2897L74.623 52.2525L74.4966 52.1447V47.845H75.6598L75.7676 47.9603L75.8716 48.6663H76.2915V47.4957H71.9919V48.6663H72.4081L72.5159 47.9603L72.6236 47.845H73.7868V52.1447L73.6567 52.2525L73.1476 52.2897V52.6018H75.1358ZM77.6693 52.6018V52.3268L77.1379 52.2897L77.0078 52.167V49.993C77.1688 49.8023 77.3169 49.6617 77.4519 49.5712C77.5869 49.4808 77.7151 49.4356 77.8365 49.4356C77.9158 49.4356 77.9883 49.4511 78.0539 49.482C78.1196 49.513 78.1772 49.5582 78.2267 49.6177H78.4683V48.9636C78.389 48.929 78.3122 48.9036 78.2379 48.8875C78.1635 48.8713 78.088 48.8633 78.0112 48.8633C77.9591 48.8633 77.9201 48.8645 77.8941 48.867C77.8681 48.8695 77.8439 48.8744 77.8216 48.8819C77.673 49.0008 77.5312 49.1216 77.3961 49.2442C77.2611 49.3668 77.1317 49.4913 77.0078 49.6177V48.9042H76.7179L75.8335 49.1755V49.4133H76.3686V52.167L76.2385 52.2897L75.8335 52.3268V52.6018H77.6693ZM80.0169 52.6761C80.1978 52.6761 80.3892 52.6353 80.5911 52.5535C80.793 52.4718 81.0129 52.3454 81.2507 52.1745V52.6018H82.3768V52.3268L82.02 52.2897L81.8825 52.167V48.8633H81.5926L80.7082 49.1457V49.3836H81.2507V51.9626C81.0922 52.0394 80.9404 52.0964 80.7955 52.1336C80.6506 52.1707 80.5075 52.1893 80.3663 52.1893C80.1136 52.1893 79.9278 52.1243 79.8088 51.9942C79.6899 51.8642 79.6305 51.6604 79.6305 51.3829V48.8633H79.3406L78.4561 49.1457V49.3836H78.9987V51.513C78.9987 51.8895 79.086 52.1776 79.2607 52.377C79.4354 52.5764 79.6874 52.6761 80.0169 52.6761ZM83.643 52.6687C84.0889 52.6687 84.4376 52.5678 84.6891 52.3658C84.9406 52.1639 85.0663 51.8846 85.0663 51.5278C85.0663 51.3916 85.0415 51.2671 84.992 51.1544C84.9424 51.0416 84.8706 50.9481 84.7764 50.8738C84.6476 50.7672 84.4395 50.6483 84.1521 50.517C84.0704 50.4799 84.0097 50.4514 83.97 50.4315C83.7173 50.3101 83.5464 50.1999 83.4572 50.1008C83.368 50.0017 83.3234 49.8815 83.3234 49.7403C83.3234 49.5669 83.3791 49.4319 83.4906 49.3353C83.6021 49.2386 83.757 49.1903 83.9552 49.1903C84.0468 49.1903 84.1385 49.204 84.2302 49.2312C84.3218 49.2585 84.4184 49.2993 84.52 49.3538L84.5795 49.8927H84.9548V49.0305C84.826 48.976 84.6879 48.9345 84.5405 48.906C84.3931 48.8775 84.2339 48.8633 84.0629 48.8633C83.6343 48.8633 83.3023 48.9562 83.067 49.142C82.8316 49.3278 82.7139 49.5904 82.7139 49.9299C82.7139 50.1528 82.7827 50.3399 82.9202 50.491C83.0577 50.6421 83.3172 50.8032 83.6987 50.9741C84.0357 51.1277 84.2487 51.2547 84.3379 51.355C84.4271 51.4554 84.4717 51.5823 84.4717 51.7359C84.4717 51.9193 84.4067 52.0673 84.2766 52.18C84.1465 52.2928 83.9737 52.3491 83.7582 52.3491C83.6492 52.3491 83.5408 52.3343 83.433 52.3045C83.3253 52.2748 83.2181 52.229 83.1116 52.167L83.0187 51.5204H82.6545V52.5089C82.7957 52.5634 82.9499 52.6037 83.1171 52.6297C83.2844 52.6557 83.4597 52.6687 83.643 52.6687ZM86.5853 52.6241C86.7413 52.6241 86.9036 52.6099 87.0721 52.5814C87.2406 52.5529 87.4115 52.5114 87.5849 52.4569V52.1745C87.4908 52.1968 87.3997 52.2129 87.3118 52.2228C87.2238 52.2327 87.139 52.2376 87.0572 52.2376C86.8194 52.2376 86.6546 52.1813 86.563 52.0685C86.4713 51.9558 86.4255 51.7347 86.4255 51.4052V49.3984H87.5849V49.0417H86.4255V48.2315H86.143L85.816 48.9413L85.3143 49.1606V49.3984H85.7937V51.8549C85.7937 52.1472 85.8525 52.3485 85.9702 52.4588C86.0879 52.569 86.2929 52.6241 86.5853 52.6241ZM89.39 52.6687C89.6353 52.6687 89.8793 52.6303 90.1221 52.5535C90.3649 52.4767 90.599 52.364 90.8245 52.2153V51.7954C90.5966 51.9465 90.3854 52.058 90.1909 52.1299C89.9964 52.2017 89.8087 52.2376 89.6279 52.2376C89.2364 52.2376 88.9255 52.0983 88.6951 51.8196C88.4647 51.5408 88.3495 51.1624 88.3495 50.6843V50.5988H90.8133C90.8183 50.569 90.8214 50.5381 90.8226 50.5059C90.8239 50.4737 90.8245 50.4266 90.8245 50.3647C90.8245 49.9014 90.7012 49.5353 90.4547 49.2665C90.2082 48.9977 89.8744 48.8633 89.4532 48.8633C88.9379 48.8633 88.5161 49.0435 88.1878 49.404C87.8596 49.7645 87.6954 50.2296 87.6954 50.7995C87.6954 51.3544 87.8521 51.8047 88.1655 52.1503C88.4789 52.4959 88.8871 52.6687 89.39 52.6687ZM90.1444 50.2792H88.3866C88.4089 49.9695 88.5124 49.7137 88.6969 49.5118C88.8815 49.3099 89.1002 49.2089 89.3529 49.2089C89.6105 49.2089 89.8069 49.2907 89.9419 49.4542C90.0769 49.6177 90.1444 49.8531 90.1444 50.1603V50.2792ZM92.6407 52.6687C92.8464 52.6687 93.0433 52.6316 93.2316 52.5572C93.4199 52.4829 93.6131 52.3665 93.8113 52.2079V52.6018H94.9374V52.3268L94.5732 52.2897L94.4431 52.167V47.0015H94.157L93.2279 47.2727V47.5106H93.8113V48.9413C93.69 48.9141 93.5723 48.893 93.4583 48.8782C93.3443 48.8633 93.2366 48.8559 93.135 48.8559C92.5528 48.8559 92.0802 49.0435 91.7173 49.4189C91.3543 49.7942 91.1728 50.2841 91.1728 50.8886C91.1728 51.4089 91.3109 51.8357 91.5872 52.1689C91.8634 52.5021 92.2146 52.6687 92.6407 52.6687ZM92.9826 52.1893C92.6358 52.1893 92.3589 52.0605 92.1521 51.8028C91.9452 51.5452 91.8417 51.1971 91.8417 50.7586C91.8417 50.2879 91.9613 49.9088 92.2004 49.6214C92.4394 49.334 92.7535 49.1903 93.1424 49.1903C93.2291 49.1903 93.3276 49.2009 93.4379 49.2219C93.5481 49.243 93.6726 49.2733 93.8113 49.313V51.9255C93.6677 52.0147 93.5271 52.0809 93.3896 52.1243C93.2521 52.1676 93.1164 52.1893 92.9826 52.1893ZM99.7442 52.6947C99.9969 52.6947 100.253 52.6718 100.513 52.626C100.774 52.5801 101.029 52.5139 101.279 52.4272V51.2231H100.87L100.684 52.0704L100.565 52.1893C100.454 52.224 100.343 52.2494 100.233 52.2655C100.123 52.2816 100.013 52.2897 99.904 52.2897C99.2821 52.2897 98.7953 52.0859 98.4435 51.6783C98.0917 51.2708 97.9158 50.709 97.9158 49.993C97.9158 49.3192 98.0843 48.7865 98.4212 48.3951C98.7581 48.0036 99.214 47.8079 99.7888 47.8079C99.9325 47.8079 100.074 47.824 100.212 47.8562C100.351 47.8884 100.494 47.938 100.64 48.0048L100.74 48.1423L100.855 48.8336H101.279V47.663C101.006 47.5762 100.744 47.5112 100.493 47.4679C100.242 47.4245 100.002 47.4028 99.7739 47.4028C98.9811 47.4028 98.3425 47.645 97.8582 48.1293C97.3738 48.6137 97.1317 49.2523 97.1317 50.0451C97.1317 50.5406 97.2487 50.997 97.4829 51.4145C97.717 51.8319 98.0384 52.1571 98.4472 52.39C98.6256 52.4891 98.8238 52.5647 99.0418 52.6167C99.2598 52.6687 99.494 52.6947 99.7442 52.6947ZM103.118 52.6761C103.298 52.6761 103.49 52.6353 103.692 52.5535C103.894 52.4718 104.113 52.3454 104.351 52.1745V52.6018H105.477V52.3268L105.121 52.2897L104.983 52.167V48.8633H104.693L103.809 49.1457V49.3836H104.351V51.9626C104.193 52.0394 104.041 52.0964 103.896 52.1336C103.751 52.1707 103.608 52.1893 103.467 52.1893C103.214 52.1893 103.028 52.1243 102.909 51.9942C102.791 51.8642 102.731 51.6604 102.731 51.3829V48.8633H102.441L101.557 49.1457V49.3836H102.099V51.513C102.099 51.8895 102.187 52.1776 102.361 52.377C102.536 52.5764 102.788 52.6761 103.118 52.6761ZM107.498 52.6018V52.3268L106.967 52.2897L106.836 52.167V49.993C106.998 49.8023 107.146 49.6617 107.281 49.5712C107.416 49.4808 107.544 49.4356 107.665 49.4356C107.744 49.4356 107.817 49.4511 107.883 49.482C107.948 49.513 108.006 49.5582 108.055 49.6177H108.297V48.9636C108.218 48.929 108.141 48.9036 108.067 48.8875C107.992 48.8713 107.917 48.8633 107.84 48.8633C107.788 48.8633 107.749 48.8645 107.723 48.867C107.697 48.8695 107.673 48.8744 107.65 48.8819C107.502 49.0008 107.36 49.1216 107.225 49.2442C107.09 49.3668 106.96 49.4913 106.836 49.6177V48.9042H106.547L105.662 49.1755V49.4133H106.197V52.167L106.067 52.2897L105.662 52.3268V52.6018H107.498ZM110.15 52.6018V52.3268L109.619 52.2897L109.489 52.167V49.993C109.65 49.8023 109.798 49.6617 109.933 49.5712C110.068 49.4808 110.196 49.4356 110.318 49.4356C110.397 49.4356 110.469 49.4511 110.535 49.482C110.601 49.513 110.658 49.5582 110.708 49.6177H110.949V48.9636C110.87 48.929 110.793 48.9036 110.719 48.8875C110.645 48.8713 110.569 48.8633 110.492 48.8633C110.44 48.8633 110.401 48.8645 110.375 48.867C110.349 48.8695 110.325 48.8744 110.303 48.8819C110.154 49.0008 110.012 49.1216 109.877 49.2442C109.742 49.3668 109.613 49.4913 109.489 49.6177V48.9042H109.199L108.315 49.1755V49.4133H108.85V52.167L108.72 52.2897L108.315 52.3268V52.6018H110.15ZM111.911 48.0903C112.035 48.0903 112.139 48.0482 112.225 47.964C112.31 47.8797 112.353 47.7769 112.353 47.6555C112.353 47.5341 112.31 47.4301 112.225 47.3434C112.139 47.2566 112.035 47.2133 111.911 47.2133C111.789 47.2133 111.686 47.256 111.601 47.3415C111.515 47.427 111.472 47.5316 111.472 47.6555C111.472 47.7769 111.515 47.8797 111.601 47.964C111.686 48.0482 111.789 48.0903 111.911 48.0903ZM112.717 52.6018V52.3268L112.309 52.2897L112.178 52.167V48.9042H111.881L111.008 49.1755V49.4133H111.539V52.167L111.409 52.2897L111.008 52.3268V52.6018H112.717ZM114.593 52.6687C114.838 52.6687 115.082 52.6303 115.325 52.5535C115.568 52.4767 115.802 52.364 116.027 52.2153V51.7954C115.8 51.9465 115.588 52.058 115.394 52.1299C115.199 52.2017 115.012 52.2376 114.831 52.2376C114.439 52.2376 114.128 52.0983 113.898 51.8196C113.668 51.5408 113.552 51.1624 113.552 50.6843V50.5988H116.016C116.021 50.569 116.024 50.5381 116.026 50.5059C116.027 50.4737 116.027 50.4266 116.027 50.3647C116.027 49.9014 115.904 49.5353 115.658 49.2665C115.411 48.9977 115.077 48.8633 114.656 48.8633C114.141 48.8633 113.719 49.0435 113.391 49.404C113.063 49.7645 112.898 50.2296 112.898 50.7995C112.898 51.3544 113.055 51.8047 113.369 52.1503C113.682 52.4959 114.09 52.6687 114.593 52.6687ZM115.347 50.2792H113.59C113.612 49.9695 113.715 49.7137 113.9 49.5118C114.084 49.3099 114.303 49.2089 114.556 49.2089C114.813 49.2089 115.01 49.2907 115.145 49.4542C115.28 49.6177 115.347 49.8531 115.347 50.1603V50.2792ZM118.163 52.6018V52.3268L117.632 52.2897L117.502 52.167V49.993C117.663 49.8023 117.811 49.6617 117.946 49.5712C118.081 49.4808 118.209 49.4356 118.331 49.4356C118.41 49.4356 118.482 49.4511 118.548 49.482C118.614 49.513 118.671 49.5582 118.721 49.6177H118.962V48.9636C118.883 48.929 118.806 48.9036 118.732 48.8875C118.658 48.8713 118.582 48.8633 118.505 48.8633C118.453 48.8633 118.414 48.8645 118.388 48.867C118.362 48.8695 118.338 48.8744 118.316 48.8819C118.167 49.0008 118.025 49.1216 117.89 49.2442C117.755 49.3668 117.626 49.4913 117.502 49.6177V48.9042H117.212L116.327 49.1755V49.4133H116.863V52.167L116.733 52.2897L116.327 52.3268V52.6018H118.163Z" fill="white"/>
</svg>
