<svg width="170" height="72" viewBox="0 0 170 72" fill="none" xmlns="http://www.w3.org/2000/svg">
<path d="M65.4669 44.0273V34.5782L72.2333 44.0273H75.9593L70.251 36.4412C71.4036 36.2822 72.3277 36.0288 73.0232 35.6811C73.7187 35.3333 74.3198 34.8315 74.8266 34.1758C75.6711 33.0927 76.0934 31.7613 76.0934 30.1815C76.0934 28.1645 75.4724 26.5648 74.2304 25.3824C73.0282 24.2497 71.2198 23.6833 68.8054 23.6833H62.501V44.0273H65.4669ZM67.5087 34.1758H65.4669V26.4108H68.6116C69.9728 26.4108 71.0658 26.7561 71.8905 27.4466C72.7152 28.1372 73.1275 29.0538 73.1275 30.1964C73.1275 31.6272 72.5264 32.6903 71.3241 33.3859C70.42 33.9125 69.1482 34.1758 67.5087 34.1758ZM86.4434 44.4297C88.6194 44.4297 90.4774 43.7143 92.0175 42.2836C92.8322 41.5284 93.4781 40.6242 93.955 39.571C94.4319 38.5178 94.6704 37.4696 94.6704 36.4263C94.6704 33.9721 93.7463 31.9501 91.8982 30.3603C90.3482 29.0289 88.525 28.3632 86.4285 28.3632C85.0474 28.3831 83.7681 28.6936 82.5907 29.2947C81.4133 29.8958 80.447 30.728 79.6919 31.7911C78.7182 33.1623 78.2313 34.6676 78.2313 36.307C78.2313 37.5192 78.5145 38.6967 79.0808 39.8393C79.5379 40.7733 80.139 41.588 80.8842 42.2836C82.4243 43.7143 84.2773 44.4297 86.4434 44.4297ZM86.4434 41.8215C85.0126 41.8215 83.7855 41.3297 82.7621 40.346C81.6393 39.2531 81.078 37.9316 81.078 36.3816C81.078 34.8315 81.6393 33.52 82.7621 32.4469C83.7855 31.4632 85.0126 30.9714 86.4434 30.9714C87.8742 30.9913 89.1112 31.4831 90.1545 32.4469C91.2673 33.4902 91.8237 34.8216 91.8237 36.4412C91.8237 37.1466 91.6722 37.8471 91.3692 38.5426C91.0661 39.2382 90.6562 39.8393 90.1396 40.346C89.1162 41.3297 87.8841 41.8215 86.4434 41.8215ZM104.842 44.4297C106.779 44.4297 108.458 43.8336 109.879 42.6413C111.032 41.6675 111.856 40.4553 112.353 39.0047H109.179C108.761 39.8691 108.155 40.5547 107.36 41.0614C106.565 41.5682 105.706 41.8215 104.782 41.8215C103.341 41.8215 102.154 41.2403 101.22 40.0778C100.336 38.9749 99.8934 37.7378 99.8934 36.3667C99.8934 35.1247 100.246 33.982 100.952 32.9387C101.856 31.6272 103.172 30.9714 104.901 30.9714C105.865 30.9714 106.677 31.1925 107.338 31.6346C107.999 32.0768 108.612 32.8145 109.179 33.8479H112.353C112.144 33.0232 111.792 32.278 111.295 31.6123C109.646 29.4462 107.509 28.3632 104.886 28.3632C102.581 28.3632 100.668 29.2028 99.1482 30.882C97.7472 32.4221 97.0467 34.2503 97.0467 36.3667C97.0467 38.6221 97.8118 40.5448 99.342 42.1345C100.803 43.6647 102.636 44.4297 104.842 44.4297ZM118.202 36.1431L124.372 44.0273H127.934L121.541 35.9643L127.07 28.7656H123.687L118.202 36.1431ZM118.202 36.1431V23.6833H115.355V44.0273H118.202V36.1431ZM136.392 44.4297C138.578 44.4297 140.441 43.6398 141.981 42.06C142.726 41.2949 143.302 40.356 143.709 39.2431H140.833C140.346 40.0778 139.733 40.7162 138.992 41.1583C138.252 41.6005 137.43 41.8215 136.526 41.8215C135.006 41.8215 133.724 41.2204 132.681 40.0181C132.124 39.3822 131.732 38.5874 131.503 37.6335H144.112C144.171 36.9877 144.201 36.5008 144.201 36.1729C144.201 34.8812 143.913 33.6715 143.337 32.5438C142.761 31.416 141.951 30.4696 140.908 29.7046C139.576 28.7408 138.096 28.2589 136.466 28.2589C135.363 28.2589 134.295 28.4924 133.262 28.9594C131.781 29.635 130.629 30.6684 129.804 32.0594C129.019 33.4008 128.627 34.8365 128.627 36.3667C128.627 38.6221 129.422 40.5497 131.011 42.1494C132.522 43.6696 134.315 44.4297 136.392 44.4297ZM141.37 35.4426H131.488C131.597 34.7073 131.737 34.136 131.905 33.7287C132.074 33.3213 132.338 32.9189 132.695 32.5214C133.689 31.4185 134.936 30.8671 136.436 30.8671C138.155 30.8671 139.521 31.6123 140.535 33.1027C141.042 33.8379 141.32 34.6179 141.37 35.4426ZM150.259 44.0273V35.6811C150.229 32.9189 151.476 31.4632 154 31.3142V28.3632C152.281 28.3731 150.964 28.9643 150.05 30.1368V28.7656H147.412V44.0273H150.259Z" fill="white"/>
<path opacity="0.8" d="M64.8585 55.0498C65.1485 55.0498 65.413 55.0167 65.6521 54.9506C65.8912 54.8844 66.096 54.7891 66.2664 54.6644C66.4369 54.5398 66.5678 54.3859 66.6594 54.2027C66.751 54.0196 66.7968 53.8136 66.7968 53.5846C66.7968 53.4015 66.7663 53.2387 66.7052 53.0963C66.6442 52.9538 66.5628 52.8317 66.461 52.73C66.3593 52.6282 66.2385 52.5405 66.0986 52.4667C65.9587 52.393 65.8099 52.3332 65.6521 52.2874C65.759 52.2416 65.862 52.1844 65.9612 52.1157C66.0604 52.047 66.1507 51.9618 66.2321 51.8601C66.3135 51.7583 66.3784 51.6413 66.4267 51.5091C66.475 51.3768 66.4992 51.2216 66.4992 51.0436C66.4992 50.8401 66.4585 50.6557 66.3771 50.4903C66.2957 50.325 66.1787 50.1851 66.0261 50.0706C65.8734 49.9562 65.6903 49.8671 65.4766 49.8036C65.263 49.74 65.0239 49.7082 64.7593 49.7082H62.4854V55.0498H64.8585ZM64.6601 52.089H63.0806V50.25H64.7059C65.0875 50.25 65.38 50.3288 65.5835 50.4865C65.787 50.6442 65.8887 50.8579 65.8887 51.1275C65.8887 51.4429 65.7742 51.682 65.5453 51.8448C65.3164 52.0076 65.0213 52.089 64.6601 52.089ZM64.8738 54.508H63.0806V52.6232H64.767C65.235 52.6232 65.5886 52.7033 65.8277 52.8635C66.0668 53.0238 66.1863 53.2514 66.1863 53.5465C66.1863 53.8517 66.0693 54.0883 65.8353 54.2562C65.6013 54.424 65.2808 54.508 64.8738 54.508ZM69.3455 55.1337C69.6863 55.1337 69.9636 55.0587 70.1772 54.9086C70.3909 54.7585 70.5639 54.5767 70.6961 54.363V55.0498H71.2761V51.1046H70.6961V53.3634C70.6961 53.5465 70.6656 53.7144 70.6046 53.867C70.5435 54.0196 70.4608 54.1506 70.3566 54.26C70.2523 54.3694 70.1276 54.4533 69.9826 54.5118C69.8377 54.5703 69.6812 54.5996 69.5134 54.5996C69.1623 54.5996 68.8927 54.4927 68.7045 54.2791C68.5163 54.0654 68.4221 53.7754 68.4221 53.4091V51.1046H67.8346V53.5541C67.8346 53.7881 67.8689 54.0018 67.9376 54.1951C68.0063 54.3884 68.1055 54.555 68.2352 54.6949C68.3649 54.8348 68.5226 54.9429 68.7083 55.0192C68.894 55.0956 69.1064 55.1337 69.3455 55.1337ZM73.283 50.2423V49.5937H72.6115V50.2423H73.283ZM73.2372 55.0498V51.1046H72.6496V55.0498H73.2372ZM75.2441 55.0498V49.4792H74.6565V55.0498H75.2441ZM78.2659 55.1337C78.4491 55.1337 78.6157 55.1108 78.7657 55.065C78.9158 55.0192 79.0519 54.9557 79.174 54.8743C79.2961 54.7929 79.4067 54.6988 79.5059 54.5919C79.6051 54.4851 79.6954 54.3732 79.7768 54.2562V55.0498H80.3644V49.4792H79.7768V51.8601C79.7005 51.7482 79.6128 51.6413 79.5136 51.5396C79.4144 51.4378 79.3037 51.3488 79.1816 51.2725C79.0595 51.1962 78.9222 51.1351 78.7696 51.0894C78.6169 51.0436 78.4491 51.0207 78.2659 51.0207C78.0268 51.0207 77.7954 51.0677 77.5715 51.1619C77.3477 51.256 77.1467 51.3908 76.9687 51.5663C76.7906 51.7418 76.6482 51.9567 76.5414 52.2111C76.4345 52.4655 76.3811 52.7554 76.3811 53.081C76.3811 53.4066 76.4345 53.6966 76.5414 53.9509C76.6482 54.2053 76.7906 54.4202 76.9687 54.5957C77.1467 54.7712 77.3477 54.9048 77.5715 54.9964C77.7954 55.0879 78.0268 55.1337 78.2659 55.1337ZM78.3728 54.6072C78.1845 54.6072 78.0065 54.5716 77.8386 54.5003C77.6707 54.4291 77.5232 54.3261 77.396 54.1913C77.2688 54.0565 77.1684 53.895 77.0946 53.7067C77.0208 53.5185 76.9839 53.3074 76.9839 53.0734C76.9839 52.8343 77.0208 52.6193 77.0946 52.4286C77.1684 52.2378 77.2676 52.0776 77.3922 51.9478C77.5168 51.8181 77.6631 51.7189 77.831 51.6502C77.9988 51.5815 78.1794 51.5472 78.3728 51.5472C78.5559 51.5472 78.7327 51.5841 78.9031 51.6579C79.0735 51.7316 79.2261 51.8346 79.3609 51.9669C79.4958 52.0992 79.6026 52.2594 79.6814 52.4476C79.7603 52.6359 79.7997 52.8445 79.7997 53.0734C79.7997 53.3023 79.7603 53.5122 79.6814 53.7029C79.6026 53.8937 79.4958 54.0552 79.3609 54.1875C79.2261 54.3198 79.0735 54.4228 78.9031 54.4965C78.7327 54.5703 78.5559 54.6072 78.3728 54.6072ZM84.5766 56.2936C84.8717 56.2936 85.1222 56.2097 85.3283 56.0418C85.5343 55.8739 85.7213 55.5865 85.8891 55.1795L87.545 51.1046H86.9193L85.6526 54.3935L84.218 51.1046H83.5694L85.3626 55.0345C85.2456 55.3143 85.126 55.5076 85.0039 55.6145C84.8819 55.7213 84.7318 55.7747 84.5537 55.7747C84.4265 55.7747 84.3159 55.7633 84.2218 55.7404C84.1277 55.7175 84.0323 55.6806 83.9356 55.6297L83.7372 56.0952C83.8695 56.1613 84.0018 56.2109 84.134 56.244C84.2663 56.2771 84.4138 56.2936 84.5766 56.2936ZM90.2769 55.1413C90.5719 55.1413 90.8466 55.0867 91.101 54.9773C91.3553 54.8679 91.5741 54.7191 91.7572 54.5309C91.9404 54.3426 92.0841 54.1226 92.1884 53.8708C92.2927 53.619 92.3448 53.3532 92.3448 53.0734C92.3448 52.7936 92.2939 52.529 92.1922 52.2798C92.0905 52.0305 91.948 51.813 91.7649 51.6273C91.5817 51.4416 91.3643 51.2941 91.1124 51.1847C90.8606 51.0754 90.5872 51.0207 90.2921 51.0207C89.992 51.0207 89.716 51.0754 89.4642 51.1847C89.2124 51.2941 88.9949 51.4429 88.8117 51.6311C88.6286 51.8194 88.4862 52.0394 88.3844 52.2912C88.2827 52.543 88.2318 52.8088 88.2318 53.0886C88.2318 53.3684 88.2827 53.633 88.3844 53.8823C88.4862 54.1315 88.6286 54.349 88.8117 54.5347C88.9949 54.7204 89.2111 54.8679 89.4604 54.9773C89.7096 55.0867 89.9818 55.1413 90.2769 55.1413ZM90.2921 54.6148C90.0835 54.6148 89.8902 54.5741 89.7122 54.4927C89.5341 54.4113 89.3802 54.3019 89.2505 54.1646C89.1208 54.0272 89.019 53.8644 88.9453 53.6762C88.8715 53.488 88.8346 53.287 88.8346 53.0734C88.8346 52.8597 88.8702 52.66 88.9415 52.4744C89.0127 52.2887 89.1106 52.1259 89.2352 51.986C89.3599 51.8461 89.5112 51.7367 89.6893 51.6579C89.8673 51.579 90.0632 51.5396 90.2769 51.5396C90.4854 51.5396 90.6787 51.5803 90.8568 51.6617C91.0349 51.7431 91.19 51.8537 91.3223 51.9936C91.4545 52.1335 91.5576 52.2976 91.6313 52.4858C91.7051 52.674 91.742 52.875 91.742 53.0886C91.742 53.3023 91.7064 53.502 91.6351 53.6877C91.5639 53.8733 91.4647 54.0349 91.3375 54.1722C91.2104 54.3096 91.0577 54.4177 90.8797 54.4965C90.7016 54.5754 90.5058 54.6148 90.2921 54.6148ZM94.8554 55.1337C95.1962 55.1337 95.4735 55.0587 95.6871 54.9086C95.9008 54.7585 96.0737 54.5767 96.206 54.363V55.0498H96.786V51.1046H96.206V53.3634C96.206 53.5465 96.1755 53.7144 96.1144 53.867C96.0534 54.0196 95.9707 54.1506 95.8664 54.26C95.7622 54.3694 95.6375 54.4533 95.4925 54.5118C95.3475 54.5703 95.1911 54.5996 95.0232 54.5996C94.6722 54.5996 94.4026 54.4927 94.2144 54.2791C94.0261 54.0654 93.932 53.7754 93.932 53.4091V51.1046H93.3445V53.5541C93.3445 53.7881 93.3788 54.0018 93.4475 54.1951C93.5161 54.3884 93.6153 54.555 93.7451 54.6949C93.8748 54.8348 94.0325 54.9429 94.2182 55.0192C94.4039 55.0956 94.6163 55.1337 94.8554 55.1337ZM98.6937 55.0498V53.4778C98.6937 53.1828 98.7344 52.922 98.8158 52.6957C98.8972 52.4693 99.0091 52.2798 99.1515 52.1272C99.294 51.9745 99.4606 51.8601 99.6513 51.7838C99.8421 51.7075 100.044 51.6693 100.258 51.6693H100.304V51.0359C100.116 51.0309 99.94 51.0537 99.7772 51.1046C99.6145 51.1555 99.4644 51.2305 99.327 51.3297C99.1897 51.4289 99.0676 51.5472 98.9608 51.6846C98.8539 51.8219 98.7649 51.972 98.6937 52.1348V51.1046H98.1061V55.0498H98.6937ZM105.142 55.1337C105.325 55.1337 105.491 55.1108 105.642 55.065C105.792 55.0192 105.928 54.9557 106.05 54.8743C106.172 54.7929 106.283 54.6988 106.382 54.5919C106.481 54.4851 106.571 54.3732 106.653 54.2562V55.0498H107.24V49.4792H106.653V51.8601C106.576 51.7482 106.489 51.6413 106.389 51.5396C106.29 51.4378 106.18 51.3488 106.057 51.2725C105.935 51.1962 105.798 51.1351 105.645 51.0894C105.493 51.0436 105.325 51.0207 105.142 51.0207C104.903 51.0207 104.671 51.0677 104.447 51.1619C104.223 51.256 104.023 51.3908 103.844 51.5663C103.666 51.7418 103.524 51.9567 103.417 52.2111C103.31 52.4655 103.257 52.7554 103.257 53.081C103.257 53.4066 103.31 53.6966 103.417 53.9509C103.524 54.2053 103.666 54.4202 103.844 54.5957C104.023 54.7712 104.223 54.9048 104.447 54.9964C104.671 55.0879 104.903 55.1337 105.142 55.1337ZM105.249 54.6072C105.06 54.6072 104.882 54.5716 104.714 54.5003C104.547 54.4291 104.399 54.3261 104.272 54.1913C104.145 54.0565 104.044 53.895 103.97 53.7067C103.897 53.5185 103.86 53.3074 103.86 53.0734C103.86 52.8343 103.897 52.6193 103.97 52.4286C104.044 52.2378 104.143 52.0776 104.268 51.9478C104.393 51.8181 104.539 51.7189 104.707 51.6502C104.875 51.5815 105.055 51.5472 105.249 51.5472C105.432 51.5472 105.608 51.5841 105.779 51.6579C105.949 51.7316 106.102 51.8346 106.237 51.9669C106.372 52.0992 106.478 52.2594 106.557 52.4476C106.636 52.6359 106.676 52.8445 106.676 53.0734C106.676 53.3023 106.636 53.5122 106.557 53.7029C106.478 53.8937 106.372 54.0552 106.237 54.1875C106.102 54.3198 105.949 54.4228 105.779 54.4965C105.608 54.5703 105.432 54.6072 105.249 54.6072ZM109.14 55.0498V53.4778C109.14 53.1828 109.181 52.922 109.262 52.6957C109.344 52.4693 109.456 52.2798 109.598 52.1272C109.741 51.9745 109.907 51.8601 110.098 51.7838C110.289 51.7075 110.491 51.6693 110.705 51.6693H110.75V51.0359C110.562 51.0309 110.387 51.0537 110.224 51.1046C110.061 51.1555 109.911 51.2305 109.774 51.3297C109.636 51.4289 109.514 51.5472 109.407 51.6846C109.301 51.8219 109.212 51.972 109.14 52.1348V51.1046H108.553V55.0498H109.14ZM113.368 55.1413C113.744 55.1413 114.06 55.0739 114.314 54.9391C114.568 54.8043 114.795 54.625 114.993 54.4011L114.627 54.073C114.464 54.2409 114.285 54.3757 114.089 54.4775C113.893 54.5792 113.658 54.6301 113.383 54.6301C113.21 54.6301 113.045 54.6008 112.887 54.5423C112.729 54.4838 112.587 54.3973 112.46 54.2829C112.333 54.1684 112.228 54.0285 112.147 53.8632C112.065 53.6978 112.015 53.5083 111.994 53.2947H115.123C115.128 53.2591 115.13 53.226 115.13 53.1955V53.1115C115.13 52.8216 115.09 52.5494 115.008 52.295C114.927 52.0407 114.807 51.8194 114.65 51.6311C114.492 51.4429 114.299 51.2941 114.07 51.1847C113.841 51.0754 113.581 51.0207 113.291 51.0207C113.017 51.0207 112.764 51.0741 112.532 51.1809C112.301 51.2878 112.101 51.434 111.933 51.6197C111.765 51.8054 111.634 52.0241 111.54 52.276C111.446 52.5278 111.399 52.7961 111.399 53.081C111.399 53.3862 111.451 53.666 111.555 53.9204C111.66 54.1748 111.801 54.3922 111.979 54.5728C112.157 54.7534 112.366 54.8933 112.605 54.9925C112.844 55.0917 113.098 55.1413 113.368 55.1413ZM114.535 52.8597H111.994C112.015 52.6664 112.06 52.4883 112.132 52.3256C112.203 52.1628 112.294 52.0216 112.406 51.902C112.518 51.7825 112.648 51.6884 112.795 51.6197C112.943 51.551 113.103 51.5167 113.276 51.5167C113.475 51.5167 113.649 51.5536 113.799 51.6273C113.949 51.7011 114.076 51.799 114.18 51.9211C114.285 52.0432 114.366 52.1857 114.425 52.3484C114.483 52.5112 114.52 52.6817 114.535 52.8597ZM117.336 55.1337C117.687 55.1337 117.978 55.065 118.21 54.9277C118.441 54.7903 118.625 54.6326 118.763 54.4546V55.0498H119.327V52.6384C119.327 52.1144 119.182 51.7189 118.892 51.4518C118.603 51.1847 118.188 51.0512 117.649 51.0512C117.359 51.0512 117.102 51.0805 116.878 51.139C116.654 51.1975 116.433 51.2776 116.214 51.3793L116.39 51.8601C116.573 51.7736 116.76 51.7036 116.95 51.6502C117.141 51.5968 117.354 51.5701 117.588 51.5701C117.959 51.5701 118.248 51.6604 118.454 51.841C118.66 52.0216 118.763 52.2899 118.763 52.6461V52.7834C118.585 52.7325 118.402 52.6918 118.213 52.6613C118.025 52.6308 117.804 52.6155 117.549 52.6155C117.3 52.6155 117.073 52.6435 116.867 52.6995C116.66 52.7554 116.482 52.8368 116.332 52.9437C116.182 53.0505 116.067 53.184 115.985 53.3443C115.904 53.5045 115.863 53.6889 115.863 53.8975C115.863 54.1061 115.905 54.2867 115.989 54.4393C116.073 54.5919 116.185 54.7204 116.325 54.8247C116.465 54.9289 116.622 55.0065 116.798 55.0574C116.973 55.1083 117.153 55.1337 117.336 55.1337ZM117.45 54.6682C117.318 54.6682 117.192 54.6504 117.073 54.6148C116.953 54.5792 116.847 54.5271 116.756 54.4584C116.664 54.3897 116.592 54.307 116.538 54.2104C116.485 54.1137 116.458 54.0018 116.458 53.8746C116.458 53.6203 116.557 53.4193 116.756 53.2718C116.954 53.1243 117.239 53.0505 117.611 53.0505C117.855 53.0505 118.072 53.0683 118.263 53.1039C118.454 53.1395 118.623 53.1777 118.77 53.2184V53.5999C118.77 53.7576 118.736 53.9013 118.667 54.0311C118.599 54.1608 118.505 54.2727 118.385 54.3668C118.265 54.4609 118.126 54.5347 117.965 54.5881C117.805 54.6415 117.633 54.6682 117.45 54.6682ZM121.166 55.0498V52.7987C121.166 52.6155 121.194 52.4489 121.25 52.2988C121.306 52.1488 121.384 52.0178 121.483 51.9059C121.582 51.7939 121.698 51.7075 121.83 51.6464C121.963 51.5854 122.108 51.5548 122.265 51.5548C122.581 51.5548 122.829 51.6579 123.009 51.8639C123.19 52.0699 123.28 52.3586 123.28 52.73V55.0498H123.86V52.7758C123.86 52.5825 123.889 52.4095 123.948 52.2569C124.006 52.1043 124.085 51.9758 124.184 51.8715C124.284 51.7672 124.399 51.6884 124.532 51.635C124.664 51.5815 124.804 51.5548 124.951 51.5548C125.272 51.5548 125.522 51.6579 125.703 51.8639C125.884 52.0699 125.974 52.3637 125.974 52.7453V55.0498H126.561V52.6079C126.561 52.1144 126.432 51.7265 126.172 51.4442C125.913 51.1619 125.554 51.0207 125.096 51.0207C124.923 51.0207 124.767 51.041 124.627 51.0817C124.487 51.1224 124.361 51.1784 124.249 51.2496C124.137 51.3208 124.037 51.4048 123.948 51.5014C123.859 51.5981 123.779 51.6998 123.708 51.8067C123.601 51.5828 123.443 51.3959 123.234 51.2458C123.026 51.0957 122.761 51.0207 122.441 51.0207C122.273 51.0207 122.125 51.041 121.998 51.0817C121.871 51.1224 121.757 51.1771 121.655 51.2458C121.553 51.3145 121.463 51.3946 121.384 51.4862C121.305 51.5777 121.233 51.6718 121.166 51.7685V51.1046H120.579V55.0498H121.166ZM130.713 55.0498V52.791C130.713 52.6079 130.742 52.44 130.8 52.2874C130.859 52.1348 130.942 52.0038 131.048 51.8944C131.155 51.785 131.281 51.7011 131.426 51.6426C131.571 51.5841 131.728 51.5548 131.895 51.5548C132.246 51.5548 132.516 51.6617 132.704 51.8753C132.893 52.089 132.987 52.379 132.987 52.7453V55.0498H133.574V52.6003C133.574 52.3663 133.54 52.1526 133.471 51.9593C133.403 51.766 133.303 51.5994 133.174 51.4595C133.044 51.3196 132.886 51.2115 132.7 51.1351C132.515 51.0588 132.302 51.0207 132.063 51.0207C131.722 51.0207 131.445 51.0957 131.232 51.2458C131.018 51.3959 130.845 51.5777 130.713 51.7914V49.4792H130.125V55.0498H130.713ZM136.627 55.1413C136.922 55.1413 137.196 55.0867 137.451 54.9773C137.705 54.8679 137.924 54.7191 138.107 54.5309C138.29 54.3426 138.434 54.1226 138.538 53.8708C138.642 53.619 138.695 53.3532 138.695 53.0734C138.695 52.7936 138.644 52.529 138.542 52.2798C138.44 52.0305 138.298 51.813 138.115 51.6273C137.931 51.4416 137.714 51.2941 137.462 51.1847C137.21 51.0754 136.937 51.0207 136.642 51.0207C136.342 51.0207 136.066 51.0754 135.814 51.1847C135.562 51.2941 135.345 51.4429 135.161 51.6311C134.978 51.8194 134.836 52.0394 134.734 52.2912C134.632 52.543 134.581 52.8088 134.581 53.0886C134.581 53.3684 134.632 53.633 134.734 53.8823C134.836 54.1315 134.978 54.349 135.161 54.5347C135.345 54.7204 135.561 54.8679 135.81 54.9773C136.059 55.0867 136.331 55.1413 136.627 55.1413ZM136.642 54.6148C136.433 54.6148 136.24 54.5741 136.062 54.4927C135.884 54.4113 135.73 54.3019 135.6 54.1646C135.47 54.0272 135.369 53.8644 135.295 53.6762C135.221 53.488 135.184 53.287 135.184 53.0734C135.184 52.8597 135.22 52.66 135.291 52.4744C135.362 52.2887 135.46 52.1259 135.585 51.986C135.71 51.8461 135.861 51.7367 136.039 51.6579C136.217 51.579 136.413 51.5396 136.627 51.5396C136.835 51.5396 137.028 51.5803 137.206 51.6617C137.385 51.7431 137.54 51.8537 137.672 51.9936C137.804 52.1335 137.907 52.2976 137.981 52.4858C138.055 52.674 138.092 52.875 138.092 53.0886C138.092 53.3023 138.056 53.502 137.985 53.6877C137.914 53.8733 137.814 54.0349 137.687 54.1722C137.56 54.3096 137.407 54.4177 137.229 54.4965C137.051 54.5754 136.855 54.6148 136.642 54.6148ZM140.343 55.0498V52.7987C140.343 52.6155 140.371 52.4489 140.427 52.2988C140.483 52.1488 140.56 52.0178 140.659 51.9059C140.759 51.7939 140.874 51.7075 141.007 51.6464C141.139 51.5854 141.284 51.5548 141.442 51.5548C141.757 51.5548 142.005 51.6579 142.186 51.8639C142.366 52.0699 142.457 52.3586 142.457 52.73V55.0498H143.036V52.7758C143.036 52.5825 143.066 52.4095 143.124 52.2569C143.183 52.1043 143.262 51.9758 143.361 51.8715C143.46 51.7672 143.576 51.6884 143.708 51.635C143.84 51.5815 143.98 51.5548 144.128 51.5548C144.448 51.5548 144.699 51.6579 144.879 51.8639C145.06 52.0699 145.15 52.3637 145.15 52.7453V55.0498H145.738V52.6079C145.738 52.1144 145.608 51.7265 145.349 51.4442C145.089 51.1619 144.73 51.0207 144.273 51.0207C144.1 51.0207 143.943 51.041 143.803 51.0817C143.663 51.1224 143.538 51.1784 143.426 51.2496C143.314 51.3208 143.213 51.4048 143.124 51.5014C143.035 51.5981 142.955 51.6998 142.884 51.8067C142.777 51.5828 142.619 51.3959 142.411 51.2458C142.202 51.0957 141.938 51.0207 141.617 51.0207C141.449 51.0207 141.302 51.041 141.175 51.0817C141.047 51.1224 140.933 51.1771 140.831 51.2458C140.729 51.3145 140.639 51.3946 140.56 51.4862C140.481 51.5777 140.409 51.6718 140.343 51.7685V51.1046H139.755V55.0498H140.343ZM148.737 55.1413C149.113 55.1413 149.429 55.0739 149.683 54.9391C149.937 54.8043 150.164 54.625 150.362 54.4011L149.996 54.073C149.833 54.2409 149.654 54.3757 149.458 54.4775C149.262 54.5792 149.027 54.6301 148.752 54.6301C148.579 54.6301 148.414 54.6008 148.256 54.5423C148.098 54.4838 147.956 54.3973 147.829 54.2829C147.701 54.1684 147.597 54.0285 147.516 53.8632C147.434 53.6978 147.383 53.5083 147.363 53.2947H150.492C150.497 53.2591 150.499 53.226 150.499 53.1955V53.1115C150.499 52.8216 150.459 52.5494 150.377 52.295C150.296 52.0407 150.176 51.8194 150.019 51.6311C149.861 51.4429 149.668 51.2941 149.439 51.1847C149.21 51.0754 148.95 51.0207 148.66 51.0207C148.386 51.0207 148.133 51.0741 147.901 51.1809C147.67 51.2878 147.47 51.434 147.302 51.6197C147.134 51.8054 147.003 52.0241 146.909 52.276C146.815 52.5278 146.768 52.7961 146.768 53.081C146.768 53.3862 146.82 53.666 146.924 53.9204C147.029 54.1748 147.17 54.3922 147.348 54.5728C147.526 54.7534 147.735 54.8933 147.974 54.9925C148.213 55.0917 148.467 55.1413 148.737 55.1413ZM149.904 52.8597H147.363C147.383 52.6664 147.429 52.4883 147.5 52.3256C147.572 52.1628 147.663 52.0216 147.775 51.902C147.887 51.7825 148.017 51.6884 148.164 51.6197C148.312 51.551 148.472 51.5167 148.645 51.5167C148.844 51.5167 149.018 51.5536 149.168 51.6273C149.318 51.7011 149.445 51.799 149.549 51.9211C149.654 52.0432 149.735 52.1857 149.794 52.3484C149.852 52.5112 149.889 52.6817 149.904 52.8597Z" fill="white"/>
<path fill-rule="evenodd" clip-rule="evenodd" d="M38.4138 41.0597V42.7504L24 56.3214V54.6307L38.4138 41.0597ZM38.8377 41.0597L53.2515 54.6307V56.3214L38.8377 42.7505V41.0597ZM38.4138 36.3964V38.087L24 51.6581V49.9676L38.4138 36.3964ZM38.8377 36.3964L53.2515 49.9676V51.6581L38.8377 38.0872V36.3964ZM38.4138 32.1571V33.8478L24 47.4188V45.7282L38.4138 32.1571ZM38.8377 32.1571L53.2515 45.7282V47.4188L38.8377 33.8478V32.1571ZM38.4138 27.9177V29.6083L24 43.1794V41.4888L38.4138 27.9177ZM38.8377 27.9177L53.2515 41.4888V43.1794L38.8377 29.6085V27.9177ZM38.4138 23.2544V24.9451L24 38.5161V36.8253L38.4138 23.2544ZM38.8377 23.2544L53.2515 36.8253V38.5161L38.8377 24.9452V23.2544Z" fill="white"/>
</svg>
