<svg width="170" height="72" viewBox="0 0 170 72" fill="none" xmlns="http://www.w3.org/2000/svg">
<path d="M67.2976 42.3075C70.7363 42.3075 73.0195 40.7269 73.0195 38.0018C73.0195 35.2668 70.7508 34.4109 68.5728 33.7672L68.322 33.6937C66.4046 33.1366 64.6292 32.6953 64.6292 31.2161C64.6292 30.0443 65.592 29.3085 67.2701 29.3085C68.7281 29.3085 69.7734 29.908 70.2411 31.1888L72.4693 30.3168C71.8366 28.4092 69.9385 27.3463 67.2976 27.3463C64.1066 27.3463 62.0434 28.8724 62.0434 31.3523C62.0434 36.2849 70.3786 34.7316 70.3786 38.1925C70.3786 39.5279 69.1957 40.2909 67.3801 40.2909C65.372 40.2909 64.024 39.4189 63.5564 37.9473L61.3281 38.8193C62.0984 41.1085 64.2991 42.3075 67.2976 42.3075ZM88.7181 46.8858V27.6461H86.5449V30.3168C85.3895 28.4637 83.4638 27.3463 81.043 27.3463C76.9167 27.3463 73.9732 30.562 73.9732 34.8406C73.9732 39.1191 76.9992 42.3075 81.098 42.3075C83.3813 42.3075 85.2244 41.2992 86.3798 39.6369V46.8858H88.7181ZM81.3731 40.2637C78.4572 40.2637 76.2839 37.9473 76.2839 34.8406C76.2839 31.7066 78.4572 29.3902 81.3731 29.3902C84.3716 29.3902 86.4623 31.6521 86.4623 34.8406C86.4623 38.029 84.3991 40.2637 81.3731 40.2637ZM97.2918 42.3075C99.4375 42.3075 101.171 41.2992 102.133 39.9639V42.0078H104.362V27.6461H102.023V36.6664C101.996 38.4923 100.345 40.2364 97.897 40.2364C95.4211 40.2637 93.8531 38.6558 93.8531 36.2304V27.6461H91.5148V36.5029C91.5148 39.9094 93.578 42.3075 97.2918 42.3075ZM113.568 42.3075C116.016 42.3075 117.914 41.163 119.015 39.2553V42.0078H121.188V27.6461H119.015V30.4258C117.914 28.5727 116.016 27.4826 113.568 27.4826C109.469 27.4826 106.443 30.562 106.443 34.8133C106.443 39.1191 109.442 42.3075 113.568 42.3075ZM113.843 40.2637C110.927 40.2637 108.754 37.9473 108.754 34.8133C108.754 31.7339 110.927 29.3902 113.843 29.3902C116.869 29.3902 118.932 31.6249 118.932 34.8133C118.932 38.029 116.842 40.2637 113.843 40.2637ZM126.516 42.0078V33.3417C126.516 31.2978 128.359 29.5265 131 29.4992V27.3463C128.964 27.3463 127.313 28.4092 126.378 29.7445V27.6461H124.177V42.0078H126.516ZM138.28 42.3348C141.719 42.3348 143.727 40.8632 144.8 38.8193L142.764 37.593C142.049 39.2553 140.729 40.1547 138.363 40.1547C135.695 40.1547 133.576 38.356 133.164 35.6854H145.213C145.24 35.4129 145.268 34.9223 145.268 34.5135C145.268 30.7256 142.489 27.3191 138.115 27.3191C134.016 27.3191 130.798 30.6711 130.798 34.8406C130.798 39.1191 133.824 42.3348 138.28 42.3348ZM142.874 33.6687H133.191C133.631 30.9436 135.75 29.3357 138.198 29.3357C140.619 29.3357 142.517 30.9708 142.874 33.6687Z" fill="white"/>
<path d="M94.9551 50.7791C95.0303 50.7791 95.1098 50.7743 95.1937 50.7647C95.2775 50.7551 95.3688 50.7408 95.4677 50.7216V50.4725H95.4097C95.1367 50.4725 94.9422 50.44 94.8262 50.3751C94.7101 50.3102 94.6188 50.1883 94.5521 50.0094C94.522 49.9349 94.4812 49.7843 94.4296 49.5575C94.3781 49.3308 94.3157 49.1589 94.2427 49.0418C94.1782 48.9353 94.0901 48.8464 93.9783 48.7751C93.8666 48.7038 93.7279 48.6458 93.5625 48.6011C93.9171 48.5244 94.1836 48.3951 94.3619 48.2131C94.5403 48.031 94.6295 47.7984 94.6295 47.5153C94.6295 47.1171 94.4995 46.8217 94.2394 46.629C93.9794 46.4364 93.5796 46.34 93.0402 46.34H91.3574V46.6019L91.7314 46.6402L91.8442 46.7328V50.3352L91.7314 50.4278L91.3574 50.4597V50.728H92.9274V50.4597L92.5502 50.4278L92.4374 50.3352V48.7799L92.4599 48.7767C92.6018 48.7703 92.7049 48.7671 92.7694 48.7671C93.0724 48.7671 93.2986 48.8182 93.448 48.9204C93.5974 49.0226 93.7161 49.2068 93.8042 49.4729C93.8279 49.5432 93.859 49.6496 93.8977 49.7923C94.0009 50.1883 94.1309 50.4544 94.2878 50.5907C94.363 50.6545 94.4549 50.7019 94.5634 50.7328C94.672 50.7636 94.8025 50.7791 94.9551 50.7791ZM92.8017 48.4701C92.7458 48.4701 92.6877 48.4696 92.6276 48.4685C92.5674 48.4675 92.504 48.4659 92.4374 48.4637V46.6402H92.7565C93.1842 46.6402 93.4937 46.7137 93.685 46.8606C93.8762 47.0075 93.9719 47.2438 93.9719 47.5695C93.9719 47.8846 93.8789 48.1135 93.693 48.2562C93.5071 48.3988 93.21 48.4701 92.8017 48.4701ZM96.6628 50.7855C96.8756 50.7855 97.0873 50.7525 97.2979 50.6865C97.5085 50.6205 97.7116 50.5236 97.9072 50.3958V50.035C97.7095 50.1648 97.5262 50.2607 97.3575 50.3224C97.1888 50.3841 97.026 50.415 96.8691 50.415C96.5296 50.415 96.2599 50.2953 96.06 50.0557C95.8601 49.8162 95.7602 49.491 95.7602 49.0801V49.0067H97.8975C97.9018 48.9811 97.9045 48.9545 97.9056 48.9268C97.9066 48.8991 97.9072 48.8587 97.9072 48.8055C97.9072 48.4073 97.8003 48.0928 97.5864 47.8618C97.3726 47.6308 97.083 47.5153 96.7176 47.5153C96.2706 47.5153 95.9047 47.6701 95.6199 47.9799C95.3352 48.2897 95.1928 48.6894 95.1928 49.1791C95.1928 49.656 95.3287 50.043 95.6006 50.34C95.8725 50.637 96.2265 50.7855 96.6628 50.7855ZM97.3172 48.732H95.7924C95.8118 48.4659 95.9015 48.2461 96.0616 48.0725C96.2217 47.899 96.4114 47.8123 96.6306 47.8123C96.8541 47.8123 97.0244 47.8825 97.1415 48.023C97.2587 48.1636 97.3172 48.3658 97.3172 48.6298V48.732ZM99.0927 50.7727C99.2474 50.7727 99.4134 50.7381 99.5907 50.6689C99.768 50.5997 99.9631 50.4927 100.176 50.3479L100.263 50.728H101.191V50.4917L100.843 50.4597L100.73 50.3543V48.4574C100.73 48.1274 100.652 47.8878 100.495 47.7388C100.338 47.5898 100.087 47.5153 99.7406 47.5153C99.3473 47.5153 99.0266 47.5855 98.7783 47.726C98.5301 47.8665 98.406 48.0433 98.406 48.2562C98.406 48.3328 98.4205 48.3855 98.4495 48.4142C98.4785 48.443 98.5328 48.4574 98.6123 48.4574H99.0669V47.9081C99.155 47.874 99.2399 47.8485 99.3215 47.8314C99.4032 47.8144 99.4859 47.8059 99.5698 47.8059C99.7933 47.8059 99.9502 47.8591 100.04 47.9655C100.131 48.072 100.176 48.2626 100.176 48.5372V48.7448C99.3527 48.9407 98.8256 49.1184 98.5946 49.2781C98.3636 49.4378 98.248 49.6571 98.248 49.936C98.248 50.1872 98.3249 50.3895 98.4785 50.5428C98.6322 50.696 98.8369 50.7727 99.0927 50.7727ZM99.357 50.4214C99.1958 50.4214 99.0674 50.373 98.9718 50.2761C98.8761 50.1792 98.8283 50.0488 98.8283 49.8849C98.8283 49.6805 98.9148 49.5155 99.0878 49.3899C99.2608 49.2643 99.6235 49.1259 100.176 48.9747V50.1276C100.002 50.2255 99.8475 50.299 99.7132 50.3479C99.5789 50.3969 99.4602 50.4214 99.357 50.4214ZM102.828 50.728V50.4917L102.451 50.4597L102.332 50.3543V45.9153H102.08L101.274 46.1484V46.3528H101.784V50.3543L101.671 50.4597L101.281 50.4917V50.728H102.828ZM107.971 50.728V49.6613H107.63L107.517 50.3224L107.423 50.4278H105.654V48.5947H106.737L106.83 48.6937L106.895 49.1663H107.207V47.726H106.895L106.83 48.2019L106.737 48.2945H105.654V46.6402H107.182L107.272 46.7392L107.365 47.2949H107.736V46.34H104.574V46.6019L104.948 46.6402L105.06 46.7328V50.3352L104.948 50.4278L104.574 50.4597V50.728H107.971ZM109.073 50.7855C109.46 50.7855 109.762 50.6987 109.981 50.5252C110.199 50.3517 110.308 50.1116 110.308 49.805C110.308 49.6879 110.286 49.581 110.243 49.4841C110.2 49.3872 110.138 49.3068 110.056 49.243C109.945 49.1514 109.764 49.0492 109.515 48.9364C109.444 48.9045 109.391 48.88 109.357 48.8629C109.138 48.7586 108.989 48.6639 108.912 48.5787C108.835 48.4936 108.796 48.3903 108.796 48.2689C108.796 48.1199 108.844 48.0039 108.941 47.9208C109.038 47.8378 109.172 47.7963 109.344 47.7963C109.423 47.7963 109.503 47.808 109.582 47.8314C109.662 47.8548 109.746 47.89 109.834 47.9368L109.885 48.3999H110.211V47.659C110.099 47.6121 109.98 47.5765 109.852 47.552C109.724 47.5275 109.586 47.5153 109.437 47.5153C109.066 47.5153 108.778 47.5951 108.573 47.7548C108.369 47.9145 108.267 48.1401 108.267 48.4318C108.267 48.6234 108.327 48.7842 108.446 48.914C108.565 49.0439 108.79 49.1823 109.121 49.3292C109.414 49.4612 109.599 49.5703 109.676 49.6565C109.753 49.7428 109.792 49.8519 109.792 49.9839C109.792 50.1414 109.736 50.2686 109.623 50.3655C109.51 50.4624 109.36 50.5108 109.173 50.5108C109.078 50.5108 108.984 50.498 108.891 50.4725C108.797 50.4469 108.705 50.4076 108.612 50.3543L108.532 49.7987H108.216V50.6481C108.338 50.695 108.472 50.7296 108.617 50.7519C108.762 50.7743 108.914 50.7855 109.073 50.7855ZM111.625 50.7471C111.761 50.7471 111.902 50.7349 112.048 50.7104C112.194 50.6859 112.342 50.6503 112.493 50.6034V50.3607C112.411 50.3799 112.332 50.3937 112.256 50.4022C112.179 50.4108 112.106 50.415 112.035 50.415C111.829 50.415 111.686 50.3666 111.606 50.2697C111.527 50.1728 111.487 49.9828 111.487 49.6997V47.9751H112.493V47.6685H111.487V46.9724H111.242L110.958 47.5823L110.523 47.7707V47.9751H110.939V50.0861C110.939 50.3373 110.99 50.5103 111.092 50.605C111.194 50.6998 111.372 50.7471 111.625 50.7471ZM113.465 50.7727C113.62 50.7727 113.786 50.7381 113.963 50.6689C114.141 50.5997 114.336 50.4927 114.549 50.3479L114.636 50.728H115.564V50.4917L115.216 50.4597L115.103 50.3543V48.4574C115.103 48.1274 115.025 47.8878 114.868 47.7388C114.711 47.5898 114.459 47.5153 114.113 47.5153C113.72 47.5153 113.399 47.5855 113.151 47.726C112.903 47.8665 112.779 48.0433 112.779 48.2562C112.779 48.3328 112.793 48.3855 112.822 48.4142C112.851 48.443 112.905 48.4574 112.985 48.4574H113.44V47.9081C113.528 47.874 113.613 47.8485 113.694 47.8314C113.776 47.8144 113.859 47.8059 113.942 47.8059C114.166 47.8059 114.323 47.8591 114.413 47.9655C114.503 48.072 114.549 48.2626 114.549 48.5372V48.7448C113.725 48.9407 113.198 49.1184 112.967 49.2781C112.736 49.4378 112.621 49.6571 112.621 49.936C112.621 50.1872 112.698 50.3895 112.851 50.5428C113.005 50.696 113.21 50.7727 113.465 50.7727ZM113.73 50.4214C113.568 50.4214 113.44 50.373 113.344 50.2761C113.249 50.1792 113.201 50.0488 113.201 49.8849C113.201 49.6805 113.287 49.5155 113.46 49.3899C113.634 49.2643 113.996 49.1259 114.549 48.9747V50.1276C114.374 50.2255 114.22 50.299 114.086 50.3479C113.952 50.3969 113.833 50.4214 113.73 50.4214ZM116.737 50.7471C116.872 50.7471 117.013 50.7349 117.159 50.7104C117.305 50.6859 117.453 50.6503 117.604 50.6034V50.3607C117.522 50.3799 117.443 50.3937 117.367 50.4022C117.291 50.4108 117.217 50.415 117.146 50.415C116.94 50.415 116.797 50.3666 116.717 50.2697C116.638 50.1728 116.598 49.9828 116.598 49.6997V47.9751H117.604V47.6685H116.598V46.9724H116.353L116.069 47.5823L115.634 47.7707V47.9751H116.05V50.0861C116.05 50.3373 116.101 50.5103 116.203 50.605C116.305 50.6998 116.483 50.7471 116.737 50.7471ZM119.17 50.7855C119.382 50.7855 119.594 50.7525 119.805 50.6865C120.015 50.6205 120.218 50.5236 120.414 50.3958V50.035C120.216 50.1648 120.033 50.2607 119.864 50.3224C119.696 50.3841 119.533 50.415 119.376 50.415C119.036 50.415 118.767 50.2953 118.567 50.0557C118.367 49.8162 118.267 49.491 118.267 49.0801V49.0067H120.404C120.409 48.9811 120.411 48.9545 120.412 48.9268C120.413 48.8991 120.414 48.8587 120.414 48.8055C120.414 48.4073 120.307 48.0928 120.093 47.8618C119.879 47.6308 119.59 47.5153 119.224 47.5153C118.777 47.5153 118.411 47.6701 118.127 47.9799C117.842 48.2897 117.7 48.6894 117.7 49.1791C117.7 49.656 117.836 50.043 118.107 50.34C118.379 50.637 118.733 50.7855 119.17 50.7855ZM119.824 48.732H118.299C118.319 48.4659 118.408 48.2461 118.568 48.0725C118.728 47.899 118.918 47.8123 119.137 47.8123C119.361 47.8123 119.531 47.8825 119.648 48.023C119.765 48.1636 119.824 48.3658 119.824 48.6298V48.732ZM123.678 50.8078C124.194 50.8078 124.607 50.687 124.919 50.4453C125.231 50.2037 125.386 49.8859 125.386 49.4921C125.386 49.3494 125.362 49.2174 125.314 49.0961C125.266 48.9747 125.193 48.8672 125.096 48.7735C124.927 48.6075 124.649 48.4499 124.265 48.3009C124.192 48.2732 124.137 48.2519 124.1 48.237C123.709 48.0731 123.457 47.9331 123.344 47.817C123.231 47.701 123.175 47.5546 123.175 47.3779C123.175 47.1352 123.256 46.9431 123.417 46.8015C123.578 46.6599 123.796 46.5891 124.071 46.5891C124.187 46.5891 124.295 46.6003 124.394 46.6227C124.492 46.645 124.584 46.6796 124.668 46.7264L124.764 46.835L124.864 47.4578H125.209V46.4454C125.016 46.3837 124.826 46.3374 124.64 46.3065C124.454 46.2756 124.269 46.2602 124.084 46.2602C123.624 46.2602 123.255 46.3757 122.977 46.6067C122.698 46.8377 122.559 47.1405 122.559 47.5153C122.559 47.7814 122.632 47.998 122.778 48.1651C122.925 48.3323 123.223 48.5127 123.675 48.7065C123.711 48.7214 123.764 48.7437 123.833 48.7735C124.464 49.0397 124.78 49.3398 124.78 49.6741C124.78 49.9147 124.691 50.1058 124.511 50.2473C124.332 50.3889 124.088 50.4597 123.781 50.4597C123.635 50.4597 123.5 50.4469 123.375 50.4214C123.25 50.3958 123.14 50.3586 123.043 50.3096L122.956 50.1978L122.878 49.4474H122.488V50.597C122.645 50.6652 122.825 50.7173 123.028 50.7535C123.231 50.7897 123.448 50.8078 123.678 50.8078ZM127.32 50.7855C127.767 50.7855 128.135 50.6327 128.424 50.3272C128.713 50.0217 128.858 49.6294 128.858 49.1504C128.858 48.6713 128.714 48.2791 128.426 47.9735C128.138 47.668 127.769 47.5153 127.32 47.5153C126.869 47.5153 126.5 47.6675 126.216 47.9719C125.931 48.2764 125.789 48.6692 125.789 49.1504C125.789 49.6315 125.932 50.0243 126.219 50.3288C126.506 50.6332 126.873 50.7855 127.32 50.7855ZM127.32 50.5044C127.047 50.5044 126.827 50.3815 126.659 50.1356C126.491 49.8897 126.408 49.5613 126.408 49.1504C126.408 48.7395 126.491 48.4111 126.657 48.1651C126.824 47.9192 127.045 47.7963 127.32 47.7963C127.595 47.7963 127.817 47.9198 127.986 48.1667C128.154 48.4137 128.239 48.7416 128.239 49.1504C128.239 49.5634 128.155 49.8923 127.987 50.1372C127.82 50.382 127.597 50.5044 127.32 50.5044ZM130.614 50.728V50.4917L130.236 50.4597L130.117 50.3543V45.9153H129.866L129.06 46.1484V46.3528H129.569V50.3543L129.456 50.4597L129.066 50.4917V50.728H130.614ZM132.051 50.7919C132.207 50.7919 132.373 50.7567 132.549 50.6865C132.724 50.6162 132.915 50.5076 133.121 50.3607V50.728H134.098V50.4917L133.788 50.4597L133.669 50.3543V47.5153H133.417L132.65 47.758V47.9624H133.121V50.1787C132.983 50.2447 132.852 50.2937 132.726 50.3256C132.6 50.3575 132.476 50.3735 132.354 50.3735C132.134 50.3735 131.973 50.3176 131.87 50.2058C131.767 50.0941 131.715 49.9189 131.715 49.6805V47.5153H131.464L130.697 47.758V47.9624H131.167V49.7923C131.167 50.1159 131.243 50.3634 131.395 50.5348C131.546 50.7062 131.765 50.7919 132.051 50.7919ZM135.328 50.7471C135.464 50.7471 135.604 50.7349 135.751 50.7104C135.897 50.6859 136.045 50.6503 136.195 50.6034V50.3607C136.114 50.3799 136.035 50.3937 135.958 50.4022C135.882 50.4108 135.809 50.415 135.738 50.415C135.531 50.415 135.388 50.3666 135.309 50.2697C135.229 50.1728 135.19 49.9828 135.19 49.6997V47.9751H136.195V47.6685H135.19V46.9724H134.945L134.661 47.5823L134.226 47.7707V47.9751H134.642V50.0861C134.642 50.3373 134.693 50.5103 134.795 50.605C134.897 50.6998 135.075 50.7471 135.328 50.7471ZM137.062 46.851C137.169 46.851 137.26 46.8148 137.334 46.7424C137.408 46.67 137.445 46.5817 137.445 46.4773C137.445 46.373 137.408 46.2836 137.334 46.2091C137.26 46.1346 137.169 46.0973 137.062 46.0973C136.956 46.0973 136.867 46.134 136.793 46.2075C136.718 46.2809 136.681 46.3709 136.681 46.4773C136.681 46.5817 136.718 46.67 136.793 46.7424C136.867 46.8148 136.956 46.851 137.062 46.851ZM137.761 50.728V50.4917L137.407 50.4597L137.294 50.3543V47.5504H137.036L136.278 47.7835V47.9879H136.739V50.3543L136.627 50.4597L136.278 50.4917V50.728H137.761ZM139.45 50.7855C139.897 50.7855 140.265 50.6327 140.554 50.3272C140.843 50.0217 140.987 49.6294 140.987 49.1504C140.987 48.6713 140.843 48.2791 140.555 47.9735C140.267 47.668 139.899 47.5153 139.45 47.5153C138.998 47.5153 138.63 47.6675 138.346 47.9719C138.061 48.2764 137.918 48.6692 137.918 49.1504C137.918 49.6315 138.062 50.0243 138.349 50.3288C138.636 50.6332 139.003 50.7855 139.45 50.7855ZM139.45 50.5044C139.177 50.5044 138.956 50.3815 138.789 50.1356C138.621 49.8897 138.537 49.5613 138.537 49.1504C138.537 48.7395 138.621 48.4111 138.787 48.1651C138.954 47.9192 139.175 47.7963 139.45 47.7963C139.725 47.7963 139.947 47.9198 140.115 48.1667C140.284 48.4137 140.368 48.7416 140.368 49.1504C140.368 49.5634 140.285 49.8923 140.117 50.1372C139.949 50.382 139.727 50.5044 139.45 50.5044ZM142.656 50.728V50.4917L142.34 50.4597L142.228 50.3543V48.1636C142.37 48.0912 142.502 48.0374 142.624 48.0023C142.747 47.9671 142.861 47.9496 142.966 47.9496C143.207 47.9496 143.378 48.0007 143.48 48.1029C143.582 48.2051 143.633 48.3786 143.633 48.6234V50.3543L143.52 50.4597L143.204 50.4917V50.728H144.649V50.4917L144.294 50.4597L144.181 50.3543V48.5116C144.181 48.188 144.105 47.9411 143.952 47.7707C143.8 47.6004 143.579 47.5153 143.291 47.5153C143.169 47.5153 143.027 47.5445 142.866 47.6031C142.705 47.6616 142.492 47.7633 142.228 47.9081V47.5504H141.976L141.209 47.7835V47.9879H141.68V50.3543L141.567 50.4597L141.209 50.4917V50.728H142.656Z" fill="white"/>
<path fill-rule="evenodd" clip-rule="evenodd" d="M25.4824 24.5664H52.9916V51.8181H25.4824V24.5664ZM45.9565 31.5353L32.516 31.5339V44.8499L32.5116 44.854L32.5117 44.855H45.9627L45.9616 31.5306L45.961 31.5305L45.9565 31.5353Z" fill="white"/>
</svg>
