<svg width="170" height="72" viewBox="0 0 170 72" fill="none" xmlns="http://www.w3.org/2000/svg">
<g opacity="0.8" clip-path="url(#clip0_2167_1047)">
<path opacity="0.5" d="M51.3142 32.0739L42.9494 36.8411L34.6055 32.0739L42.9494 27.29L51.3142 32.0739Z" fill="#F3F3F3"/>
<path d="M41.0901 37.9006L33.6719 42.1465V33.6548L41.0901 37.9006Z" fill="#F3F3F3"/>
<path opacity="0.5" d="M51.3145 43.727L42.9664 48.5108L34.6016 43.727L42.9664 38.9639L51.3145 43.727Z" fill="#F3F3F3"/>
<path d="M32.101 45.0431L42.2712 50.8491C42.7152 51.1015 43.2597 51.1015 43.7037 50.8491L53.92 45.0141C54.875 44.4679 54.8708 43.1105 53.92 42.5684L45.7562 37.917L53.7817 33.3442C54.7368 32.8021 54.7368 31.4406 53.7817 30.8985L43.6912 25.1464C43.2472 24.8939 42.7026 24.8939 42.2628 25.1464L32.101 30.9399C31.657 31.1924 31.3848 31.66 31.3848 32.1648V43.8223C31.3848 44.3272 31.657 44.7907 32.101 45.0431ZM42.9498 27.799L50.4224 32.0531L42.9498 36.3114L35.4771 32.0572L42.9498 27.799ZM40.1978 37.9005L34.12 41.3807V34.4202L40.1978 37.9005ZM42.9498 48.0019L35.4981 43.7478L42.9665 39.4896L50.4392 43.7437L42.9498 48.0019Z" fill="white"/>
<path d="M67.9021 33.7002C68.6519 33.7002 69.3682 33.8947 69.9923 34.2465C70.5829 34.5817 71.3327 34.4741 71.8144 33.9982C72.5097 33.3112 72.3882 32.1442 71.5296 31.6476C70.4405 31.031 69.2048 30.6958 67.9021 30.6958C63.8977 30.6958 60.6641 33.9113 60.6641 37.884C60.6641 41.8402 63.9187 45.0721 67.9021 45.0721C69.1881 45.0721 70.4405 44.7369 71.5296 44.1203C72.3882 43.6279 72.5139 42.4609 71.8144 41.7905C71.3327 41.3146 70.5829 41.207 69.9923 41.5422C69.3682 41.894 68.6352 42.0885 67.9021 42.0885C65.5774 42.0885 63.6841 40.1973 63.6841 37.884C63.6841 35.5873 65.5774 33.7002 67.9021 33.7002ZM85.3648 30.7124C84.5229 30.7124 83.8443 31.3828 83.8443 32.2146V37.8302C83.8443 40.1807 82.3238 42.0843 80.4641 42.0843C78.6043 42.0843 77.0838 40.1766 77.0838 37.8302V32.2146C77.0838 31.3828 76.4052 30.7124 75.5633 30.7124C74.7213 30.7124 74.0428 31.3828 74.0428 32.2146V37.8302C74.0428 41.8195 76.9204 45.0721 80.4431 45.0721C83.9826 45.0721 86.8435 41.8236 86.8435 37.8302V32.2146C86.8853 31.3828 86.2068 30.7124 85.3648 30.7124ZM111.033 30.7124C109.513 30.7124 108.084 31.2048 106.941 32.0201V27.7121C106.941 26.8804 106.262 26.21 105.42 26.21C104.578 26.21 103.9 26.8804 103.9 27.7121V37.884C103.9 41.8402 107.1 45.0721 111.033 45.0721C114.966 45.0721 118.167 41.8567 118.167 37.884C118.15 33.9444 114.95 30.7124 111.033 30.7124ZM111.033 42.105C108.763 42.105 106.941 40.2138 106.941 37.9005C106.941 35.5873 108.784 33.6961 111.033 33.6961C113.303 33.6961 115.142 35.5873 115.142 37.9005C115.13 40.2138 113.287 42.105 111.033 42.105ZM121.241 30.7124C120.399 30.7124 119.721 31.3828 119.721 32.2146V43.5865C119.721 44.4183 120.399 45.0887 121.241 45.0887C122.083 45.0887 122.762 44.4183 122.762 43.5865V32.2146C122.762 31.3828 122.083 30.7124 121.241 30.7124ZM95.3926 30.7124C91.4594 30.7124 88.2592 33.9278 88.2592 37.9005C88.2592 41.8567 91.5851 45.0887 95.6774 45.0887C97.0011 45.0887 98.287 44.7535 99.397 44.1162C100.256 43.6403 100.398 42.4733 99.7195 41.7864C99.2378 41.3105 98.5048 41.1863 97.9142 41.5215C97.2524 41.894 96.4858 42.105 95.6984 42.105C93.8218 42.105 92.2301 40.9753 91.5893 39.4027H101.026C101.868 39.4027 102.547 38.7323 102.547 37.9005C102.526 33.9444 99.3258 30.7124 95.3926 30.7124ZM91.5516 36.3984C92.1422 34.8258 93.6417 33.6961 95.3926 33.6961C97.1435 33.6961 98.6472 34.8258 99.2336 36.3984H91.5516ZM121.241 26.2472C120.399 26.2472 119.721 26.9176 119.721 27.7494C119.721 28.5812 120.399 29.2516 121.241 29.2516C122.083 29.2516 122.762 28.5812 122.762 27.7494C122.762 26.901 122.083 26.2472 121.241 26.2472ZM131.466 30.7124C127.533 30.7124 124.332 33.9278 124.332 37.9005C124.332 41.8567 127.533 45.0887 131.466 45.0887C132.986 45.0887 134.415 44.5962 135.575 43.7645V48.0724C135.575 48.9042 136.253 49.5746 137.095 49.5746C137.937 49.5746 138.616 48.9042 138.616 48.0724V37.9005C138.599 33.9444 135.399 30.7124 131.466 30.7124ZM131.466 42.105C129.195 42.105 127.357 40.2138 127.357 37.9005C127.357 35.5873 129.2 33.6961 131.466 33.6961C133.736 33.6961 135.575 35.5873 135.575 37.9005C135.575 40.2138 133.736 42.105 131.466 42.105Z" fill="white"/>
</g>
<defs>
<clipPath id="clip0_2167_1047">
<rect width="107.231" height="39.7273" fill="white" transform="translate(31.3848 18.1362)"/>
</clipPath>
</defs>
</svg>
