<svg width="161" height="48" viewBox="0 0 161 48" fill="none" xmlns="http://www.w3.org/2000/svg">
<path d="M4.04 16.64H10.04V32H4.04V16.64ZM12.5581 20.24H26.6701V23.84H12.5581V20.24ZM16.7341 16.64H22.4941V32H16.7341V16.64ZM28.2284 20.24H33.9884V32H28.2284V20.24ZM40.1804 24.68C39.1404 24.68 38.1884 24.776 37.3244 24.968C36.4604 25.16 35.7244 25.392 35.1164 25.664C34.5084 25.92 34.0524 26.176 33.7484 26.432L33.7004 25.28C33.7484 24.944 33.8764 24.552 34.0844 24.104C34.2924 23.64 34.5724 23.168 34.9244 22.688C35.2764 22.192 35.7084 21.736 36.2204 21.32C36.7324 20.888 37.3164 20.544 37.9724 20.288C38.6444 20.016 39.3804 19.88 40.1804 19.88V24.68ZM57.9759 27.776H63.6399C63.4959 28.704 63.0319 29.512 62.2479 30.2C61.4799 30.888 60.3519 31.424 58.8639 31.808C57.3919 32.176 55.5119 32.36 53.2239 32.36C50.8079 32.36 48.7199 32.168 46.9599 31.784C45.2159 31.4 43.8719 30.752 42.9279 29.84C41.9839 28.928 41.5119 27.696 41.5119 26.144C41.5119 24.608 41.9679 23.384 42.8799 22.472C43.8079 21.544 45.1439 20.88 46.8879 20.48C48.6319 20.08 50.7439 19.88 53.2239 19.88C55.6559 19.88 57.6479 20.096 59.1999 20.528C60.7519 20.96 61.8959 21.664 62.6319 22.64C63.3679 23.6 63.7199 24.904 63.6879 26.552H47.3679C47.4479 26.968 47.6719 27.352 48.0399 27.704C48.4239 28.056 49.0079 28.344 49.7919 28.568C50.5919 28.776 51.6559 28.88 52.9839 28.88C54.3599 28.88 55.4879 28.784 56.3679 28.592C57.2639 28.4 57.7999 28.128 57.9759 27.776ZM52.9839 23.36C51.2879 23.36 49.9919 23.544 49.0959 23.912C48.2159 24.28 47.6959 24.648 47.5359 25.016H58.0959C57.9839 24.6 57.5359 24.224 56.7519 23.888C55.9679 23.536 54.7119 23.36 52.9839 23.36ZM87.5473 26.888C87.5473 28.04 87.1873 29.024 86.4673 29.84C85.7473 30.656 84.6113 31.28 83.0593 31.712C81.5073 32.144 79.4913 32.36 77.0113 32.36C74.5313 32.36 72.4193 32.16 70.6753 31.76C68.9473 31.36 67.6273 30.704 66.7153 29.792C65.8193 28.88 65.3713 27.664 65.3713 26.144C65.3713 24.624 65.8193 23.408 66.7153 22.496C67.6273 21.568 68.9473 20.904 70.6753 20.504C72.4193 20.088 74.5313 19.88 77.0113 19.88C79.4913 19.88 81.4993 20.096 83.0353 20.528C84.5713 20.96 85.6993 21.584 86.4193 22.4C87.1393 23.216 87.5073 24.192 87.5233 25.328H82.2433C81.9873 24.704 81.4113 24.224 80.5153 23.888C79.6193 23.536 78.4513 23.36 77.0113 23.36C75.8433 23.36 74.8273 23.448 73.9633 23.624C73.0993 23.784 72.4273 24.064 71.9473 24.464C71.4833 24.864 71.2513 25.424 71.2513 26.144C71.2513 26.848 71.4833 27.4 71.9473 27.8C72.4113 28.2 73.0753 28.48 73.9393 28.64C74.8033 28.8 75.8273 28.88 77.0113 28.88C78.4513 28.88 79.6193 28.712 80.5153 28.376C81.4273 28.024 82.0113 27.528 82.2673 26.888H87.5473ZM105.743 32V27.632C105.743 26.912 105.599 26.304 105.311 25.808C105.023 25.312 104.511 24.944 103.775 24.704C103.055 24.448 102.031 24.32 100.703 24.32C99.9506 24.32 99.2146 24.392 98.4946 24.536C97.7906 24.664 97.1506 24.824 96.5746 25.016C96.0146 25.208 95.5666 25.4 95.2306 25.592L95.1826 24.44C95.2466 24.2 95.4626 23.84 95.8306 23.36C96.2146 22.864 96.7666 22.352 97.4866 21.824C98.2066 21.28 99.1106 20.824 100.199 20.456C101.303 20.072 102.607 19.88 104.111 19.88C105.055 19.88 105.967 19.968 106.847 20.144C107.727 20.32 108.511 20.616 109.199 21.032C109.903 21.432 110.463 21.976 110.879 22.664C111.295 23.352 111.503 24.208 111.503 25.232V32H105.743ZM89.7106 32V15.44H95.4706V32H89.7106ZM124.818 32.36C122.274 32.36 120.154 32.152 118.458 31.736C116.778 31.32 115.514 30.656 114.666 29.744C113.834 28.832 113.418 27.632 113.418 26.144C113.418 24.656 113.834 23.456 114.666 22.544C115.514 21.616 116.778 20.944 118.458 20.528C120.154 20.096 122.274 19.88 124.818 19.88C127.346 19.88 129.442 20.096 131.106 20.528C132.786 20.944 134.042 21.616 134.874 22.544C135.706 23.456 136.122 24.656 136.122 26.144C136.122 27.632 135.706 28.832 134.874 29.744C134.042 30.656 132.786 31.32 131.106 31.736C129.442 32.152 127.346 32.36 124.818 32.36ZM124.818 28.88C126.002 28.88 126.994 28.784 127.794 28.592C128.594 28.384 129.202 28.08 129.618 27.68C130.034 27.264 130.242 26.752 130.242 26.144C130.242 25.536 130.034 25.024 129.618 24.608C129.218 24.192 128.618 23.88 127.818 23.672C127.018 23.464 126.018 23.36 124.818 23.36C123.634 23.36 122.626 23.464 121.794 23.672C120.978 23.88 120.354 24.192 119.922 24.608C119.506 25.008 119.298 25.52 119.298 26.144C119.298 26.752 119.506 27.264 119.922 27.68C120.338 28.08 120.954 28.384 121.77 28.592C122.602 28.784 123.618 28.88 124.818 28.88ZM137.913 27.776H143.217C143.441 28.192 143.865 28.48 144.489 28.64C145.129 28.8 146.041 28.88 147.225 28.88C148.137 28.88 148.809 28.832 149.241 28.736C149.689 28.64 149.977 28.512 150.105 28.352C150.249 28.192 150.321 28.024 150.321 27.848C150.321 27.576 150.169 27.392 149.865 27.296C149.577 27.184 149.081 27.12 148.377 27.104C147.673 27.072 146.705 27.056 145.473 27.056C144.305 27.056 143.257 27.008 142.329 26.912C141.417 26.8 140.641 26.632 140.001 26.408C139.361 26.168 138.873 25.84 138.537 25.424C138.201 25.008 138.033 24.488 138.033 23.864C138.033 23.096 138.281 22.456 138.777 21.944C139.273 21.416 139.945 21.008 140.793 20.72C141.641 20.416 142.617 20.2 143.721 20.072C144.841 19.944 146.009 19.88 147.225 19.88C149.241 19.88 150.889 20.088 152.169 20.504C153.449 20.904 154.393 21.448 155.001 22.136C155.609 22.824 155.905 23.6 155.889 24.464H150.729C150.553 24.048 150.217 23.76 149.721 23.6C149.241 23.44 148.409 23.36 147.225 23.36C146.105 23.36 145.289 23.448 144.777 23.624C144.281 23.784 144.033 24.048 144.033 24.416C144.033 24.656 144.153 24.84 144.393 24.968C144.649 25.08 145.121 25.16 145.809 25.208C146.513 25.256 147.537 25.28 148.881 25.28C149.809 25.28 150.713 25.312 151.593 25.376C152.489 25.44 153.289 25.576 153.993 25.784C154.713 25.992 155.281 26.312 155.697 26.744C156.113 27.176 156.321 27.768 156.321 28.52C156.321 29.432 155.945 30.176 155.193 30.752C154.457 31.312 153.409 31.72 152.049 31.976C150.689 32.232 149.081 32.36 147.225 32.36C145.609 32.36 144.241 32.256 143.121 32.048C142.017 31.84 141.113 31.568 140.409 31.232C139.705 30.88 139.161 30.504 138.777 30.104C138.409 29.688 138.161 29.28 138.033 28.88C137.921 28.464 137.881 28.096 137.913 27.776Z" fill="white"/>
</svg>
