<svg width="84" height="84" viewBox="0 0 84 84" fill="none" xmlns="http://www.w3.org/2000/svg">
<path d="M22.6286 39.352V37.354H32.9246V39.352L27.2906 49H24.4826L30.9626 38.452L31.4486 39.352H22.6286ZM40.4386 41.638C41.0026 41.638 41.5366 41.716 42.0406 41.872C42.5446 42.028 42.9886 42.262 43.3726 42.574C43.7686 42.874 44.0746 43.258 44.2906 43.726C44.5186 44.194 44.6326 44.734 44.6326 45.346C44.6326 46.174 44.4226 46.882 44.0026 47.47C43.5826 48.046 42.9946 48.484 42.2386 48.784C41.4826 49.084 40.6006 49.234 39.5926 49.234C38.8726 49.234 38.1946 49.15 37.5586 48.982C36.9226 48.814 36.3526 48.574 35.8486 48.262C35.3566 47.95 34.9666 47.572 34.6786 47.128C34.3906 46.672 34.2346 46.156 34.2106 45.58H36.4426C36.4906 45.952 36.6586 46.27 36.9466 46.534C37.2346 46.786 37.6006 46.978 38.0446 47.11C38.4886 47.242 38.9686 47.308 39.4846 47.308C39.8326 47.308 40.1746 47.272 40.5106 47.2C40.8466 47.116 41.1466 46.996 41.4106 46.84C41.6866 46.684 41.9026 46.48 42.0586 46.228C42.2266 45.976 42.3106 45.676 42.3106 45.328C42.3106 44.98 42.2326 44.68 42.0766 44.428C41.9206 44.176 41.7106 43.966 41.4466 43.798C41.1826 43.63 40.8826 43.51 40.5466 43.438C40.2226 43.354 39.8926 43.312 39.5566 43.312C39.1846 43.312 38.8066 43.348 38.4226 43.42C38.0386 43.48 37.6846 43.594 37.3606 43.762C37.0366 43.93 36.7786 44.158 36.5866 44.446L34.5526 44.068L35.0926 37.3H43.4266V39.298H37.2706L36.9106 43.474L36.6406 43.546C36.8206 43.138 37.1026 42.796 37.4866 42.52C37.8706 42.232 38.3206 42.016 38.8366 41.872C39.3526 41.716 39.8866 41.638 40.4386 41.638ZM49.769 43.006C49.085 43.006 48.485 42.886 47.969 42.646C47.465 42.406 47.075 42.064 46.799 41.62C46.523 41.176 46.385 40.648 46.385 40.036C46.385 39.088 46.691 38.356 47.303 37.84C47.915 37.312 48.737 37.048 49.769 37.048C50.801 37.048 51.617 37.312 52.217 37.84C52.829 38.356 53.135 39.088 53.135 40.036C53.135 40.648 52.997 41.176 52.721 41.62C52.445 42.064 52.055 42.406 51.551 42.646C51.047 42.886 50.453 43.006 49.769 43.006ZM49.769 41.53C50.225 41.53 50.591 41.398 50.867 41.134C51.155 40.858 51.299 40.492 51.299 40.036C51.299 39.568 51.155 39.202 50.867 38.938C50.591 38.662 50.225 38.524 49.769 38.524C49.301 38.524 48.923 38.662 48.635 38.938C48.359 39.202 48.221 39.568 48.221 40.036C48.221 40.492 48.359 40.858 48.635 41.134C48.923 41.398 49.301 41.53 49.769 41.53ZM58.661 49.216C57.629 49.216 56.807 48.958 56.195 48.442C55.583 47.914 55.277 47.182 55.277 46.246C55.277 45.31 55.583 44.578 56.195 44.05C56.807 43.522 57.629 43.258 58.661 43.258C59.681 43.258 60.491 43.522 61.091 44.05C61.703 44.578 62.009 45.31 62.009 46.246C62.009 47.182 61.703 47.914 61.091 48.442C60.491 48.958 59.681 49.216 58.661 49.216ZM58.661 47.74C59.117 47.74 59.483 47.608 59.759 47.344C60.047 47.08 60.191 46.714 60.191 46.246C60.191 45.79 60.047 45.424 59.759 45.148C59.483 44.872 59.117 44.734 58.661 44.734C58.193 44.734 57.815 44.872 57.527 45.148C57.251 45.412 57.113 45.778 57.113 46.246C57.113 46.714 57.251 47.08 57.527 47.344C57.815 47.608 58.193 47.74 58.661 47.74ZM56.861 36.652L57.833 37.192L50.957 49.612L50.021 49.036L56.861 36.652Z" fill="#1A1D27"/>
<circle cx="41.9544" cy="41.9544" r="38.9544" stroke="#6DBA69" stroke-width="3.54706" stroke-linecap="round"/>
<path d="M80.9088 41.9544C80.9088 20.4405 63.4683 3 41.9544 3C20.4405 3 3 20.4405 3 41.9544C3 63.4683 20.4405 80.9088 41.9544 80.9088" stroke="#1A1D27" stroke-width="5.91177" stroke-linecap="round" stroke-linejoin="round"/>
</svg>
