<svg width="22" height="23" viewBox="0 0 22 23" fill="none" xmlns="http://www.w3.org/2000/svg">
<rect y="0.5" width="22" height="22" fill="white"/>
<path d="M11.0621 5.09662C11.0052 5.03976 10.9281 5.00781 10.8477 5.00781C10.7672 5.00781 10.6901 5.03976 10.6332 5.09662L5.78021 9.94962C5.72335 10.0065 5.69141 10.0836 5.69141 10.1641C5.69141 10.2445 5.72335 10.3216 5.78021 10.3785L6.99346 11.5918C7.05034 11.6486 7.12748 11.6806 7.2079 11.6806C7.28833 11.6806 7.36547 11.6486 7.42235 11.5918L9.63441 9.3797V18.0502C9.63441 18.1306 9.66636 18.2078 9.72324 18.2647C9.78013 18.3215 9.85727 18.3535 9.93772 18.3535H11.7576C11.838 18.3535 11.9152 18.3215 11.9721 18.2647C12.029 18.2078 12.0609 18.1306 12.0609 18.0502V9.3797L14.273 11.5918C14.3298 11.6486 14.407 11.6806 14.4874 11.6806C14.5678 11.6806 14.645 11.6486 14.7018 11.5918L15.9151 10.3785C15.972 10.3216 16.0039 10.2445 16.0039 10.1641C16.0039 10.0836 15.972 10.0065 15.9151 9.94962L11.0621 5.09662Z" fill="#E374FF"/>
</svg>
