<svg width="72" height="72" viewBox="0 0 72 72" fill="none" xmlns="http://www.w3.org/2000/svg">
<circle cx="36" cy="36" r="36" fill="#1A1D27" fill-opacity="0.9"/>
<g clip-path="url(#clip0_1649_3559)">
<path d="M32.25 42.625H31C29.7937 42.625 28.8125 43.6062 28.8125 44.8125V49.8125C28.8125 51.0188 29.7937 52 31 52H32.25C33.4563 52 34.4375 51.0188 34.4375 49.8125V44.8125C34.4375 43.6062 33.4563 42.625 32.25 42.625ZM32.5625 49.8125C32.5625 49.9849 32.4224 50.125 32.25 50.125H31C30.8276 50.125 30.6875 49.9849 30.6875 49.8125V44.8125C30.6875 44.6401 30.8276 44.5 31 44.5H32.25C32.4224 44.5 32.5625 44.6401 32.5625 44.8125V49.8125Z" fill="white"/>
<path d="M24.75 50.125H23.8125V43.5625C23.8125 43.0447 23.3928 42.625 22.875 42.625H21C20.4822 42.625 20.0625 43.0447 20.0625 43.5625C20.0625 44.0803 20.4822 44.5 21 44.5H21.9375V50.125H21C20.4822 50.125 20.0625 50.5447 20.0625 51.0625C20.0625 51.5803 20.4822 52 21 52H24.75C25.2678 52 25.6875 51.5803 25.6875 51.0625C25.6875 50.5447 25.2678 50.125 24.75 50.125Z" fill="white"/>
<path d="M49.75 42.625H48.5C47.2937 42.625 46.3125 43.6062 46.3125 44.8125V49.8125C46.3125 51.0188 47.2937 52 48.5 52H49.75C50.9563 52 51.9375 51.0188 51.9375 49.8125V44.8125C51.9375 43.6062 50.9563 42.625 49.75 42.625ZM50.0625 49.8125C50.0625 49.9849 49.9224 50.125 49.75 50.125H48.5C48.3276 50.125 48.1875 49.9849 48.1875 49.8125V44.8125C48.1875 44.6401 48.3276 44.5 48.5 44.5H49.75C49.9224 44.5 50.0625 44.6401 50.0625 44.8125V49.8125Z" fill="white"/>
<path d="M42.25 50.125H41.3125V43.5625C41.3125 43.0447 40.8928 42.625 40.375 42.625H38.5C37.9822 42.625 37.5625 43.0447 37.5625 43.5625C37.5625 44.0803 37.9822 44.5 38.5 44.5H39.4375V50.125H38.5C37.9822 50.125 37.5625 50.5447 37.5625 51.0625C37.5625 51.5803 37.9822 52 38.5 52H42.25C42.7678 52 43.1875 51.5803 43.1875 51.0625C43.1875 50.5447 42.7678 50.125 42.25 50.125Z" fill="white"/>
<path d="M32.25 31.3125H31C29.7937 31.3125 28.8125 32.2937 28.8125 33.5V38.5C28.8125 39.7063 29.7937 40.6875 31 40.6875H32.25C33.4563 40.6875 34.4375 39.7063 34.4375 38.5V33.5C34.4375 32.2937 33.4563 31.3125 32.25 31.3125ZM32.5625 38.5C32.5625 38.6724 32.4224 38.8125 32.25 38.8125H31C30.8276 38.8125 30.6875 38.6724 30.6875 38.5V33.5C30.6875 33.3276 30.8276 33.1875 31 33.1875H32.25C32.4224 33.1875 32.5625 33.3276 32.5625 33.5V38.5Z" fill="white"/>
<path d="M24.75 38.8125H23.8125V32.25C23.8125 31.7322 23.3928 31.3125 22.875 31.3125H21C20.4822 31.3125 20.0625 31.7322 20.0625 32.25C20.0625 32.7678 20.4822 33.1875 21 33.1875H21.9375V38.8125H21C20.4822 38.8125 20.0625 39.2322 20.0625 39.75C20.0625 40.2678 20.4822 40.6875 21 40.6875H24.75C25.2678 40.6875 25.6875 40.2678 25.6875 39.75C25.6875 39.2322 25.2678 38.8125 24.75 38.8125Z" fill="white"/>
<path d="M41 31.3125H39.75C38.5437 31.3125 37.5625 32.2937 37.5625 33.5V38.5C37.5625 39.7063 38.5437 40.6875 39.75 40.6875H41C42.2063 40.6875 43.1875 39.7063 43.1875 38.5V33.5C43.1875 32.2937 42.2063 31.3125 41 31.3125ZM41.3125 38.5C41.3125 38.6724 41.1724 38.8125 41 38.8125H39.75C39.5776 38.8125 39.4375 38.6724 39.4375 38.5V33.5C39.4375 33.3276 39.5776 33.1875 39.75 33.1875H41C41.1724 33.1875 41.3125 33.3276 41.3125 33.5V38.5Z" fill="white"/>
<path d="M51 38.8125H50.0625V32.25C50.0625 31.7322 49.6428 31.3125 49.125 31.3125H47.25C46.7322 31.3125 46.3125 31.7322 46.3125 32.25C46.3125 32.7678 46.7322 33.1875 47.25 33.1875H48.1875V38.8125H47.25C46.7322 38.8125 46.3125 39.2322 46.3125 39.75C46.3125 40.2678 46.7322 40.6875 47.25 40.6875H51C51.5178 40.6875 51.9375 40.2678 51.9375 39.75C51.9375 39.2322 51.5178 38.8125 51 38.8125Z" fill="white"/>
<path d="M23.5 20H22.25C21.0437 20 20.0625 20.9812 20.0625 22.1875V27.1875C20.0625 28.3938 21.0437 29.375 22.25 29.375H23.5C24.7063 29.375 25.6875 28.3938 25.6875 27.1875V22.1875C25.6875 20.9812 24.7063 20 23.5 20ZM23.8125 27.1875C23.8125 27.3599 23.6724 27.5 23.5 27.5H22.25C22.0776 27.5 21.9375 27.3599 21.9375 27.1875V22.1875C21.9375 22.0151 22.0776 21.875 22.25 21.875H23.5C23.6724 21.875 23.8125 22.0151 23.8125 22.1875V27.1875Z" fill="white"/>
<path d="M33.5 27.5H32.5625V20.9375C32.5625 20.4197 32.1428 20 31.625 20H29.75C29.2322 20 28.8125 20.4197 28.8125 20.9375C28.8125 21.4553 29.2322 21.875 29.75 21.875H30.6875V27.5H29.75C29.2322 27.5 28.8125 27.9197 28.8125 28.4375C28.8125 28.9553 29.2322 29.375 29.75 29.375H33.5C34.0178 29.375 34.4375 28.9553 34.4375 28.4375C34.4375 27.9197 34.0178 27.5 33.5 27.5Z" fill="white"/>
<path d="M49.75 20H48.5C47.2937 20 46.3125 20.9812 46.3125 22.1875V27.1875C46.3125 28.3938 47.2937 29.375 48.5 29.375H49.75C50.9563 29.375 51.9375 28.3938 51.9375 27.1875V22.1875C51.9375 20.9812 50.9563 20 49.75 20ZM50.0625 27.1875C50.0625 27.3599 49.9224 27.5 49.75 27.5H48.5C48.3276 27.5 48.1875 27.3599 48.1875 27.1875V22.1875C48.1875 22.0151 48.3276 21.875 48.5 21.875H49.75C49.9224 21.875 50.0625 22.0151 50.0625 22.1875V27.1875Z" fill="white"/>
<path d="M42.25 27.5H41.3125V20.9375C41.3125 20.4197 40.8928 20 40.375 20H38.5C37.9822 20 37.5625 20.4197 37.5625 20.9375C37.5625 21.4553 37.9822 21.875 38.5 21.875H39.4375V27.5H38.5C37.9822 27.5 37.5625 27.9197 37.5625 28.4375C37.5625 28.9553 37.9822 29.375 38.5 29.375H42.25C42.7678 29.375 43.1875 28.9553 43.1875 28.4375C43.1875 27.9197 42.7678 27.5 42.25 27.5Z" fill="white"/>
</g>
<defs>
<clipPath id="clip0_1649_3559">
<rect width="32" height="32" fill="white" transform="translate(20 20)"/>
</clipPath>
</defs>
</svg>
