<svg width="72" height="72" viewBox="0 0 72 72" fill="none" xmlns="http://www.w3.org/2000/svg">
<circle cx="36" cy="36" r="36" fill="#1A1D27" fill-opacity="0.9"/>
<path d="M42.25 41.25H39.4375V40.3732C40.2006 39.9558 40.8802 39.4041 41.4442 38.75H43.5C45.3954 38.75 46.9375 37.2079 46.9375 35.3125V32.1875C46.9375 30.9654 46.1536 29.9241 45.0625 29.5372V29.0625C45.0625 24.0654 40.9971 20 36 20C31.0029 20 26.9375 24.0654 26.9375 29.0625V29.5363C25.8463 29.9233 25.0625 30.9653 25.0625 32.1875C25.0625 33.7383 26.3242 35 27.875 35H28.8736C29.1771 37.3197 30.5909 39.2949 32.5625 40.3732V41.25H29.75C25.4422 41.25 21.9375 44.7547 21.9375 49.0625V51.0625C21.9375 51.5802 22.3572 52 22.875 52H49.125C49.6427 52 50.0625 51.5802 50.0625 51.0625V49.0625C50.0625 44.7547 46.5578 41.25 42.25 41.25ZM45.0625 35.3125C45.0625 36.1741 44.3616 36.875 43.5 36.875H42.6141C42.8656 36.2859 43.0404 35.6568 43.1264 35H45.0625V35.3125ZM45.0625 32.1875V33.125H43.1875V31.25H44.125C44.6419 31.25 45.0625 31.6706 45.0625 32.1875ZM28.8125 33.125H27.875C27.3581 33.125 26.9375 32.7044 26.9375 32.1875C26.9375 31.6706 27.3581 31.25 27.875 31.25H28.8125V33.125ZM28.8125 29.375V29.0625C28.8125 25.0993 32.0368 21.875 36 21.875C39.9632 21.875 43.1875 25.0993 43.1875 29.0625V29.375H42.5789L39.7106 27.0804C39.3376 26.782 38.7999 26.8118 38.4621 27.1496C37.0271 28.5846 35.119 29.375 33.0895 29.375H28.8125ZM30.6875 34.0625V31.25H33.0895C35.3366 31.25 37.4644 30.4727 39.1658 29.0456L41.3125 30.7631V34.0625C41.3125 35.0949 41.0155 36.0587 40.5039 36.875H36.625C36.1073 36.875 35.6875 37.2948 35.6875 37.8125C35.6875 38.3302 36.1073 38.75 36.625 38.75H38.4967C37.7519 39.1483 36.9021 39.375 36 39.375C33.0707 39.375 30.6875 36.9918 30.6875 34.0625ZM37.5625 41.0784V42.1875C37.5625 43.0491 36.8616 43.75 36 43.75C35.1384 43.75 34.4375 43.0491 34.4375 42.1875V41.0784C34.9408 41.1904 35.4635 41.25 36 41.25C36.5365 41.25 37.0592 41.1904 37.5625 41.0784ZM48.1875 50.125H23.8125V49.0625C23.8125 45.7886 26.4761 43.125 29.75 43.125H32.6935C33.1027 44.5661 34.4296 45.625 36 45.625C37.5704 45.625 38.8972 44.5661 39.3065 43.125H42.25C45.5239 43.125 48.1875 45.7886 48.1875 49.0625V50.125Z" fill="white"/>
</svg>
