<svg width="72" height="72" viewBox="0 0 72 72" fill="none" xmlns="http://www.w3.org/2000/svg">
<circle cx="36" cy="36" r="36" fill="#1A1D27" fill-opacity="0.9"/>
<path d="M41.165 23.6067L41.1652 23.6068C46.078 25.72 49.25 30.5862 49.25 35.9994C49.25 39.5918 47.8723 42.9708 45.37 45.5123C43.0365 47.8823 39.9837 49.2599 36.7109 49.4345V50.5307C36.7109 50.8193 36.5399 51.0823 36.273 51.1947L36.2729 51.1947C36.1848 51.2318 36.0918 51.25 35.9994 51.25C35.8136 51.25 35.6308 51.1765 35.4947 51.0383L33.6048 49.1205L41.165 23.6067ZM41.165 23.6067C40.8002 23.4501 40.3825 23.6247 40.23 23.989C40.078 24.3522 40.2445 24.7739 40.6067 24.9303L40.607 24.9304C44.9905 26.8168 47.8258 31.1604 47.8258 36C47.8258 42.3859 42.8989 47.6191 36.7115 47.994M41.165 23.6067L36.7115 47.994M36.7115 47.994V46.6928C36.7115 46.4042 36.5404 46.1412 36.2736 46.0288L36.2733 46.0287C36.0051 45.9161 35.698 45.9793 35.4948 46.1857L33.6042 48.1058C33.4715 48.2406 33.3968 48.4232 33.3968 48.6129C33.3968 48.8016 33.4703 48.9845 33.6043 49.12L36.7115 47.994ZM31.3915 47.0703L31.3913 47.0702C27.0084 45.1838 24.1742 40.8396 24.1742 35.9994C24.1742 29.614 29.101 24.382 35.2885 24.0066V25.3078C35.2885 25.5965 35.4597 25.8595 35.7273 25.9719C35.8154 26.0089 35.9083 26.0271 36.0006 26.0271C36.1866 26.0271 36.3693 25.9534 36.5058 25.8148L36.5059 25.8147L38.3946 23.8947C38.6712 23.6138 38.6702 23.1605 38.3946 22.8806L38.3946 22.8805L36.5047 20.9622C36.3015 20.7559 35.9937 20.6925 35.7258 20.8053C35.459 20.9177 35.2879 21.1807 35.2879 21.4693V22.5655C32.0151 22.7406 28.9624 24.1176 26.6289 26.4876L26.6288 26.4877C24.1277 29.0286 22.75 32.4076 22.75 35.9994C22.75 41.4131 25.9214 46.2799 30.8331 48.3937L30.8335 48.3939C30.923 48.4322 31.0176 48.4516 31.1119 48.4516C31.391 48.4516 31.6536 48.2854 31.7682 48.0124L31.7685 48.0115C31.9191 47.6488 31.7544 47.2269 31.3915 47.0703ZM40.219 42.4857L40.219 42.4857C41.4717 41.8779 42.2423 40.987 42.2423 39.9404V32.0595C42.2423 31.0143 41.47 30.1241 40.2155 29.5155L40.2155 29.5154C39.0669 28.9586 37.5694 28.6578 35.9994 28.6578C34.4294 28.6578 32.9325 28.9586 31.7834 29.5154L31.7834 29.5154C30.5287 30.1235 29.7565 31.0144 29.7565 32.0595V39.9404C29.7565 40.987 30.5272 41.8779 31.7798 42.4857L31.7799 42.4857C32.9268 43.042 34.4256 43.3422 35.9988 43.3422C37.5721 43.3422 39.072 43.042 40.219 42.4857ZM31.1813 34.2657C31.3663 34.3858 31.5675 34.4987 31.7839 34.6036L31.7839 34.6036C32.9325 35.1604 34.43 35.4613 36 35.4613C37.57 35.4613 39.0675 35.1604 40.2161 34.6036L40.2161 34.6036C40.4325 34.4987 40.6337 34.3858 40.8187 34.2657V36.0175C40.8187 36.194 40.7304 36.4049 40.5149 36.6336C40.3005 36.8611 39.9756 37.0885 39.5477 37.2907C38.693 37.6946 37.4635 37.9806 36 37.9806C34.5365 37.9806 33.307 37.6945 32.4523 37.2905C32.0244 37.0883 31.6995 36.8608 31.4851 36.6333C31.2696 36.4047 31.1813 36.1938 31.1813 36.0175V34.2657ZM36.885 23.3877L36.7121 23.5634V23.2121L36.885 23.3877ZM35.114 48.6122L35.2879 48.4356V48.7887L35.114 48.6122ZM36 30.0964C37.4635 30.0964 38.693 30.3826 39.5477 30.7866C39.9756 30.9888 40.3005 31.2163 40.5149 31.4437C40.7304 31.6724 40.8187 31.8832 40.8187 32.0595C40.8187 32.2358 40.7304 32.4466 40.5149 32.6753C40.3005 32.9028 39.9756 33.1303 39.5477 33.3325C38.693 33.7365 37.4635 34.0226 36 34.0226C34.5365 34.0226 33.307 33.7365 32.4523 33.3325C32.0244 33.1303 31.6995 32.9028 31.4851 32.6753C31.2696 32.4466 31.1813 32.2358 31.1813 32.0595C31.1813 31.8832 31.2696 31.6724 31.4851 31.4437C31.6995 31.2163 32.0244 30.9888 32.4523 30.7866C33.307 30.3826 34.5365 30.0964 36 30.0964ZM31.1813 39.9404V38.2265C31.3654 38.3461 31.5657 38.4584 31.781 38.5628C32.928 39.1191 34.4267 39.4193 36 39.4193C37.5733 39.4193 39.072 39.1191 40.219 38.5628C40.4343 38.4584 40.6346 38.3461 40.8187 38.2265V39.9404C40.8187 40.1169 40.7304 40.3278 40.5149 40.5565C40.3005 40.7839 39.9756 41.0114 39.5477 41.2136C38.693 41.6175 37.4635 41.9035 36 41.9035C34.5365 41.9035 33.307 41.6175 32.4523 41.2136C32.0244 41.0114 31.6995 40.7839 31.4851 40.5565C31.2696 40.3278 31.1813 40.1169 31.1813 39.9404Z" fill="white" stroke="white" stroke-width="0.5"/>
</svg>
