<svg width="72" height="72" viewBox="0 0 72 72" fill="none" xmlns="http://www.w3.org/2000/svg">
<circle cx="36" cy="36" r="36" fill="#1A1D27" fill-opacity="0.9"/>
<g clip-path="url(#clip0_1649_3584)">
<path d="M47.118 35.8027H51.0625C51.5802 35.8027 52 35.383 52 34.8652C52 34.3475 51.5802 33.9277 51.0625 33.9277H47.4907C47.9399 31.0954 47.7315 29.1795 47.7196 29.0762C47.6771 28.7057 47.4191 28.3957 47.0625 28.2867C45.6379 27.8509 44.3966 27.4082 43.3167 26.9745V24.6567H46.5362C46.9232 25.7479 47.9653 26.5317 49.1875 26.5317C50.7383 26.5317 52 25.2701 52 23.7192C52 22.1684 50.7383 20.9067 49.1875 20.9067C47.9653 20.9067 46.9232 21.6906 46.5362 22.7817H42.3792C41.8614 22.7817 41.4417 23.2015 41.4417 23.7192V26.159C37.9669 24.5184 36.8149 23.1728 36.7455 23.0889C36.3712 22.5736 35.6291 22.5731 35.2545 23.0889C35.1852 23.1728 34.0331 24.5184 30.5583 26.159V23.7192C30.5583 23.2015 30.1386 22.7817 29.6208 22.7817H25.4637C25.0767 21.6906 24.0347 20.9067 22.8125 20.9067C21.2617 20.9067 20 22.1684 20 23.7192C20 25.2701 21.2617 26.5317 22.8125 26.5317C24.0347 26.5317 25.0767 25.7479 25.4637 24.6567H28.6833V26.9745C27.6034 27.4082 26.3622 27.8509 24.9375 28.2867C24.5809 28.3957 24.3229 28.7057 24.2804 29.0762C24.2685 29.1795 24.0601 31.0954 24.5093 33.9277H20.9375C20.4197 33.9277 20 34.3475 20 34.8652C20 35.383 20.4197 35.8027 20.9375 35.8027H24.882C25.0903 36.6737 25.337 37.5056 25.6447 38.3681H23.0694C22.5516 38.3681 22.1319 38.7879 22.1319 39.3056C22.1319 39.8234 22.5516 40.2431 23.0694 40.2431H26.4015C27.2091 42.0287 28.1972 43.6591 29.3769 45.1851H25.4637C25.0767 44.0939 24.0347 43.3101 22.8125 43.3101C21.2617 43.3101 20 44.5717 20 46.1226C20 47.6734 21.2617 48.9351 22.8125 48.9351C24.0347 48.9351 25.0767 48.1512 25.4637 47.0601H30.9758C32.2963 48.4681 33.7957 49.7612 35.4636 50.9247C35.7858 51.1496 36.2142 51.1496 36.5364 50.9247C38.2043 49.7612 39.7037 48.4681 41.0242 47.0601H46.5362C46.9232 48.1512 47.9653 48.9351 49.1875 48.9351C50.7383 48.9351 52 47.6734 52 46.1226C52 44.5717 50.7383 43.3101 49.1875 43.3101C47.9653 43.3101 46.9232 44.0939 46.5362 45.1851H42.6231C43.8012 43.6612 44.7898 42.0311 45.5985 40.2431H48.9306C49.4484 40.2431 49.8681 39.8234 49.8681 39.3056C49.8681 38.7879 49.4484 38.3681 48.9306 38.3681H46.3553C46.6628 37.5063 46.9096 36.6744 47.118 35.8027ZM49.1875 22.7817C49.7044 22.7817 50.125 23.2023 50.125 23.7192C50.125 24.2362 49.7044 24.6567 49.1875 24.6567C48.6706 24.6567 48.25 24.2362 48.25 23.7192C48.25 23.2023 48.6706 22.7817 49.1875 22.7817ZM22.8125 24.6567C22.2956 24.6567 21.875 24.2362 21.875 23.7192C21.875 23.2023 22.2956 22.7817 22.8125 22.7817C23.3294 22.7817 23.75 23.2023 23.75 23.7192C23.75 24.2362 23.3294 24.6567 22.8125 24.6567ZM22.8125 47.0601C22.2956 47.0601 21.875 46.6395 21.875 46.1226C21.875 45.6056 22.2956 45.1851 22.8125 45.1851C23.3294 45.1851 23.75 45.6056 23.75 46.1226C23.75 46.6395 23.3294 47.0601 22.8125 47.0601ZM49.1875 45.1851C49.7044 45.1851 50.125 45.6056 50.125 46.1226C50.125 46.6395 49.7044 47.0601 49.1875 47.0601C48.6706 47.0601 48.25 46.6395 48.25 46.1226C48.25 45.6056 48.6706 45.1851 49.1875 45.1851ZM35.9998 49.0037C31.6006 45.7856 28.4441 41.5644 26.9494 36.3002C26.1166 33.3669 26.0727 30.9554 26.1077 29.8856C29.2976 28.8691 33.4694 27.1983 36 24.9796C38.5224 27.1911 42.7109 28.8719 45.8936 29.886C45.9569 31.7287 45.6982 33.9879 45.0731 36.2205C44.0778 39.7749 41.6952 44.83 35.9998 49.0037Z" fill="white"/>
<path d="M40.0133 33.6232V33.0131C40.0133 30.8 38.2128 28.9995 35.9998 28.9995C33.7867 28.9995 31.9862 30.8 31.9862 33.0131V33.6232C31.3201 33.8566 30.8408 34.4913 30.8408 35.2361V40.6051C30.8408 41.5473 31.6074 42.3139 32.5496 42.3139H39.4498C40.3921 42.3139 41.1586 41.5473 41.1586 40.6051V35.2361C41.1586 34.4913 40.6794 33.8566 40.0133 33.6232ZM35.9998 30.8745C37.1789 30.8745 38.1383 31.8339 38.1383 33.0131V33.5273H33.8612V33.0131C33.8612 31.8339 34.8206 30.8745 35.9998 30.8745ZM39.2836 40.4388H32.7159V35.4023H39.2837V40.4388H39.2836Z" fill="white"/>
<path d="M36 36.6523C35.4822 36.6523 35.0625 37.0721 35.0625 37.5898V38.2514C35.0625 38.7692 35.4822 39.1889 36 39.1889C36.5178 39.1889 36.9375 38.7692 36.9375 38.2514V37.5898C36.9375 37.072 36.5178 36.6523 36 36.6523Z" fill="white"/>
</g>
<defs>
<clipPath id="clip0_1649_3584">
<rect width="32" height="32" fill="white" transform="translate(20 20)"/>
</clipPath>
</defs>
</svg>
