<svg width="72" height="72" viewBox="0 0 72 72" fill="none" xmlns="http://www.w3.org/2000/svg">
<circle cx="36" cy="36" r="36" fill="#1A1D27" fill-opacity="0.9"/>
<g clip-path="url(#clip0_1649_3543)">
<path d="M41.0824 37.4604L43.9955 38.0385C44.0978 39.6755 45.5078 40.9194 47.1447 40.817C48.7817 40.7147 50.0256 39.3047 49.9233 37.6678C49.8209 36.0308 48.411 34.7869 46.774 34.8892C45.7128 34.9556 44.7681 35.5842 44.297 36.5375L41.2825 35.9393C41.2498 34.7974 40.808 33.7054 40.0376 32.8619L44.1012 27.1216C45.9829 27.9377 48.1698 27.0738 48.9859 25.1922C49.8019 23.3106 48.9381 21.1236 47.0565 20.3075C45.1749 19.4915 42.9878 20.3553 42.1718 22.2369C41.5863 23.587 41.8531 25.1555 42.8523 26.2359L38.8369 31.9083C36.9158 30.8301 34.5064 31.2073 33.0067 32.8209L27.7448 28.7346C28.4396 27.2451 27.7953 25.4745 26.3058 24.7797C24.8163 24.0849 23.0457 24.7292 22.351 26.2187C21.6562 27.7082 22.3005 29.4788 23.7899 30.1736C24.7562 30.6243 25.8899 30.5236 26.7616 29.9096L32.1522 34.0958C31.2863 35.9871 31.7448 38.2215 33.2858 39.6187L30.0567 44.1853C28.1505 43.1226 25.7436 43.8063 24.6808 45.7126C23.6181 47.6188 24.3018 50.0257 26.2081 51.0885C28.1143 52.1512 30.5212 51.4675 31.584 49.5612C32.3632 48.1636 32.2226 46.434 31.228 45.1805L34.5693 40.4547C35.7335 40.9711 37.056 41.0002 38.2419 40.5354L42.2363 46.4361C41.0147 47.8273 41.1524 49.9453 42.5435 51.1667C43.9348 52.3882 46.0528 52.2506 47.2742 50.8594C48.4957 49.4682 48.3581 47.3502 46.9669 46.1288C46.0103 45.2889 44.6606 45.0633 43.4829 45.5465L39.5621 39.7545C40.2821 39.1547 40.8107 38.3572 41.0824 37.4604ZM46.958 36.4144C47.7521 36.4144 48.3959 37.0582 48.3959 37.8523C48.3959 38.6465 47.7521 39.2903 46.958 39.2903C46.1638 39.2903 45.52 38.6465 45.52 37.8523C45.5207 37.0584 46.1641 36.415 46.958 36.4144ZM45.5688 21.549C46.7687 21.5491 47.7414 22.5218 47.7413 23.7217C47.7412 24.9215 46.7685 25.8943 45.5686 25.8942C44.3688 25.8941 43.3962 24.9215 43.3962 23.7216C43.3976 22.5222 44.3695 21.5503 45.5688 21.549ZM25.0533 28.9211C24.2595 28.9201 23.6163 28.2769 23.6153 27.4831C23.6153 26.689 24.2591 26.0452 25.0533 26.0452C25.8474 26.0452 26.4912 26.689 26.4912 27.4831C26.4912 28.2773 25.8475 28.9211 25.0533 28.9211ZM28.1424 50.0381C26.8113 50.038 25.7323 48.959 25.7324 47.628C25.7325 46.2969 26.8115 45.2179 28.1425 45.218C29.4735 45.2181 30.5525 46.2971 30.5525 47.628C30.551 48.9585 29.4728 50.0366 28.1424 50.0381ZM44.7546 46.8269C45.7631 46.828 46.5803 47.6452 46.5814 48.6536C46.5814 49.6626 45.7635 50.4804 44.7546 50.4804C43.7457 50.4804 42.9278 49.6626 42.9278 48.6536C42.9278 47.6447 43.7458 46.8269 44.7546 46.8269ZM36.5023 39.3334C34.7069 39.3314 33.2518 37.8764 33.2498 36.0809C33.2498 34.2846 34.706 32.8283 36.5023 32.8283C38.2987 32.8283 39.7549 34.2846 39.7549 36.0809C39.7549 37.8772 38.2987 39.3334 36.5023 39.3334Z" fill="white"/>
</g>
<defs>
<clipPath id="clip0_1649_3543">
<rect width="32" height="32" fill="white" transform="translate(20 20)"/>
</clipPath>
</defs>
</svg>
