<svg width="72" height="72" viewBox="0 0 72 72" fill="none" xmlns="http://www.w3.org/2000/svg">
<circle cx="36" cy="36" r="36" fill="#1A1D27" fill-opacity="0.9"/>
<g clip-path="url(#clip0_1649_2805)">
<path d="M31.7951 34.5297H32.1251C32.4751 34.5297 32.7651 34.8147 32.7651 35.1697C32.7651 35.4397 32.9851 35.6597 33.2551 35.6597C33.5251 35.6597 33.7451 35.4397 33.7451 35.1697C33.7451 34.2797 33.0201 33.5547 32.1301 33.5547H31.8001C30.9101 33.5547 30.1851 34.2797 30.1851 35.1697V37.1547C30.1851 38.0447 30.9101 38.7697 31.8001 38.7697H32.1301C33.0201 38.7697 33.7451 38.0447 33.7451 37.1547V36.8097C33.7451 36.5397 33.5251 36.3197 33.2551 36.3197C32.9851 36.3197 32.7651 36.5397 32.7651 36.8097V37.1547C32.7651 37.5047 32.4801 37.7947 32.1251 37.7947H31.7951C31.4451 37.7947 31.1551 37.5097 31.1551 37.1547V35.1697C31.1551 34.8147 31.4401 34.5297 31.7951 34.5297Z" fill="white"/>
<path d="M36.0798 33.5498H34.7048C34.4348 33.5498 34.2148 33.7698 34.2148 34.0398V38.2748C34.2148 38.5448 34.4348 38.7648 34.7048 38.7648C34.9748 38.7648 35.1948 38.5448 35.1948 38.2748V36.9148H36.0798C36.5298 36.9148 36.9498 36.7398 37.2698 36.4198C37.5898 36.0998 37.7648 35.6798 37.7648 35.2298C37.7648 34.3048 37.0098 33.5498 36.0798 33.5498ZM35.1948 34.5298H36.0798C36.4698 34.5298 36.7848 34.8448 36.7848 35.2348C36.7848 35.4248 36.7098 35.5998 36.5798 35.7348C36.4448 35.8698 36.2698 35.9398 36.0798 35.9398H35.1948V34.5298Z" fill="white"/>
<path d="M41.3299 33.2397C41.0599 33.2397 40.8399 33.4597 40.8399 33.7297V36.9597C40.8399 37.4197 40.4649 37.7947 40.0049 37.7947C39.5449 37.7947 39.1699 37.4197 39.1699 36.9597V33.7297C39.1699 33.4597 38.9499 33.2397 38.6799 33.2397C38.4099 33.2397 38.1899 33.4597 38.1899 33.7297V36.9597C38.1899 37.9597 38.9999 38.7697 39.9999 38.7697C40.9999 38.7697 41.8099 37.9597 41.8099 36.9597V33.7297C41.8199 33.4547 41.5999 33.2397 41.3299 33.2397Z" fill="white"/>
<path d="M51.37 35.4999H43.935V34.4599H45.94C46.21 34.4599 46.43 34.2399 46.43 33.9699C46.43 33.6999 46.21 33.4799 45.94 33.4799H43.935V32.5199H45.76C45.89 32.5199 46.01 32.4699 46.1 32.3799L49.345 29.2099C49.605 29.3549 49.905 29.4349 50.21 29.4349C51.2 29.4349 52 28.6299 52 27.6399C52 26.6499 51.195 25.8499 50.21 25.8499C49.22 25.8499 48.415 26.6549 48.415 27.6399C48.415 27.9599 48.5 28.2599 48.655 28.5249L45.565 31.5399H43.935V29.8299C43.935 28.9149 43.19 28.1699 42.275 28.1699H40.46V26.5449L43.48 23.4549C43.75 23.6099 44.045 23.6949 44.36 23.6949C45.35 23.6949 46.155 22.8899 46.155 21.9049C46.155 20.9149 45.35 20.1099 44.36 20.1099C43.37 20.1099 42.57 20.9149 42.57 21.9049C42.57 22.2099 42.65 22.5049 42.79 22.7599L39.62 26.0149C39.535 26.1099 39.49 26.2299 39.49 26.3499V28.1749H38.53V26.1749C38.53 25.9049 38.31 25.6849 38.04 25.6849C37.77 25.6849 37.55 25.9049 37.55 26.1749V28.1749H36.51V20.7349C36.51 20.4649 36.29 20.2449 36.02 20.2449C35.75 20.2449 35.53 20.4649 35.53 20.7349V28.1749H34.49V26.1749C34.49 25.9049 34.27 25.6849 34 25.6849C33.73 25.6849 33.51 25.9049 33.51 26.1749V28.1749H32.55V24.6349C33.33 24.4199 33.9 23.6999 33.9 22.8699C33.9 21.8549 33.075 21.0349 32.065 21.0349C31.05 21.0349 30.225 21.8599 30.225 22.8699C30.225 23.7049 30.805 24.4299 31.575 24.6349V28.1749H29.725C28.81 28.1749 28.065 28.9199 28.065 29.8349V31.5449H26.44L23.35 28.5249C23.505 28.2599 23.585 27.9599 23.585 27.6449C23.585 26.6549 22.78 25.8549 21.795 25.8549C20.805 25.8499 20 26.6549 20 27.6449C20 28.6349 20.805 29.4399 21.79 29.4399C22.095 29.4399 22.39 29.3599 22.65 29.2149L25.895 32.3849C25.985 32.4749 26.11 32.5249 26.235 32.5249H28.06V33.4849H26.06C25.79 33.4849 25.57 33.7049 25.57 33.9749C25.57 34.2449 25.79 34.4649 26.06 34.4649H28.06V35.4999H20.625C20.355 35.4999 20.135 35.7199 20.135 35.9899C20.135 36.2599 20.355 36.4799 20.625 36.4799H28.065V37.5199H26.065C25.795 37.5199 25.575 37.7399 25.575 38.0099C25.575 38.2799 25.795 38.4999 26.065 38.4999H28.065V39.4599H24.53C24.31 38.6749 23.59 38.1049 22.765 38.1049C21.75 38.1049 20.925 38.9299 20.925 39.9449C20.925 40.9599 21.75 41.7849 22.765 41.7849C23.595 41.7849 24.315 41.2099 24.53 40.4299H28.065V42.1699C28.065 43.0849 28.81 43.8299 29.725 43.8299H31.575V47.3699C30.795 47.5849 30.225 48.3049 30.225 49.1349C30.225 50.1499 31.05 50.9749 32.065 50.9749C33.08 50.9749 33.9 50.1499 33.9 49.1349C33.9 48.2999 33.325 47.5749 32.55 47.3699V43.8299H33.51V45.8299C33.51 46.0999 33.73 46.3199 34 46.3199C34.27 46.3199 34.49 46.0999 34.49 45.8299V43.8299H35.53V51.2699C35.53 51.5399 35.75 51.7599 36.02 51.7599C36.29 51.7599 36.51 51.5399 36.51 51.2699V43.8299H37.55V45.8299C37.55 46.0999 37.77 46.3199 38.04 46.3199C38.31 46.3199 38.53 46.0999 38.53 45.8299V43.8299H39.49V45.6549C39.49 45.7849 39.54 45.9049 39.63 45.9949L42.8 49.2449C42.655 49.5049 42.575 49.7949 42.575 50.0999C42.575 51.0899 43.38 51.8899 44.365 51.8899C45.355 51.8899 46.16 51.0849 46.16 50.0999C46.16 49.1149 45.355 48.3099 44.365 48.3099C44.05 48.3099 43.75 48.3949 43.485 48.5499L40.465 45.4599V43.8299H42.28C43.195 43.8299 43.94 43.0849 43.94 42.1699V40.4299H47.48C47.69 41.2149 48.41 41.7849 49.245 41.7849C50.26 41.7849 51.085 40.9599 51.085 39.9449C51.085 38.9299 50.26 38.1049 49.245 38.1049C48.405 38.1049 47.68 38.6849 47.48 39.4599H43.94V38.4999H45.945C46.215 38.4999 46.435 38.2799 46.435 38.0099C46.435 37.7399 46.215 37.5199 45.945 37.5199H43.94V36.4799H51.38C51.65 36.4799 51.87 36.2599 51.87 35.9899C51.87 35.7199 51.64 35.4999 51.37 35.4999ZM39.985 42.8549C39.98 42.8549 39.98 42.8549 39.975 42.8549C39.97 42.8549 39.97 42.8549 39.965 42.8549H29.725C29.35 42.8549 29.045 42.5499 29.045 42.1749V29.8299C29.045 29.4549 29.35 29.1499 29.725 29.1499H42.275C42.65 29.1499 42.955 29.4549 42.955 29.8299V42.1699C42.955 42.5449 42.65 42.8499 42.275 42.8499H39.985V42.8549Z" fill="white"/>
</g>
<defs>
<clipPath id="clip0_1649_2805">
<rect width="32" height="32" fill="white" transform="translate(20 20)"/>
</clipPath>
</defs>
</svg>
