<svg width="72" height="72" viewBox="0 0 72 72" fill="none" xmlns="http://www.w3.org/2000/svg">
<circle cx="36" cy="36" r="36" fill="#1A1D27" fill-opacity="0.9"/>
<path d="M49.2714 45.4845H39.6625C39.4928 44.8322 39.152 44.2371 38.6754 43.7605C38.1988 43.2839 37.6037 42.9431 36.9514 42.7734V41.689H42.6403C44.5441 41.5877 46.3399 40.7729 47.67 39.4069C49 38.0409 49.7666 36.224 49.817 34.3181C49.8675 32.4122 49.1981 30.5573 47.9422 29.1229C46.6863 27.6884 44.9361 26.7797 43.0403 26.5779C42.4143 25.0214 41.2904 23.7161 39.8441 22.8659C38.3978 22.0158 36.7106 21.6687 35.0462 21.8789C33.3818 22.0891 31.8339 22.8448 30.6443 24.0278C29.4548 25.2109 28.6907 26.7546 28.4714 28.4179H28.4181C27.5262 28.3852 26.637 28.5327 25.8034 28.8514C24.9699 29.1702 24.2091 29.6537 23.5666 30.2731C22.9242 30.8925 22.4131 31.6351 22.0641 32.4564C21.7151 33.2777 21.5352 34.161 21.5352 35.0534C21.5352 35.9458 21.7151 36.8291 22.0641 37.6504C22.4131 38.4718 22.9242 39.2143 23.5666 39.8337C24.2091 40.4531 24.9699 40.9366 25.8034 41.2554C26.637 41.5742 27.5262 41.7216 28.4181 41.689H35.0492V42.7734C34.4051 42.95 33.8192 43.2938 33.3508 43.7699C32.8825 44.2461 32.5484 44.8376 32.3825 45.4845H22.7292C22.5971 45.4717 22.4639 45.4867 22.338 45.5284C22.2121 45.5702 22.0963 45.6378 21.9981 45.7269C21.8999 45.8161 21.8214 45.9248 21.7677 46.0461C21.714 46.1674 21.6862 46.2985 21.6862 46.4312C21.6862 46.5638 21.714 46.695 21.7677 46.8163C21.8214 46.9376 21.8999 47.0463 21.9981 47.1355C22.0963 47.2246 22.2121 47.2922 22.338 47.334C22.4639 47.3757 22.5971 47.3907 22.7292 47.3779H32.3381C32.5444 48.1927 33.0165 48.9155 33.6799 49.4318C34.3432 49.9481 35.1597 50.2284 36.0003 50.2284C36.8408 50.2284 37.6574 49.9481 38.3207 49.4318C38.984 48.9155 39.4562 48.1927 39.6625 47.3779H49.2714C49.4034 47.3907 49.5367 47.3757 49.6626 47.334C49.7885 47.2922 49.9043 47.2246 50.0025 47.1355C50.1007 47.0463 50.1792 46.9376 50.2329 46.8163C50.2866 46.695 50.3143 46.5638 50.3143 46.4312C50.3143 46.2985 50.2866 46.1674 50.2329 46.0461C50.1792 45.9248 50.1007 45.8161 50.0025 45.7269C49.9043 45.6378 49.7885 45.5702 49.6626 45.5284C49.5367 45.4867 49.4034 45.4717 49.2714 45.4845ZM23.6714 35.049C23.6737 33.7916 24.1749 32.5866 25.0648 31.6983C25.9547 30.8101 27.1607 30.3112 28.4181 30.3112H29.3603C29.6125 30.3112 29.8545 30.211 30.0328 30.0326C30.2112 29.8542 30.3114 29.6123 30.3114 29.3601C30.3134 27.9952 30.806 26.6765 31.6995 25.6446C32.5929 24.6127 33.8275 23.9364 35.1781 23.7392C36.5287 23.5419 37.9052 23.8368 39.0565 24.5701C40.2077 25.3033 41.0569 26.4261 41.4492 27.7334C41.5337 27.9706 41.7002 28.1698 41.9185 28.2953C42.1368 28.4208 42.3928 28.4642 42.6403 28.4179C44.1491 28.4179 45.5961 29.0172 46.6629 30.0841C47.7298 31.151 48.3292 32.598 48.3292 34.1067C48.3292 35.6155 47.7298 37.0625 46.6629 38.1294C45.5961 39.1963 44.1491 39.7956 42.6403 39.7956H28.4181C27.1599 39.7933 25.9539 39.2924 25.0643 38.4028C24.1746 37.5131 23.6737 36.3071 23.6714 35.049ZM36.0003 48.329C35.6237 48.3307 35.255 48.2207 34.9411 48.0127C34.6271 47.8048 34.3819 47.5083 34.2365 47.1609C34.0912 46.8134 34.0523 46.4307 34.1246 46.0611C34.197 45.6915 34.3775 45.3518 34.6432 45.0848C34.9088 44.8179 35.2478 44.6359 35.617 44.5618C35.9862 44.4876 36.3692 44.5248 36.7173 44.6685C37.0654 44.8122 37.363 45.056 37.5724 45.369C37.7818 45.682 37.8936 46.0501 37.8936 46.4267C37.8948 46.6761 37.8467 46.9233 37.7521 47.154C37.6574 47.3848 37.5182 47.5945 37.3422 47.7713C37.1663 47.948 36.9572 48.0883 36.7269 48.184C36.4966 48.2797 36.2497 48.329 36.0003 48.329Z" fill="white"/>
</svg>
