<svg width="72" height="72" viewBox="0 0 72 72" fill="none" xmlns="http://www.w3.org/2000/svg">
<circle cx="36" cy="36" r="36" fill="#1A1D27" fill-opacity="0.9"/>
<g clip-path="url(#clip0_1649_2824)">
<path d="M49.1875 46.375C47.9653 46.375 46.9233 47.1589 46.5361 48.25H38.6514C38.3684 47.4521 37.7354 46.8191 36.9375 46.5361V44.4238C39.1792 44.3591 41.2683 44.0632 42.8984 43.5742C44.4106 43.1206 46.3125 42.2654 46.3125 40.6875V23.75C46.3125 22.1721 44.4106 21.3169 42.8984 20.8633C41.043 20.3066 38.5928 20 36 20C33.4072 20 30.957 20.3066 29.1016 20.8633C27.5894 21.3169 25.6875 22.1721 25.6875 23.75V40.6875C25.6875 41.1694 25.8838 41.8835 26.8193 42.5469C27.3748 42.9409 28.1426 43.2866 29.1016 43.5742C30.7319 44.0632 32.8208 44.3591 35.0625 44.4238V46.5361C34.2646 46.8191 33.6316 47.4521 33.3486 48.25H25.4639C25.0767 47.1589 24.0347 46.375 22.8125 46.375C21.2617 46.375 20 47.6367 20 49.1875C20 50.7383 21.2617 52 22.8125 52C24.0347 52 25.0767 51.2161 25.4639 50.125H33.3486C33.7358 51.2161 34.7778 52 36 52C37.2222 52 38.2642 51.2161 38.6514 50.125H46.5361C46.9233 51.2161 47.9653 52 49.1875 52C50.7383 52 52 50.7383 52 49.1875C52 47.6367 50.7383 46.375 49.1875 46.375ZM27.5625 31.6714C28.001 31.8884 28.5154 32.0859 29.1016 32.2617C30.957 32.8184 33.4072 33.125 36 33.125C38.5928 33.125 41.043 32.8184 42.8984 32.2617C43.4846 32.0859 43.999 31.8882 44.4375 31.6711V34.99C44.3953 35.1187 43.8953 35.6672 42.115 36.1614C40.4573 36.6216 38.2856 36.875 36 36.875C33.7144 36.875 31.5427 36.6216 29.885 36.1614C28.1047 35.6672 27.6047 35.1187 27.5625 34.99V31.6714ZM27.5625 26.0464C28.001 26.2634 28.5154 26.4609 29.1016 26.6367C30.957 27.1934 33.4072 27.5 36 27.5C38.5928 27.5 41.043 27.1934 42.8984 26.6367C43.4846 26.4609 43.999 26.2632 44.4375 26.0461V29.365C44.3953 29.4937 43.8953 30.0422 42.115 30.5364C40.4573 30.9966 38.2856 31.25 36 31.25C33.7144 31.25 31.5427 30.9966 29.885 30.5364C28.1047 30.0422 27.6047 29.4937 27.5625 29.365V26.0464ZM29.885 22.5886C31.5427 22.1284 33.7144 21.875 36 21.875C38.2856 21.875 40.4573 22.1284 42.115 22.5886C43.8511 23.0706 44.3699 23.6045 44.4338 23.75C44.3699 23.8955 43.8508 24.4294 42.115 24.9114C40.4573 25.3716 38.2856 25.625 36 25.625C33.7144 25.625 31.5427 25.3716 29.885 24.9114C28.1489 24.4294 27.6301 23.8955 27.5662 23.75C27.6301 23.6045 28.1489 23.0706 29.885 22.5886ZM27.5625 40.6775V37.2964C28.001 37.5134 28.5154 37.7109 29.1016 37.8867C30.957 38.4434 33.4072 38.75 36 38.75C38.5928 38.75 41.043 38.4434 42.8984 37.8867C43.4846 37.7109 43.999 37.5132 44.4375 37.2961V40.6775C44.3953 40.8062 43.8953 41.3547 42.115 41.8489C40.4573 42.3091 38.2856 42.5625 36 42.5625C33.7144 42.5625 31.5427 42.3091 29.885 41.8489C28.1047 41.3547 27.6047 40.8062 27.5625 40.6775ZM22.8125 50.125C22.2957 50.125 21.875 49.7043 21.875 49.1875C21.875 48.6707 22.2957 48.25 22.8125 48.25C23.3293 48.25 23.75 48.6707 23.75 49.1875C23.75 49.7043 23.3293 50.125 22.8125 50.125ZM36 50.125C35.4832 50.125 35.0625 49.7043 35.0625 49.1875C35.0625 48.6707 35.4832 48.25 36 48.25C36.5168 48.25 36.9375 48.6707 36.9375 49.1875C36.9375 49.7043 36.5168 50.125 36 50.125ZM49.1875 50.125C48.6707 50.125 48.25 49.7043 48.25 49.1875C48.25 48.6707 48.6707 48.25 49.1875 48.25C49.7043 48.25 50.125 48.6707 50.125 49.1875C50.125 49.7043 49.7043 50.125 49.1875 50.125Z" fill="white"/>
</g>
<defs>
<clipPath id="clip0_1649_2824">
<rect width="32" height="32" fill="white" transform="translate(20 20)"/>
</clipPath>
</defs>
</svg>
