<svg width="32" height="32" viewBox="0 0 32 32" fill="none" xmlns="http://www.w3.org/2000/svg">
<circle cx="16" cy="16" r="16" fill="#1A1D27"/>
<path d="M13.1997 9.3334H18.7997C20.933 9.3334 22.6663 11.0667 22.6663 13.2001V18.8001C22.6663 19.8256 22.259 20.8091 21.5338 21.5342C20.8087 22.2594 19.8252 22.6667 18.7997 22.6667H13.1997C11.0663 22.6667 9.33301 20.9334 9.33301 18.8001V13.2001C9.33301 12.1746 9.74039 11.1911 10.4655 10.4659C11.1907 9.74078 12.1742 9.3334 13.1997 9.3334ZM13.0663 10.6667C12.4298 10.6667 11.8194 10.9196 11.3693 11.3697C10.9192 11.8198 10.6663 12.4302 10.6663 13.0667V18.9334C10.6663 20.2601 11.7397 21.3334 13.0663 21.3334H18.933C19.5695 21.3334 20.18 21.0805 20.6301 20.6305C21.0802 20.1804 21.333 19.5699 21.333 18.9334V13.0667C21.333 11.7401 20.2597 10.6667 18.933 10.6667H13.0663ZM19.4997 11.6667C19.7207 11.6667 19.9326 11.7545 20.0889 11.9108C20.2452 12.0671 20.333 12.2791 20.333 12.5001C20.333 12.7211 20.2452 12.933 20.0889 13.0893C19.9326 13.2456 19.7207 13.3334 19.4997 13.3334C19.2787 13.3334 19.0667 13.2456 18.9104 13.0893C18.7541 12.933 18.6663 12.7211 18.6663 12.5001C18.6663 12.2791 18.7541 12.0671 18.9104 11.9108C19.0667 11.7545 19.2787 11.6667 19.4997 11.6667ZM15.9997 12.6667C16.8837 12.6667 17.7316 13.0179 18.3567 13.643C18.9818 14.2682 19.333 15.116 19.333 16.0001C19.333 16.8841 18.9818 17.732 18.3567 18.3571C17.7316 18.9822 16.8837 19.3334 15.9997 19.3334C15.1156 19.3334 14.2678 18.9822 13.6427 18.3571C13.0175 17.732 12.6663 16.8841 12.6663 16.0001C12.6663 15.116 13.0175 14.2682 13.6427 13.643C14.2678 13.0179 15.1156 12.6667 15.9997 12.6667ZM15.9997 14.0001C15.4692 14.0001 14.9605 14.2108 14.5855 14.5859C14.2104 14.9609 13.9997 15.4696 13.9997 16.0001C13.9997 16.5305 14.2104 17.0392 14.5855 17.4143C14.9605 17.7894 15.4692 18.0001 15.9997 18.0001C16.5301 18.0001 17.0388 17.7894 17.4139 17.4143C17.789 17.0392 17.9997 16.5305 17.9997 16.0001C17.9997 15.4696 17.789 14.9609 17.4139 14.5859C17.0388 14.2108 16.5301 14.0001 15.9997 14.0001Z" fill="white"/>
</svg>
