<svg width="20" height="20" viewBox="0 0 20 20" fill="none" xmlns="http://www.w3.org/2000/svg">
<path d="M8.33268 12.5003L12.6577 10.0003L8.33268 7.50033V12.5003ZM17.966 5.97533C18.0743 6.36699 18.1493 6.89199 18.1993 7.55866C18.2577 8.22533 18.2827 8.80033 18.2827 9.30033L18.3327 10.0003C18.3327 11.8253 18.1993 13.167 17.966 14.0253C17.7577 14.7753 17.2743 15.2587 16.5243 15.467C16.1327 15.5753 15.416 15.6503 14.316 15.7003C13.2327 15.7587 12.241 15.7837 11.3243 15.7837L9.99935 15.8337C6.50768 15.8337 4.33268 15.7003 3.47435 15.467C2.72435 15.2587 2.24102 14.7753 2.03268 14.0253C1.92435 13.6337 1.84935 13.1087 1.79935 12.442C1.74102 11.7753 1.71602 11.2003 1.71602 10.7003L1.66602 10.0003C1.66602 8.17533 1.79935 6.83366 2.03268 5.97533C2.24102 5.22533 2.72435 4.74199 3.47435 4.53366C3.86602 4.42533 4.58268 4.35033 5.68268 4.30033C6.76602 4.24199 7.75768 4.21699 8.67435 4.21699L9.99935 4.16699C13.491 4.16699 15.666 4.30033 16.5243 4.53366C17.2743 4.74199 17.7577 5.22533 17.966 5.97533Z" fill="white"/>
</svg>
