<svg width="20" height="20" viewBox="0 0 20 20" fill="none" xmlns="http://www.w3.org/2000/svg">
<path d="M6.49935 1.66699H13.4993C16.166 1.66699 18.3327 3.83366 18.3327 6.50032V13.5003C18.3327 14.7822 17.8235 16.0116 16.917 16.918C16.0106 17.8244 14.7812 18.3337 13.4993 18.3337H6.49935C3.83268 18.3337 1.66602 16.167 1.66602 13.5003V6.50032C1.66602 5.21845 2.17524 3.98907 3.08167 3.08264C3.98809 2.17622 5.21747 1.66699 6.49935 1.66699ZM6.33268 3.33366C5.53703 3.33366 4.77397 3.64973 4.21136 4.21234C3.64875 4.77495 3.33268 5.53801 3.33268 6.33366V13.667C3.33268 15.3253 4.67435 16.667 6.33268 16.667H13.666C14.4617 16.667 15.2247 16.3509 15.7873 15.7883C16.3499 15.2257 16.666 14.4626 16.666 13.667V6.33366C16.666 4.67532 15.3243 3.33366 13.666 3.33366H6.33268ZM14.3743 4.58366C14.6506 4.58366 14.9156 4.69341 15.1109 4.88876C15.3063 5.08411 15.416 5.34906 15.416 5.62532C15.416 5.90159 15.3063 6.16654 15.1109 6.36189C14.9156 6.55724 14.6506 6.66699 14.3743 6.66699C14.0981 6.66699 13.8331 6.55724 13.6378 6.36189C13.4424 6.16654 13.3327 5.90159 13.3327 5.62532C13.3327 5.34906 13.4424 5.08411 13.6378 4.88876C13.8331 4.69341 14.0981 4.58366 14.3743 4.58366ZM9.99935 5.83366C11.1044 5.83366 12.1642 6.27264 12.9456 7.05405C13.727 7.83545 14.166 8.89526 14.166 10.0003C14.166 11.1054 13.727 12.1652 12.9456 12.9466C12.1642 13.728 11.1044 14.167 9.99935 14.167C8.89428 14.167 7.83447 13.728 7.05307 12.9466C6.27167 12.1652 5.83268 11.1054 5.83268 10.0003C5.83268 8.89526 6.27167 7.83545 7.05307 7.05405C7.83447 6.27264 8.89428 5.83366 9.99935 5.83366ZM9.99935 7.50032C9.33631 7.50032 8.70042 7.76372 8.23158 8.23256C7.76274 8.7014 7.49935 9.33728 7.49935 10.0003C7.49935 10.6634 7.76274 11.2993 8.23158 11.7681C8.70042 12.2369 9.33631 12.5003 9.99935 12.5003C10.6624 12.5003 11.2983 12.2369 11.7671 11.7681C12.236 11.2993 12.4993 10.6634 12.4993 10.0003C12.4993 9.33728 12.236 8.7014 11.7671 8.23256C11.2983 7.76372 10.6624 7.50032 9.99935 7.50032Z" fill="white"/>
</svg>
