<svg width="24" height="24" viewBox="0 0 24 24" fill="none" xmlns="http://www.w3.org/2000/svg">
<path d="M7.79927 2H16.1993C19.3993 2 21.9993 4.6 21.9993 7.8V16.2C21.9993 17.7383 21.3882 19.2135 20.3005 20.3012C19.2128 21.3889 17.7375 22 16.1993 22H7.79927C4.59927 22 1.99927 19.4 1.99927 16.2V7.8C1.99927 6.26174 2.61034 4.78649 3.69805 3.69878C4.78576 2.61107 6.26101 2 7.79927 2ZM7.59927 4C6.64449 4 5.72881 4.37928 5.05368 5.05442C4.37855 5.72955 3.99927 6.64522 3.99927 7.6V16.4C3.99927 18.39 5.60927 20 7.59927 20H16.3993C17.354 20 18.2697 19.6207 18.9449 18.9456C19.62 18.2705 19.9993 17.3548 19.9993 16.4V7.6C19.9993 5.61 18.3893 4 16.3993 4H7.59927ZM17.2493 5.5C17.5808 5.5 17.8987 5.6317 18.1332 5.86612C18.3676 6.10054 18.4993 6.41848 18.4993 6.75C18.4993 7.08152 18.3676 7.39946 18.1332 7.63388C17.8987 7.8683 17.5808 8 17.2493 8C16.9177 8 16.5998 7.8683 16.3654 7.63388C16.131 7.39946 15.9993 7.08152 15.9993 6.75C15.9993 6.41848 16.131 6.10054 16.3654 5.86612C16.5998 5.6317 16.9177 5.5 17.2493 5.5ZM11.9993 7C13.3253 7 14.5971 7.52678 15.5348 8.46447C16.4725 9.40215 16.9993 10.6739 16.9993 12C16.9993 13.3261 16.4725 14.5979 15.5348 15.5355C14.5971 16.4732 13.3253 17 11.9993 17C10.6732 17 9.40142 16.4732 8.46373 15.5355C7.52605 14.5979 6.99927 13.3261 6.99927 12C6.99927 10.6739 7.52605 9.40215 8.46373 8.46447C9.40142 7.52678 10.6732 7 11.9993 7ZM11.9993 9C11.2036 9 10.4406 9.31607 9.87795 9.87868C9.31534 10.4413 8.99927 11.2044 8.99927 12C8.99927 12.7956 9.31534 13.5587 9.87795 14.1213C10.4406 14.6839 11.2036 15 11.9993 15C12.7949 15 13.558 14.6839 14.1206 14.1213C14.6832 13.5587 14.9993 12.7956 14.9993 12C14.9993 11.2044 14.6832 10.4413 14.1206 9.87868C13.558 9.31607 12.7949 9 11.9993 9Z" fill="#1A1D27" fill-opacity="0.9"/>
</svg>
