<svg width="24" height="24" viewBox="0 0 24 24" fill="none" xmlns="http://www.w3.org/2000/svg">
<path d="M9.99927 15L15.1893 12L9.99927 9V15ZM21.5593 7.17C21.6893 7.64 21.7793 8.27 21.8393 9.07C21.9093 9.87 21.9393 10.56 21.9393 11.16L21.9993 12C21.9993 14.19 21.8393 15.8 21.5593 16.83C21.3093 17.73 20.7293 18.31 19.8293 18.56C19.3593 18.69 18.4993 18.78 17.1793 18.84C15.8793 18.91 14.6893 18.94 13.5893 18.94L11.9993 19C7.80927 19 5.19927 18.84 4.16927 18.56C3.26927 18.31 2.68927 17.73 2.43927 16.83C2.30927 16.36 2.21927 15.73 2.15927 14.93C2.08927 14.13 2.05927 13.44 2.05927 12.84L1.99927 12C1.99927 9.81 2.15927 8.2 2.43927 7.17C2.68927 6.27 3.26927 5.69 4.16927 5.44C4.63927 5.31 5.49927 5.22 6.81927 5.16C8.11927 5.09 9.30927 5.06 10.4093 5.06L11.9993 5C16.1893 5 18.7993 5.16 19.8293 5.44C20.7293 5.69 21.3093 6.27 21.5593 7.17Z" fill="#1A1D27" fill-opacity="0.9"/>
</svg>
