<svg width="32" height="32" viewBox="0 0 32 32" fill="none" xmlns="http://www.w3.org/2000/svg">
<circle cx="16" cy="16" r="16" fill="#1A1D27"/>
<path d="M22.973 12C22.4597 12.2333 21.9064 12.3867 21.333 12.46C21.9197 12.1067 22.373 11.5467 22.5864 10.8733C22.033 11.2067 21.4197 11.44 20.773 11.5733C20.2464 11 19.5064 10.6667 18.6664 10.6667C17.0997 10.6667 15.8197 11.9467 15.8197 13.5267C15.8197 13.7533 15.8464 13.9733 15.893 14.18C13.5197 14.06 11.4064 12.92 9.9997 11.1933C9.75303 11.6133 9.61303 12.1067 9.61303 12.6267C9.61303 13.62 10.113 14.5 10.8864 15C10.413 15 9.97303 14.8667 9.58637 14.6667V14.6867C9.58637 16.0733 10.573 17.2333 11.8797 17.4933C11.4602 17.6081 11.0198 17.6241 10.593 17.54C10.7741 18.1083 11.1287 18.6056 11.607 18.9619C12.0854 19.3183 12.6633 19.5158 13.2597 19.5267C12.2488 20.327 10.9957 20.7595 9.70637 20.7533C9.4797 20.7533 9.25303 20.74 9.02637 20.7133C10.293 21.5267 11.7997 22 13.413 22C18.6664 22 21.553 17.64 21.553 13.86C21.553 13.7333 21.553 13.6133 21.5464 13.4867C22.1064 13.0867 22.5864 12.58 22.973 12Z" fill="white"/>
</svg>
